<svg version="1.0" xmlns="http://www.w3.org/2000/svg" width="1365.333" height="1365.333" viewBox="0 0 1024 1024">
  <g fill="transparent">
    <path d="M0 512v512h1024V0H0v512zm427.4-249.1c6 9.4 7.9 15.9 8.4 28.3.4 9.9.1 12.7-1.7 18.6-1.1 3.8-2.8 7.5-3.6 8.2-1.2 1-1.4 2.8-1 8.9 3.1 43.7 3.9 50.1 6.5 50.1 1.5 0 1.8-1.7 2.3-16.8.4-13.7 1-18.6 3.2-27.2 4.6-17.9 12.2-31.6 24.4-44.4 5.8-6 19.9-16.6 22.2-16.6 2 0 4.3 15.9 4.3 30.5 0 16.4-.7 21.1-6.1 38.8-3 9.7-4.4 12.6-8 16.8-7.2 8.5-13.2 17.9-11.4 17.9.5 0 2-1.9 3.4-4.3 2.4-4.1 12.2-15.9 13.7-16.5.9-.3 7.8 15.9 8.7 20.2l.6 2.9 2-3.9c4.6-9.1 17.3-20.9 28.3-26.2 5.9-3 18-6.2 22.9-6.2 3.1 0 3 .3-1.6 11.5-3.6 8.6-3.6 9.5-.1 6.3 1.5-1.4 4.5-3.7 6.7-5 4.5-2.8 18.1-7.5 19.1-6.6 1.2 1.2-2.8 13.5-7.3 22.6-2.5 5.2-7.4 13-10.9 17.5-3.5 4.4-6.3 8.1-6.2 8.3.2.1 4.4-.1 9.4-.5l9.1-.6 10.7-10c24.5-23.1 48-44.4 48.5-43.9.3.3-11.5 12.5-26.2 27.2l-26.8 26.8 6.3 1.3c6.5 1.3 11.8 3.6 11.8 5 0 1.3-12 12.4-17.3 16-2.6 1.7-8 4.8-12.1 6.7l-7.4 3.5-.7 5.2c-.4 2.9-1.4 7.6-2.1 10.6-1.6 5.8-1.3 7.1.9 5 .7-.8 6.7-4.8 13.2-8.9 7.2-4.6 14.8-10.4 19.4-15 4.2-4.1 11.6-11.1 16.6-15.5 4.9-4.4 17.4-16 27.8-25.9 10.3-9.8 19.1-17.5 19.5-17.2.3.4-9.8 11.1-22.6 23.9-23 23-23.2 23.3-23.2 27.5 0 3.8.2 4.2 2.4 4.2 2 0 4.3 2.7 12.7 14.7 5.7 8.2 11.8 16.8 13.6 19.2s3.3 5.1 3.3 6-2 3.7-4.5 6.1-4.5 4.7-4.5 5.1 7.4 13 16.3 28.1c9 15 18.3 30.7 20.7 34.8s4.5 7.7 4.7 7.9c.2.3 4.5-3.6 9.6-8.5 5-4.9 19.6-18.6 32.2-30.4 12.7-11.8 27.3-25.6 32.5-30.6 5.2-4.9 12.4-11.7 16-14.9 3.6-3.3 10-9.3 14.2-13.4 4.3-4.1 8-7.2 8.3-6.9.7.6-27.7 29.1-55.1 55.3-32.3 30.9-59.8 58.4-59.1 59.1.4.4 1.6-.1 2.6-1 1.1-1 2.3-1.6 2.8-1.3.4.3 3.5 5.7 6.8 12.1s6.3 11.6 6.7 11.6 4.8-3.6 9.8-8 9.6-8 10.2-8 .9.2.7.5c-.2.2-4.8 4.8-10.1 10.2l-9.7 9.9 9.9 18.9c5.5 10.5 10.1 19.4 10.3 20 .2.5 2.2-.5 4.5-2.3 6.1-4.8 6.3-3.9.4 2.1-5.1 5.2-5.3 5.5-4.6 9.5.5 2.9 1.1 4.2 2.3 4.2.9 0 2.1 1.4 2.8 3.2.6 1.8 1.9 5.4 2.9 8.1l1.9 4.7-2.5 4.8c-4.9 9.3-40.3 42.8-64.8 61.2l-4.6 3.5 23.4.6c12.9.3 29.8 1 37.6 1.4l14.1.7.5-2.6c.3-1.4-.1-3.5-1-4.7-1.6-2.3-8.2-17.5-8.2-18.9 0-.4 3.5-.8 7.8-.8 4.2 0 10.9-.3 14.9-.7l7.2-.7.7-4.6c.4-2.5.4-9.4.1-15.4-.4-5.9-.3-10.8.1-10.8s3.7 2.5 7.2 5.5c3.6 3 7 5.5 7.7 5.5s5.4-2.9 10.5-6.5c13.3-9.2 34.7-23 45.5-29.2 18.1-10.5 41.3-19.8 41.3-16.7 0 .5-2.6 4-5.7 7.9-20.8 25.8-29.7 49-39.8 104-.3 1.5-2.5 2.7-8.5 4.9-4.4 1.5-8 3.2-8 3.7s11.5.9 26 .9c14.3 0 26-.4 26-.8 0-.5-.9-3.5-2-6.7s-2-5.9-2-6 3.5-.5 7.8-.8c10.3-.7 15.8-3.4 18.1-8.8.9-2.1 1.8-3.9 2.2-3.9.7 0 11.9 17.5 11.9 18.7 0 .5-2 2.2-4.5 3.7-2.5 1.6-4.5 3.3-4.5 3.7 0 .5 3.9.9 8.7.9 7.6 0 9-.3 11.9-2.5 4.5-3.4 6.4-3.3 6.4.5v3h21.3c22.4 0 45.7 1.4 52 3.1 5.2 1.4 5.1 4.4-.2 5.9-18 4.8-29.9 5.3-155.6 5.7-64.3.2-118.5.2-120.2-.2-1.8-.3-3.3-1.2-3.3-1.9 0-2.1-5.2-2.4-39-1.8-17.3.2-35.3.5-40 .6-4.7 0-15.8-.3-24.7-.8-15.1-.8-16.3-.8-16.9.9-.7 1.7-3.1 1.7-44.3 1.1-45.9-.7-72.3-1.9-80.6-3.6-4.9-1-5.5-.9-14.5 3.4-5.2 2.4-11.9 5.2-14.7 6.2-2.9 1-5.3 2.2-5.3 2.6 0 .5 4.6.8 10.3.8 14.9 0 32.7 1.2 32.7 2.2 0 .4-.7.8-1.5.8s-1.5.7-1.5 1.6.6 1.4 1.4 1.1c.7-.3 10.3-3.1 21.2-6.2l19.9-5.7 9 2.2c12.3 3 12.5 3 12.5 3.9s-14.2 6.5-25.7 10.2c-6.6 2.1-9.4 3.9-6 3.9 1.4 0 16-5.2 29.4-10.4 9.3-3.6 13.3-4.4 13.3-2.6 0 1.4 10.4 1.2 11.9-.3 1.1-.9 1.4-.9 1.8 0 .3.9 3.2 1.3 9.8 1.3s9.5-.4 9.8-1.3c.4-1 .7-.9 1.8 0 .7.7 3 1.3 5.2 1.3 3.1 0 3.8.3 3.5 1.7-.3 1.7-1.9 1.8-21.1 1.4-11.5-.2-20.7 0-20.7.5.1.5 1.8 6.1 3.9 12.4l3.9 11.5 8.1.9c5.6.7 8.1 1.3 8.1 2.3s-4.2 1.3-21 1.3c-13.3 0-21 .4-21 1s-2.9 1-6.6 1c-6.1 0-6.5.1-5.9 2s.2 2-6.7 2c-10.6 0-23.9-2.9-42.3-9.2-13.4-4.5-12.5-3.6-12.5-12.8v-8h-30.7c-41.5 0-62.3-.9-62.3-2.7 0-1-2.2-1.3-9.2-1.3-5.1 0-18.4-.3-29.5-.7-18.1-.5-20.3-.4-20.3 1 0 2.4-18 14.5-31.9 21.4l-12.4 6.1 6.4.6c3.5.3 12 .8 18.9 1.1 11.8.6 27.4 2.2 47.4 4.8 5.6.8 9.1 1.7 9.4 2.5.7 2.3-75 1.1-118-1.8-19.7-1.3-35.8-2.7-35.8-3.1s5.7-1 12.8-1.4c7-.4 15.8-1 19.6-1.4l6.8-.6-10.9-7.2c-13-8.6-29-16.5-39.9-19.5-7.8-2.2-9.1-2.3-75.6-2.6-58.6-.2-67.8-.5-67.8-1.7 0-1.3 3.9-1.5 26.3-1.5h26.2l-9-4.9c-9.8-5.2-10.8-6.7-8-12 1.9-3.8 3.1-3.8 9.5-.6 5.5 2.8 15.7 5.5 20.8 5.5 3.7 0 3.7.2 1.7 6-.8 2.3-1.5 4.6-1.5 5.1s11.9.9 26.5.9H131v-5c0-4.7.2-5 2.5-5 1.7 0 2.5-.5 2.5-1.8 0-1.1 1.3-2.3 3.5-3.1 2.4-.8 3.5-1.9 3.5-3.2 0-1.7-.8-1.9-7.5-1.9-6 0-7.5.3-7.5 1.5 0 1.3-3.6 1.5-26.4 1.5-14.5 0-27.1-.3-28-.6s-1.6-1.2-1.6-2c0-1-1.5-1.4-5.2-1.5-7.9-.1-10.8-1.7-3.3-1.8l6-.1 3-4.8c1.6-2.6 3.3-6 3.8-7.6.8-2.6 1.1-2.8 4.5-2.2 11.9 2 29 1.6 35.3-.9 1.3-.5 1.7.5 2.2 6.1.4 3.7 1 7.1 1.5 7.6.4.4 7.6 1.3 16 1.8l15.1 1.1 11.1-9.2c6-5.1 11-9.6 11-10.1 0-.4 2.5-.8 5.5-.8 4.2 0 5.5.3 5.5 1.5 0 .8.6 1.5 1.4 1.5s3.7 1.1 6.4 2.5c2.8 1.4 5.4 2.5 6 2.5.5 0 1.3-1.5 1.6-3.3.9-4.8 7.1-17.2 12-24.2 5.3-7.2 13.8-15.5 22.6-21.7 7.7-5.4 16.2-9.8 18.9-9.8 1.1 0 2.1-.6 2.3-1.2.5-1.3 1.8-.3 13.1 9.8l4.9 4.4-1.7 5.1c-2.5 7.4-1.6 13.5 3.4 23.2 2.4 4.9 4.1 9.6 4.1 11.7 0 3.6 2.1 11.4 4 14.9.8 1.7 2.1 2.1 5.7 2.1h4.6l-.6-3.8c-.3-2-.9-5.2-1.3-7-.6-3.2-.6-3.3 2-2.6 2 .5 2.6.2 2.6-1 0-.9.8-1.6 2-1.6 1.1 0 2-.6 2-1.3 0-.8 1.1-2 2.5-2.7 2.1-1.1 2.8-1.1 4.2.1 3.4 2.8 9.4 4.9 14.1 4.9 4.6 0 17.6 2.4 22 4.1 1.4.5 2.2 1.7 2.2 3.2 0 2.1 1.2 2.8 11.3 6.3 11 3.8 11.4 3.9 25.2 3.8 12.3 0 15.1-.3 23-2.8 8.4-2.5 23.3-8.6 34.9-14.2 6.5-3.1 7.2-3 8 .8.3 1.8 1.4 6.2 2.3 9.7l1.8 6.3 9.3-.4c5.1-.3 9.5-.7 9.7-1 .3-.3-.6-2.9-2-5.9-5.6-12.3-5.3-29.6.8-41.9 4.3-8.6 5.7-8.9 5.7-1.1 0 4.8.3 6.1 1.5 6.1s1.5-1.6 1.5-8c0-4.4.2-8 .4-8s3.3 1.6 7 3.5 8 3.5 9.5 3.5c2.7 0 2.9.3 3.5 5.1 1.3 10 8.5 25.3 14.8 31.8l3.3 3.4.5-6.6c.3-3.6.8-6.9 1.2-7.3s3.1 0 5.9.9c2.8 1 6.3 1.7 7.8 1.7 2.3 0 2.2-.2-1.4-2-2.3-1.1-5.6-3.3-7.5-5l-3.5-2.9h3.5c1.9 0 5.3.6 7.5 1.4 2.1.8 4.1 1.3 4.2 1.1.2-.2-1.3-1.6-3.4-3.2-2.1-1.5-10.3-8-18.3-14.3-8-6.4-17.5-13.9-21.1-16.6-11.4-8.6-40.9-31.8-52.3-41.2l-10.9-9-4.1 2.3c-6.9 4-7.3 3.8-20.3-11.9-6.5-7.8-13.4-16.1-15.3-18.5-1.8-2.3-4.2-4.2-5.2-4.2-1.7 0-1.9-.7-1.6-5.8l.3-5.7 4.3-.3c3.5-.3 4.5-.8 5.2-2.8 1.3-3.4 9.9-12.4 11.9-12.4 1.9 0 12.5-10.5 13.4-13.3.4-1 2-2.5 3.7-3.5 1.6-.9 3-2.2 3-2.8 0-1.1-15.7-3.8-28.9-5-8.3-.7-9.1-.2-9.1 5.6-.1 7.7-4 22.5-8.3 31.5-4.9 10.1-13.8 22.5-21.6 30-5.8 5.6-6 5.5-8.6-2.8-5.7-19-.7-39.8 12.5-52 5.7-5.3 16.9-11.7 20.4-11.7.9 0 1.6-.5 1.6-1 0-1.3-22.2-1.3-31.3 0-3.7.6-9.3 2.1-12.5 3.4l-5.7 2.4-5.1 12.9c-10.6 27-16.7 37.2-31.9 53.1-8.7 9.2-18.9 17.1-20.3 15.8-1.6-1.6-.8-31.8 1.1-40.6 3.6-16.7 13.8-34 26-44.2 13.1-10.9 25.1-17.3 43.9-23.5 10.4-3.3 11.8-4.1 11.8-6.1 0-2.8-1.3-2.8-11.9-.1-7.5 1.9-36.4 12.4-41.2 14.9-1 .6-1.9 2.1-1.9 3.3s-1.1 4.5-2.4 7.2c-2.4 5.3-9.3 11.5-21.3 19.2-6.5 4.1-19.2 9.8-20.1 8.9-1-1.1 1.9-11.5 4.9-17.6 3.6-7.1 10.2-14 16.1-16.9 2.4-1.1 9.3-3.3 15.3-4.9 9.1-2.4 22.3-6.9 33-11.3 1.1-.4-7.7-.8-20.1-.8-19.6-.1-22.3.1-23.5 1.6-4.6 5.6-42.5 26.3-48.2 26.3-1.3 0 .2-15.8 2.3-23 4.1-14 15.7-29.4 28.4-37.9 16.5-11 43.4-20.2 55.3-18.8 5.3.6 5.5-.4.6-2.8-7.9-3.7-28-3.1-44.8 1.4-7.8 2.2-8.1 2.3-11 7.3-6.7 11.3-28.2 25.3-47.6 30.8-9.5 2.8-30.9 4-30.9 1.9 0-3.2 8-14.9 15-21.9 14.3-14.4 32.6-21 58.2-21 8.6 0 13.7-.5 19-2 11.5-3.1 24.9-4.3 39.1-3.6 7 .4 12.7.5 12.7.2s-2-2.4-4.5-4.7-4.5-4.8-4.5-5.5c0-1.9 10.5-1.9 16 .1 4.5 1.6 9 2 9 .7-.1-2-34-31-40.3-34.3-1.2-.7-4.5-1.3-7.2-1.3-7.2-.1-15.5-5.2-20.6-12.8-6-8.8-5.5-9.7 4.3-7.7 8.7 1.8 16.6 6.6 20 12.1 1.8 3 5.4 6.4 9.5 9.3 7.7 5.4 21.7 16.8 32.7 26.5 10.8 9.7 12.6 9.5 5.2-.4-4.1-5.5-7.4-13.1-6.2-14.3.3-.3 4 .7 8.1 2.2 4.2 1.5 7.8 2.5 8.1 2.2s-4.1-3-9.9-6.1c-11.2-6-34.2-23.2-34.2-25.6 0-2.3 13.4-4.9 25.5-5 20.4 0 34.4 4.3 52.5 16.5 8.5 5.7 9.5 6.2 9.5 4.4 0-1.7-15.2-23.3-26.1-36.9-5.5-6.9-12.5-16-15.7-20.2-3.1-4.2-6.2-7.7-6.8-7.7-5-.3-11.4-12.1-12.2-22.4-.6-8.3.7-8.7 6.7-2.1 5.2 5.5 9.1 13.6 9.1 18.7 0 3.4 1.6 5.7 14.3 21.5 7.8 9.7 16.4 20.5 19.1 24 2.6 3.5 5 6.1 5.2 5.9s-2.5-6-6.1-12.8c-7.6-14.5-12.9-26.5-14.6-33.2-1.1-4.4-1.3-4.7-4.4-4.7s-3.3-.2-5.5-7.3c-1.8-5.7-2.4-10.3-2.8-22l-.4-14.7h3.1c3.1 0 3.1 0 3.1-5.5 0-4.1.4-5.5 1.4-5.5 3 0 19.6 12.2 25.6 18.8 10.9 11.8 22.3 31.1 26.1 43.9 2 7.1 3.3 5.2 2.5-4-.3-4.5-.9-12.6-1.3-18.1-.6-8.9-.9-10.3-3.8-14.6-5.8-8.6-9.2-30-6.6-40.7 1.8-7 6.2-16.3 7.7-16.3.8 0 2.5 1.7 3.8 3.9zm238.1 18c.9 3-1.5 7.1-4.2 7.1-2 0-2.3-.5-2.3-3.5 0-4.8 5.2-7.7 6.5-3.6zM563 285.2c0 .7-1.5 4.9-3.3 9.3-7 17.2-17.9 29-41.5 45-8.6 5.9-16.3 10.9-16.9 11.2-1.8.7-1.7-9.3.2-18 4.1-19.6 16.8-35.1 34.9-42.6 11.9-5 26.6-7.6 26.6-4.9zM289.5 308c29.2 6.4 48.1 23.1 65.5 58 5.9 11.8 10.7 24.7 9.6 25.7-.3.4-1.6-.3-2.9-1.4-3.2-2.9-5.3-3.9-18.5-8.4-33.3-11.5-49.7-24.2-61.5-47.6-2.5-4.7-6.4-17.1-8.2-25.1-.7-3.2-.6-3.2 3.2-3.2 2.1 0 7.9.9 12.8 2zm314.3 25.6c3.7 2.6 2.4 9.2-1.5 8-1.1-.4-2.8-1.5-3.7-2.5-1.7-1.8-1.7-2.1-.1-4.5 2-3 2.3-3.1 5.3-1zm-360.3 61.8c10.3 1.8 15.7 3.7 28 9.5 11.7 5.6 18.5 9.8 28.6 17.9 9 7.1 23.9 21.1 23.9 22.3 0 2-48.2.1-64-2.6-19.2-3.2-36.9-10.3-50.8-20.2-7.4-5.2-21.2-18.4-21.2-20.1 0-1.3 13.8-5.7 22-7.1 8.6-1.4 24.7-1.2 33.5.3zm533.3 27.1c1.8 3.9 1.5 5.5-1 5.5-4.2 0-5.3-1.4-3.8-4.9 1.5-3.8 3.3-4 4.8-.6zm-74.1 35.1c-.7 10.4-4.3 18.8-10.8 25.9-4.5 4.9-13.1 10.5-16.1 10.5-1.4 0-9.8-10.6-9.8-12.4 0-.4 1.1-.6 2.5-.6 9.4 0 19.5-13.6 19.5-26.1v-4.8l3.8-.4c2-.2 5.5-.4 7.6-.5l3.9-.2-.6 8.6zm-465.6-6.4c4 1.3 8.9 4.6 8.9 5.9 0 1.4-11.8 1-14.9-.5-3.5-1.8-5.5-4.2-4.6-5.6.8-1.3 6.4-1.3 10.6.2zm447.5 11c-.8 4.2-5.4 10.8-8.8 12.8-4.4 2.4-4.4.3-.1-4.1 2.2-2.2 4.9-5.8 5.8-8 2.2-4.8 4-5.2 3.1-.7zm72.5 85.8c1.1 0 1.2 3 .1 4.7-1.3 2-5.2.4-5.2-2.1 0-2.8 1-3.8 2.8-3.1.7.3 1.8.5 2.3.5zm-8.5 39.7c.7 1 1.4 2.3 1.4 2.9 0 1.2-11.8 5.9-12.7 5-.9-.8 6.8-9.6 8.5-9.6.8 0 2.1.8 2.8 1.7zm83.4 20.4c3.6 2.3 7.7 4.8 9.2 5.7 1.6 1 2.8 1.9 2.8 2.2s-6.4 3.7-14.2 7.5c-19.4 9.5-38.1 21-67.1 41.2-7.7 5.4-7.9 5.4-10 3.7-5.5-4.6-11.7-10.9-11.7-12 0-2.1 26.8-20.9 49-34.4 10.6-6.5 32.7-17.9 34.5-17.9.6 0 3.9 1.8 7.5 4zm-438.3 41.4c.3.9.3 1.8 0 2.1-1 1-4.7-.7-4.7-2.2 0-1.9 3.9-1.8 4.7.1zM346 671.9c0 .5 3 4.8 6.6 9.7 6.6 8.7 6.7 8.8 5.4 12.3-3.6 10.1-12.3 17.2-26.2 21.6-4.4 1.4-8.5 2.5-9.2 2.5-1.2 0-12.6-16.3-12.6-18.1 0-.5 2.8-.9 6.3-.9 14-.1 27.7-11.8 27.7-23.8 0-2.3.5-4.2 1-4.2.6 0 1 .4 1 .9zm33 4.6c0 1.6-.6 2.5-1.5 2.5s-1.5-.9-1.5-2.5.6-2.5 1.5-2.5 1.5.9 1.5 2.5zm69.3 4.7c1.8 2.4 1.8 3 .7 5.7-.7 1.7-1.7 3.1-2.4 3.1-2 0-19.6-6.1-19.6-6.8 0-.8 15.7-5 17.9-4.8.8.1 2.3 1.3 3.4 2.8zM337 684.6c0 1.9-4.5 6.3-8 7.9-3.9 1.8-7.2 1.3-3.8-.6.9-.5 3.6-2.5 6-4.3 4.2-3.4 5.8-4.2 5.8-3zm-182.7 13.8c3.1 1.3 6 2.6 6.3 2.9.3.2 0 3.2-.7 6.6-.9 4.1-1.8 6.1-2.8 6.1-2.4 0-15.1-4.3-15.1-5.1 0-.5 1.1-2.9 2.5-5.5s2.5-5.3 2.5-6c0-1.9.5-1.8 7.3 1zm253.1 4.4c1.4 2.1 4 5.1 5.6 6.7 1.7 1.6 3 3.3 3 3.7 0 1.3-15.7 8.5-22.5 10.3-8.7 2.3-21.5 3.2-21.5 1.4 0-1.4 17.7-18.9 19.1-18.9.5 0 2.9-1.6 5.5-3.5 2.5-1.9 5.4-3.5 6.3-3.5 1 0 3 1.7 4.5 3.8zm32 11.7c2.5 3.6 4.6 7.1 4.6 7.8-.1 1.3-21.2 11.5-31.6 15.3-14.3 5.3-35.2 6.9-46.6 3.8-8.1-2.3-7.3-3.6 1.7-2.8 8.6.8 9.4-.2 5-5.4-3.9-4.6-3.3-5.2 4.9-5.2 13 0 20.5-2.2 39.1-11.4 9.4-4.7 17.3-8.5 17.7-8.5.3-.1 2.7 2.8 5.2 6.4zm423.6 2.2c-.1 2.3-6.1 6.3-9.5 6.3-2.9 0-1.4-2.5 2.8-4.6 4.6-2.3 6.7-2.8 6.7-1.7zm-46.2 19c.2.8-.6 1.3-2.2 1.3-2.5 0-3.3-1-1.9-2.4 1-1 3.6-.3 4.1 1.1zm96.2.2c0 1.6-1 2-6.1 2.6-7.1.8-8.8.1-3.3-1.4 2.2-.6 4.6-1.5 5.4-2.1 2.4-1.5 4-1.2 4 .9zM645 755c0 .5-.7 1-1.5 1s-1.5-.5-1.5-1c0-.6.7-1 1.5-1s1.5.4 1.5 1zm-35 2.4c7.4.8 15.5 1.9 18 2.4 2.5.6 7.8 1.3 11.8 1.7l7.2.7V782h6.3c9.5 0 39.7 2.3 39.7 3 0 1.4-44.5 2.1-62.4 1.1-10-.6-25.6-1.4-34.8-1.7-9.3-.3-16.8-1-16.8-1.5s2.3-.9 5-.9c6.5 0 6.4-1.4-.2-2.9-7.3-1.7-14.4-5.3-14-7.1.2-.8.6-3.5.9-6.1.9-7.5 1.2-7.7 9-5.5 18.8 5.2 20.3 5.4 40.8 6.1 13.3.5 20.5.4 20.5-.2s-5.5-1.3-12.7-1.7c-7.1-.4-16.8-1.1-21.8-1.7-9.3-1-22.5-4.5-22.5-6 0-1.3 10.6-1.1 26 .5zm224 6.4c0 1.8 1.8 1.9 33.8 2.5 18.5.3 54.5.3 80 0 42.6-.6 46.2-.5 46.2 1 0 1.6-3.3 1.7-37.7 1.8-67.9.3-297.8-.3-298.2-.7-1.5-1.4 3.4-1.9 20.7-1.9 14.7 0 19.9-.3 20.5-1.3 1.2-1.8 3.7-1.5 3.7.5 0 1.5 2 1.6 23.3 1 12.7-.4 41.8-.7 64.5-.7 40.5 0 41.2 0 41.2-2 0-1.1.5-2 1-2 .6 0 1 .8 1 1.8zM9 767.5c0 .8-.9 1.5-2 1.5s-2-.7-2-1.5.9-1.5 2-1.5 2 .7 2 1.5zm307.3 7.6c1.2.7 3 2.1 4.1 3.1 1.4 1.5 2.6 1.8 5 1.3 6.4-1.3 7.8-1.1 9.9 1.7 1.8 2.4 1.8 3 .7 5.8-.7 1.7-1 3.3-.7 3.6s3 .8 6.1 1.1c6.3.7 7.6 2.3 1.8 2.3-5.4 0-35.5-2.9-36.1-3.5-.2-.3.8-.5 2.2-.5h2.7v-8c0-8.3.4-8.9 4.3-6.9zm604.9.9h8.6l.7 3.9.6 3.8 10.6.7c24.1 1.7 14.4 4.2-12.3 3.3-11.9-.4-18.3-1-20.8-2.1-3.4-1.4-3.6-1.7-3.6-6.2v-4.7l3.8.7c2 .3 7.6.6 12.4.6zm-201.9 5.6c5.8 1 4.4 2.4-2.5 2.4-4.9 0-5.9.3-5 1.2.8.8 8.3 1.6 22.7 2.2l21.5.9v13.5l5.8.5c11 1 24.2 3 24.2 3.7 0 1.6-34.8 2-51.5.5-9.3-.8-19.8-1.5-23.2-1.5H705l-3-6.6c-1.6-3.7-3-7.2-3-7.8 0-.5 1.9-3 4.2-5.3 4.5-4.6 7-5.2 16.1-3.7zm57.5 1.6c.3 1.5-.4 1.8-4.2 1.8-4 0-4.6-.3-4.6-2.1s.5-2 4.2-1.7c3.1.2 4.4.8 4.6 2zm-621 2.8c2.3 1.7 4.2 3.5 4.2 4 0 .6-3 1-7 1-3.8 0-7-.2-7-.5 0-1.6 3.6-7.5 4.5-7.5.7 0 3.1 1.4 5.3 3zm468.3 4.4c1.6 1.9 4.3 3.8 5.9 4.1 2.9.6 3 .8 3 6.9v6.3l11.7.7c6.4.3 11.9.9 12.2 1.2 1.7 1.6-4.2 2.4-18.9 2.4-18.2 0-27-.8-27-2.3 0-.5-1.6-3-3.6-5.4-2-2.5-3.3-5-3-5.8.3-.9 2.6-2.7 5.2-4.3 2.6-1.5 6.1-3.7 7.8-4.9s3.2-2.2 3.4-2.2c.1-.1 1.6 1.4 3.3 3.3zM127 795.8v6.8l9.5 1.3c15.5 2.2 11.7 3.5-7.7 2.7-14.4-.5-65-2.4-71-2.5-1.5-.1-1.8-1.1-1.8-6.9 0-3.8.3-7.2.7-7.5.3-.4 16.3-.7 35.5-.7H127v6.8zm280-.4c0 6.1-.9 5.5 11.8 7.7 8.7 1.5 9.8 3.5 1.5 2.5-3.2-.3-15.6-.9-27.5-1.3l-21.8-.6v-5.4c0-5.1.1-5.3 2.8-5.4 1.5 0 8.8-.7 16.2-1.4s14.3-1.3 15.3-1.4c1.4-.1 1.7.8 1.7 5.3zm420.9-2 2.2 2.3-5.3.6c-2.8.4-5.4.4-5.7.2-.7-.7 4-5.5 5.4-5.5.6 0 2.1 1.1 3.4 2.4zm-791.1.8c.3 1.3-.3 1.8-2.2 1.8-2 0-2.6-.5-2.6-2.1 0-1.5.5-2 2.2-1.7 1.3.2 2.4 1.1 2.6 2zM695 803c0 1.7-.7 2-5 2s-5-.3-5-2 .7-2 5-2 5 .3 5 2zm156.8.3c.3 1.2-.3 1.7-2.2 1.7-2.5 0-3.5-1.8-1.9-3.4 1.2-1.2 3.8-.2 4.1 1.7zM529 804.7c0 4.4-1.3 5.6-4.9 4.8-1.7-.4-3.1-.9-3.1-1.3 0-1.2 5.4-6.2 6.7-6.2.8 0 1.3 1.1 1.3 2.7z"/>
    <path d="M541.5 388.5c-.5.2-2.9.9-5.2 1.5-2.6.6-4.3 1.7-4.3 2.5s.1 1.5.3 1.5c.6 0 13.2-5.2 13.6-5.6.5-.5-3-.4-4.4.1zm2.5 40c-8.3 4.9-14.7 10.1-13.7 11.1.3.3 3.1-1.5 6.2-4s6.7-4.6 8-4.6 2.5-.7 2.9-1.5c.3-.8 1.7-2 3.1-2.7 2.3-1.1 3.4-2.8 1.7-2.8-.4 0-4.1 2-8.2 4.5zm-51.9 7.8c-1.3 5.2-2.6 16.4-1.8 15.7.5-.5 4.7-17.4 4.7-19.1 0-.5-.4-.9-.9-.9s-1.4 1.9-2 4.3zM344 453c0 .9 3.2 3 4.6 3 .4 0-.1-.9-1.1-2-1.9-2.1-3.5-2.6-3.5-1zm9 18.6c0 1.3.7 1.5 3.1 1 1.7-.3 6-.6 9.5-.6 3.6 0 6.4-.4 6.4-1s-3.8-1-9.5-1c-8.1 0-9.5.2-9.5 1.6zm-68.6 36.9c-2 2.5-3.5 4.7-3.3 5 .8.7 11.9-7 11.9-8.3 0-.6-1.1-1.2-2.4-1.2-1.7 0-3.6 1.4-6.2 4.5zm369.7 112.2c.2 1.4 8.9 8.6 8.9 7.3 0-1.5-6.4-8-7.9-8-.6 0-1.1.3-1 .7zm38.9 9.8c-1.9 1.9-2.9 3.5-2.4 3.5.6 0 2.5-1.6 4.4-3.5s2.9-3.5 2.4-3.5c-.6 0-2.5 1.6-4.4 3.5zm-173.2 35.3c-10.6 9.7-11.9 11.2-9.5 11.2 1.4 0 21.4-19.7 20.6-20.4-.2-.2-5.2 3.9-11.1 9.2zm123.9 13c-2.6 2-4.3 3.8-3.7 4 1.1.4 9.9-5.8 10-7.1 0-1.3-1.5-.6-6.3 3.1zm-383.4 44.9c-.7.2-1.3 1.2-1.3 2.2 0 1.4 1 1.7 5.5 1.7 6 0 6.5-.4 3.7-2.9-1.8-1.6-5.4-2.1-7.9-1zm416.8 8.3c-2.4.5-5.5 1.7-6.9 2.6-3.9 2.5-1.1 3.4 11.6 3.4H693v-3c0-2.4-.4-3-2.2-3-1.3 0-3.9-.2-5.8-.4-1.9-.3-5.5-.1-7.9.4zM279 754c0 .5-1.8 2.1-3.9 3.5-2.9 1.9-3.7 3.1-3.4 4.6.7 2.7 2.4 2.4 8.3-1.6 6-4 6.3-4.1 5.6-1.8-.2 1-.7 3.2-1.1 5l-.6 3.1 8.3-.5c4.6-.3 8.5-1 8.6-1.4.6-1.5 2.2-1 2.2.7 0 1.2.6 1.5 2.3 1 1.2-.4 7.5-.9 14-1.3 6.4-.3 11.7-.9 11.7-1.2s-6.2-3-13.8-5.9l-13.7-5.2h-12.2c-7.4 0-12.3.4-12.3 1z"/>
  </g>
  <g fill="#db7d59">
    <path d="M583.2 428.6c-7.7 2.7-24.8 13.6-22.2 14.2.8.1 6.7-2.7 13-6.3 7.6-4.3 12.6-6.5 14.8-6.5s3.2-.5 3.2-1.5c0-1.9-3.2-1.9-8.8.1zm98.3 34.3c-.9 2.2-3.6 5.8-5.8 8-4.3 4.4-4.3 6.5.1 4.1 3.4-2 8-8.6 8.8-12.8.9-4.5-.9-4.1-3.1.7zm-180.8 54.9c-9.9 8.1-19.1 15.3-52.2 40.4-22 16.7-49.1 34.3-57.2 37.1-6.3 2.2-7.5-.2 11.1 22.2 9.4 11.3 14.3 16.5 15.7 16.5 2.7 0 7.5-2.6 11.3-6.1 1.7-1.6 12.3-9.4 23.6-17.2s26.1-18.6 33-24c6.9-5.3 16.7-13 21.9-16.9 18-13.9 35.1-28.2 35.1-29.2 0-1.4-30.5-30.6-31.9-30.6-.5 0-5.2 3.5-10.4 7.8zM455 579c0 1.3-.7 2-2 2s-2-.7-2-2 .7-2 2-2 2 .7 2 2zm297.7-31.3c-.4.3-.7 1.7-.7 3 0 3.3 2.4 2.4 2.8-1 .3-2.6-.7-3.5-2.1-2zM418.5 555c-1 1.1-1.6 2.3-1.3 2.6.7.6 4.8-2.7 4.8-3.8 0-1.4-1.7-.8-3.5 1.2zm134.3 4.5c-29.6 25.7-45.3 40.5-56.1 52.9-13.5 15.6-22.7 28.4-22.7 31.5 0 1.4 3.8 5 12.8 11.9 7 5.5 14 11.4 15.6 13.1 1.7 1.7 3.5 3.1 4.1 3.1.7 0 5.8-4.3 11.4-9.6 5.6-5.2 10.8-9.4 11.4-9.1 3.3 1 1.5 4.5-6.8 12.7-4.7 4.6-8.5 9.3-8.5 10.2 0 1 1.7 3.3 3.8 5.2 5.2 4.7 25.4 20.6 26.1 20.6.4 0 3.1-3.2 6-7.1l5.3-7.2-.4-17.6-.5-17.6 3.5-8.3 3.5-8.4-.6-18.6c-.4-10.3-1-22.4-1.3-27-1-12.3 1.1-10.2 2.4 2.5.7 6 1.4 16.2 1.8 22.8.8 16.9 1.3 18.5 4.6 15.2.7-.7 4.5-3.4 8.3-5.9 8.8-5.8 29.5-23.4 29.5-25.1 0-1.4-44.6-44-46.6-44.5-.6-.2-3.6 1.8-6.6 4.3zm-155.7 16.1c-5.2 5.6-6.3 8.4-3.6 8.4.8 0 1.5-.4 1.5-.8s2.3-3.3 5-6.4c2.8-3.1 5-5.9 5-6.2 0-2-3.5.2-7.9 5zM812 609.8c-23 11.6-71 43-71 46.6 0 1.1 6.2 7.4 11.7 12 2.1 1.7 2.3 1.7 10-3.7 29-20.2 47.7-31.7 67.1-41.2 7.8-3.8 14.2-7.2 14.2-7.5s-1.2-1.2-2.8-2.2c-1.5-.9-5.6-3.4-9.2-5.7-3.6-2.2-6.9-4-7.5-4-.5 0-6.2 2.6-12.5 5.7zm-39 38.4c0 1.9-3.1 4.8-5.2 4.8-2.7 0-2.2-2.7 1-4.4 3.3-1.9 4.2-1.9 4.2-.4zm-149.6-33.5c.3 2.1.6 5.6.6 7.8v4l12.3 2.9c6.7 1.6 12.7 3.1 13.3 3.3 1.3.5.8-9.9-.8-13.9-.5-1.4-2.2-3.1-3.6-3.7-3.6-1.5-16-4.1-19.6-4.1-2.8 0-2.8.1-2.2 3.7z"/>
    <path d="M620.4 636.5c-2 3-4.2 5.5-4.8 5.5s-4.7-.7-9.1-1.5c-7.2-1.4-31.8-4.5-35.5-4.5-.8 0-2.1.4-2.8.9-2.4 1.5-8.2 33.1-8.2 44.4 0 7.4-.6 9.1-5.7 15.3-4 5-4.1 5.9-.5 7.8 1.5.8 4.9 3.5 7.6 6 4.1 3.8 5.7 4.6 8.8 4.6 2.1 0 3.8.4 3.8.9s.8 1.2 1.8 1.5c.9.3 3.7 2.6 6.2 5.1 2.5 2.4 4.9 4.4 5.3 4.5 1.4 0 37.9-26.2 46.7-33.6 9-7.6 10.6-11.1 4.5-10.1-1.9.3-3.5.2-3.5-.2s2.7-3 6-5.7c3.2-2.7 6.1-5.6 6.4-6.4.8-2.2 2.8-34.1 2.2-34.7-.4-.5-23.2-5.3-24.8-5.3-.4 0-2.4 2.5-4.4 5.5zm119.3 36.7c.5 10.7.3 13.4-1.6 20.1-5.2 18.9-16.4 32.7-33.2 40.9-3.8 1.8-6.9 3.9-6.9 4.6s.7 2.9 1.5 4.9c1.9 4.5 1.9 6.3-.1 6.3-.9 0-2.5-2.3-4.1-6l-2.6-6h-20l.6 5.2c1 7.8 1.6 8.1 18.7 7.5 16.6-.5 17.9-.9 30.2-11.2 17-14 28.5-36.3 31.3-61l.6-6.1-6.7-5.7c-3.8-3.1-7.2-5.7-7.6-5.7s-.4 5.5-.1 12.2zm-495.4 3.2c-13.1 7-26.7 18.9-34.1 29.8-4.2 6.1-10 18.3-10.8 22.5-.3 1.8-1.1 3.3-1.6 3.3-.6 0-3.2-1.1-6-2.5-2.7-1.4-5.4-2.5-6-2.5s-3.8 2.4-7.2 5.3-8.2 6.8-10.8 8.7-4.7 3.7-4.7 4 7.5 4 16.8 8.3c25.6 11.8 37.6 15 56.6 15 10.2 0 13.3-.4 21-2.7 9.1-2.8 15.1-5.7 19.5-9.6 1.7-1.5 2.1-2.3 1.2-2.7-.7-.2-1.8-1-2.5-1.6-.6-.7-3.4-1.8-6.2-2.5-2.7-.7-6.8-2.2-9.1-3.3-3.8-1.8-4.4-1.8-7.7-.4-4.2 1.7-11 2-13.8.5-3.2-1.8-2.3-5.5 2.4-9.5 6.1-5.3 19.7-13.5 22.4-13.5 2.8 0 2.8-.5-.2-10.9-2.8-9.6-3.1-15.7-1-18.5 1.9-2.5 1.9-5.2.1-5.9-.7-.3-2.6-3.7-4.1-7.6-2.5-6.3-3.1-7.1-5.4-7.1-1.4 0-5.4 1.5-8.8 3.4zm86.9 11.2c-2.4 1.8-5.1 3.8-6 4.3s-1.4 1.3-1 1.7c1.3 1.2 8.8-2.8 10.9-5.7 3.6-5 2.2-5.2-3.9-.3zm140.9 2.7c-2.5 3.1-6 12.8-7 19.8-1.6 10.1-.1 20.2 4.3 29.6 3.2 6.7 3.7 7.3 7.6 8.3 6.6 1.8 7.1 1.4 9.5-7.8 1.2-4.5 2.5-8.5 2.8-8.8.3-.4-1.2-3-3.3-5.8-7.2-9.5-11-20.5-11-31.7 0-5-.8-6-2.9-3.6zM610 716.1c-9.6 7.1-17.9 13-18.5 13.2-1.3.5.7 4.2 5.1 9.1 3.3 3.9 3.5 3.9 7.3 2.8 2.1-.7 5.4-1.2 7.4-1.2 3.1 0 3.6-.3 3.9-2.7.2-2 1.5-3.3 5.8-5.6 3-1.6 8.5-5.2 12.3-7.9 6.5-4.8 6.7-5.1 6.7-9.3 0-2.3-.7-5.9-1.5-7.9-1.5-3.4-1.7-3.6-6.3-3.5-4.4.1-5.8.9-22.2 13zm-228.9-1.3c-5 4.8-9.1 9.3-9.1 10 0 1.4 10.7 1.7 12.7.4 1-.6 7.3-16.7 7.3-18.6 0-1.7-2.6.2-10.9 8.2z"/>
    <path d="M416.5 716.6c-18.6 9.2-26.1 11.4-39.1 11.4-8.2 0-8.8.6-4.9 5.2 4.4 5.2 3.6 6.2-5 5.4-9-.8-9.8.5-1.7 2.8 11.4 3.1 32.3 1.5 46.6-3.8 10.4-3.8 31.5-14 31.6-15.3 0-1.4-8.9-14.3-9.8-14.2-.4 0-8.3 3.8-17.7 8.5zm439.8 1.8c-4.2 2.1-5.7 4.6-2.8 4.6 2 0 7.8-2.9 8.7-4.4 2.1-3.2.1-3.2-5.9-.2zm-554.5 5c-3 2.3-2 3.3 4.7 5 11.2 2.8 14.4 1.5 5.6-2.3-2.8-1.1-5.3-2.6-5.6-3.1-.8-1.4-2.6-1.2-4.7.4zm232 4.4c-1 .2-2.4 2.3-3.4 5-.9 2.6-2.7 7.1-4 10-2.8 6.3-2.3 6.7 6.2 5.5l5.9-.8-.2-4c-.1-2.2-.7-6.7-1.5-10-1-4.7-1.7-6-3-5.7zm-457.4 2.7c-.9 3.4 1.6 6.1 8.6 9.3 4.5 2.1 7.5 2.6 16.3 3 9.9.4 10.7.3 10.7-1.4 0-1.1.3-4.2.6-7l.7-5.2-11.9.2c-6.6 0-14.7-.3-18.1-.7-6.1-.8-6.2-.8-6.9 1.8zm215 1.7c.4 1.8 1.1 5.4 1.5 7.9s1.7 5.7 2.9 6.9c1.2 1.3 2.2 3.2 2.2 4.2 0 1.3.8 1.8 2.9 1.8 3.1 0 29.4 9.8 29.9 11.2.2.4 1.5.8 3 .8 1.4 0 6.3.7 11 1.6 4.6.8 8.6 1.4 8.8 1.1.5-.5-6.1-23.6-7.9-27.4-.8-1.9-1.8-2.3-5.6-2.3-11.9 0-36.6-4.2-44.8-7.6-4.5-1.9-4.6-1.8-3.9 1.8zM47.5 749.1c-2.8 5.3-1.8 6.8 8 12 9.5 5.1 11.5 5.7 11.5 3.6 0-.7 1.6-3.2 3.6-5.5 1.9-2.3 3.3-4.6 3-5.1s-2.5-1.2-4.9-1.5c-2.4-.4-7.2-2-10.6-3.6-3.5-1.7-6.9-3-7.7-3-.7 0-2.1 1.4-2.9 3.1zm83.5 10.4c0 3 .3 3.5 2.4 3.5 1.7 0 2.6-.7 3-2.5.8-3.3.1-4.5-3-4.5-2.1 0-2.4.5-2.4 3.5zm453-2.6c0 1.5 13.2 5 22.5 6 5 .6 14.7 1.3 21.8 1.7 7 .4 12.7 1.1 12.7 1.6s1.2.8 2.8.6c1.9-.2 2.8-.9 3-2.4.3-2-.3-2.2-7-2.9-4-.4-9.3-1.1-11.8-1.7-11.8-2.6-44-4.7-44-2.9zm-107 5.2c-23.6 6.9-30 8.9-30 9.8 0 1.2 19 7.1 23 7.1 5.4 0 44-13.3 44-15.1 0-.5-1.2-1.1-2.7-1.5-1.6-.3-6.1-1.5-10-2.5-4-1.1-8.1-1.8-9-1.8-1 .1-7.9 1.9-15.3 4zm94.7-1.4c-1.5 5.4-1.7 11.1-.4 12.1 2.1 1.8 19.6 7.2 23.2 7.2h3.3l.4-7.4.3-7.5-3.5-.6c-1.9-.3-7-1.7-11.3-3.1-9.3-2.9-11.4-3-12-.7zM832 764c0 1.1.5 2 1 2 .6 0 1-.9 1-2s-.4-2-1-2c-.5 0-1 .9-1 2zm-520 18v8h3.5c3.1 0 3.5-.3 3.5-2.8 0-1.5.3-4.3.6-6.4.6-3.3.4-3.8-2.4-5.2-1.7-.9-3.6-1.6-4.2-1.6s-1 3.1-1 8zm123-.1c0 6.7.3 8.2 1.8 9 3 1.6 26.3 9.1 28.2 9.1 1.6 0 1.9-1.1 2.2-8.5.3-7.3.1-8.5-1.3-8.5-.9 0-7-1.7-13.5-3.9-6.5-2.1-13.1-4.2-14.6-4.5l-2.8-.6v7.9zm470-3c0 4.2 1.1 5.1 6.1 5.1 2.7 0 2.9-.3 2.9-3.9 0-3.5-.3-3.9-3.1-4.5-5.5-1.1-5.9-.9-5.9 3.3zm-196 3.6c0 1.2 1.4 1.5 7 1.5 7.5 0 9.4-1.3 3.3-2.4-6.6-1-10.3-.7-10.3.9zm59 .4c0 1.8.6 2.1 4.6 2.1 3.8 0 4.5-.3 4.2-1.8-.2-1.2-1.5-1.8-4.6-2-3.7-.3-4.2-.1-4.2 1.7zm-54.4 8c-.3 2.4-.6 5.7-.6 7.2 0 2.9 0 2.9 6.4 2.9 3.4 0 9.1-.3 12.5-.6l6.1-.7v-5.8c0-6.9.4-6.7-14.1-7.1l-9.7-.3-.6 4.4zm-656.9-1.2c-.4.3-.7 3-.7 6v5.3h32v-12H72.7c-8.5 0-15.7.3-16 .7zm555.3 3.1c-8.9 5.2-9.1 5.9-4.5 11.8 2.2 2.7 4 5 4 5.1.1.1 3.1-.7 6.8-1.8 6.2-1.8 6.7-2.2 6.7-4.7 0-1.6-.4-3.2-.9-3.8-.5-.5-2-3-3.3-5.6l-2.4-4.7-6.4 3.7zm-222-1.3c-7.4.7-14.7 1.4-16.2 1.4-2.3.1-2.8.6-2.8 2.6v2.5h12.8c7 0 15.1-.3 18-.6 5.1-.7 5.2-.7 5.2-4 0-2.6-.4-3.4-1.7-3.3-1 .1-7.9.7-15.3 1.4zm-358 2.4c0 1.6.6 2.1 2.6 2.1 3.3 0 3-3.3-.4-3.8-1.7-.3-2.2.2-2.2 1.7z"/>
  </g>
  <g fill="#674544">
    <path d="M598.5 334.6c-1.6 2.4-1.6 2.7.1 4.5.9 1 2.6 2.1 3.7 2.5 3.9 1.2 5.2-5.4 1.5-8-3-2.1-3.3-2-5.3 1zm44.7 33.7c-1.2 1.3-1.9 2.7-1.5 3 .7.8 5.3-3.1 5.3-4.5 0-1.5-1.6-.8-3.8 1.5zm-40.4 57.5c-1 2-6.7 8.9-12.7 15.3l-11 11.7 3.1.6c1.7.3 4.8.6 6.9.6h3.9v6.7c0 9.8.5 11 4.8 11.8 2.1.4 4.2 1 4.7 1.5 1.3 1.1 16.5 1.5 18.8.5 2.7-1.2 11.7-10.8 11.7-12.6 0-.9-1.5-3.6-3.3-6s-7.9-11-13.6-19.2c-5.6-8.1-10.6-14.7-10.9-14.7-.4 0-1.5 1.7-2.4 3.8zm89 23.9-3.8.4v4.8c0 12.5-10.1 26.1-19.5 26.1-1.4 0-2.5.2-2.5.6 0 1.8 8.4 12.4 9.8 12.4 3 0 11.6-5.6 16.1-10.5 6.5-7.1 10.1-15.5 10.8-25.9l.6-8.6-3.9.2c-2.1.1-5.6.3-7.6.5zm-67.2 39.1-7.8.3-19.5 17.2c-19.8 17.5-28.1 24.5-43.3 36.4-4.7 3.7-11.4 9.2-15 12.3-6.4 5.5-19.6 16.2-31.5 25.4-7 5.5-31.9 24.5-34.6 26.5-2.4 1.7-2.7 9.1-.4 9.1.8 0 5.4-2.9 10.1-6.5 8.5-6.4 8.7-6.5 15.1-6.5h6.4l20.3-18.3c26.9-24.2 33.6-29.9 35.1-29.5 1.9.5 46.5 43.1 46.5 44.5 0 1.7-21 19.5-29.7 25.1-7 4.5-8.7 6.2-6 6.2 4.3-.1 20.2-11.5 34.3-24.7l5.2-4.8L612 590c1.2-6.3 2.6-13.2 3.1-15.2 1-4.1-.8-3.2 21.4-9.2 16.4-4.5 16.1-4.3 19.4-9.5 1.7-2.7 4.1-5.7 5.2-6.7 4.3-3.8 4.2-5.9-.3-13.7-7-12.2-26.1-44.1-27.2-45.7-.9-1.2-2.9-1.4-9-1.2zm130.2 61.7c-.6 2.9 1 4.5 2.3 2.4s1.1-4.9-.5-4.9c-.7 0-1.6 1.1-1.8 2.5z"/>
    <path d="M559.3 590.2c.4 4.6.7 10.9.7 14 0 4.5.3 5.8 1.5 5.8 1.9 0 1.9-2.8.3-17.3-1.3-12.7-3.4-14.8-2.5-2.5zm181.2.4c-2 2.5-3.5 4.7-3.2 5 .9.9 12.7-3.8 12.7-5-.1-1.8-2.6-4.6-4.2-4.6-.9 0-3.2 2-5.3 4.6zM632 601.5c-9.1 9.1-9.3 9.5-6.5 9.5 3.7 0 16 2.6 19.7 4.1 1.4.6 3.2 2.4 3.8 4 .8 1.7 2 2.9 3.1 2.9 1.5 0 1.9-.8 1.9-3.8 0-2.1 1.1-5.6 2.5-8.1 3-5.1 3-5.1.8-5.1-1 0-4.4-2.3-7.6-5-3.2-2.8-6.2-5-6.7-5s-1-.7-1.2-1.5c-.2-1-3.5 1.7-9.8 8zm213.5 18.2c-3.8 1-24 10.5-33 15.6-12.1 6.9-31.9 19.5-43.5 27.8-5.2 3.7-10.7 7.3-12.2 7.9-2.3 1.1-2.7 2-3.3 7.4-3.1 26.6-14.4 47.8-34.5 63.9l-3.5 2.9 6.5-.5c7.6-.6 26.9-6.7 48.5-15.5 18.9-7.7 31-12.1 35.4-13l3.5-.8 2.4-11.4c6.2-30.2 17.8-55.9 34.5-76.5 3.1-3.9 5.7-7.3 5.7-7.8 0-.8-3.3-.8-6.5 0zM344 675.2c0 12-13.7 23.7-27.7 23.8-3.5 0-6.3.4-6.3.9 0 1.8 11.4 18.1 12.6 18.1.7 0 4.8-1.1 9.2-2.5 13.9-4.4 22.6-11.5 26.2-21.6 1.3-3.5 1.2-3.6-5.4-12.3-3.6-4.9-6.6-9.2-6.6-9.7s-.4-.9-1-.9c-.5 0-1 1.9-1 4.2zm93.8 4.6c-4.7 1.3-5.8 2-5.8 3.7s1.3 2.5 6.8 4.3c3.8 1.2 7.3 2.2 7.9 2.2s1.6-1.4 2.3-3.1c1.1-2.7 1.1-3.3-.7-5.7-2.4-3.3-3.2-3.4-10.5-1.4zM725 693.2c-1.4.5-5.4.7-9.2.4-3.9-.4-6.8-.2-6.8.3 0 1.8 7.1 17.7 9 20.1 2.7 3.6 4.6 2 9.8-7.9 4.8-9.4 5.5-14.1 2-14-1.3 0-3.4.5-4.8 1.1zm-578 4.2c0 .7-1.1 3.4-2.5 6s-2.5 5-2.5 5.5c0 .8 12.7 5.1 15.1 5.1 1 0 1.9-2 2.8-6.1.7-3.4 1-6.4.7-6.6-.7-.7-11.8-5.3-12.8-5.3-.5 0-.8.6-.8 1.4zm460 16.1c-10.2 7.4-19.1 13.4-19.7 13.5-.7 0-1.3.4-1.3.8s-2.5 2.1-5.5 3.7c-3 1.7-5.5 3.7-5.5 4.5 0 .9 2.2 3.7 4.8 6.3 3.9 3.8 5.4 4.7 8.4 4.7 4.5 0 10.8-2.6 10.8-4.4 0-.8-1.8-3.6-4-6.2-4.6-5.6-4.8-6.4-1.7-8.3 1.2-.7 9.3-6.5 18-12.8 11-8 15.7-12 15.7-13.4 0-1-.3-1.9-.7-1.8-.5 0-9.1 6.1-19.3 13.4zm-89.4 6.1c-.3.9-.6 4.4-.6 7.9 0 5.9.2 6.5 2.9 8.4 4 2.9 4.8 2.7 6.1-1.7 2-6.2 4.9-10 8.6-11.4 4.7-1.7 4.3-3.1-.9-2.3-2.8.4-5.8.1-8.7-.9-5.7-2-6.6-2-7.4 0zm-370.1 36.9-10.9 9.5-10.5.2-10.6.2 10 .3c5.4.2 10.2.7 10.5 1.2.3.4 4.3 1.3 9 2 16.2 2.4 32.1 9.2 51.3 22l10.5 7.1h16c8.8 0 16.2-.4 16.4-.8.2-.5 5.5-3.4 11.8-6.5 6.3-3 16.1-8.7 21.7-12.6l10.2-7.1 1.1-5.8c.6-3.1 1.4-6.5 1.6-7.5.7-2.3-.1-2.2-3.9.8-9.4 7.1-28.9 12.5-45.4 12.5-18.3 0-29.8-3.3-60.5-17.6-8.8-4.1-16.3-7.4-16.7-7.4s-5.6 4.3-11.6 9.5zm-76.7 2.3c-5.1 6.4-4.9 7.2 1.5 7.2h5.3l1.7-5.3c2.2-6.9 2.2-6.7-1.5-6.7-2.7.1-4 1-7 4.8zM642 755c0 .5.7 1 1.5 1s1.5-.5 1.5-1c0-.6-.7-1-1.5-1s-1.5.4-1.5 1zm-44 18.5v7.5h49v-14.5l-24.5-.3-24.5-.3v7.6zm73.3-6.8c1.5.2 3.9.2 5.5 0 1.5-.2.2-.4-2.8-.4s-4.3.2-2.7.4zM914 780v4h13v-8h-13v4zm-8.5 4c.3.5.8 1 1.1 1 .2 0 .4-.5.4-1 0-.6-.5-1-1.1-1-.5 0-.7.4-.4 1zM88 795.5v6.5h39v-13H88v6.5zm222.5-4.4c5.5 1.1 7.5 1.1 7.5-.1 0-.6-2.5-.9-5.7-.9-5.7.1-5.8.1-1.8 1zM371 800c0 1.9.7 2 9 2s9-.1 9-2-.7-2-9-2-9 .1-9 2z"/>
  </g>
  <path d="M366.2 315.7c.4 11.7 1 16.3 2.8 22 2.2 6.8 2.5 7.3 5.2 7.3 1.5 0 2.8-.4 2.8-.8s-.9-4.8-2-9.8c-1.1-4.9-2.3-14.4-2.7-21.2l-.6-12.2h-5.9l.4 14.7zm69.3 65.5c1.2 7.2 2.4 7.9 2.5 1.5 0-4.5-.3-5.7-1.6-5.7s-1.5.7-.9 4.2zm88 14c-8.7 4.6-21.3 17.7-25.9 26.9-2 3.9-3.6 7.8-3.6 8.5 0 3 1.7 1.1 5.2-5.9 5.5-11.1 14.8-20.4 28.1-28.1 4.5-2.7 6-4.6 3.5-4.6-.7 0-4 1.5-7.3 3.2zm72.5 22c-2.5 1.9-6.2 4.7-8.2 6.2-4.9 3.5-4.8 4.8.2 4 7.3-1.2 4.7 3.7-9.1 17.1-8.8 8.5-46.6 40.6-71.4 60.7-3.9 3.1-11.3 9.1-16.5 13.4-8.5 6.9-19.1 15.1-52 39.9-13.3 10-33.3 23.3-39.4 26.1-5.4 2.5-9.6 3.1-9.6 1.3 0-.6-1.6-.9-3.7-.7l-3.8.3-.3 5.7c-.3 5.6-.2 5.8 2.3 5.8 4.6 0 13.9-4.5 29.1-14.2 23.3-14.8 78.9-57.4 116-88.8 4.9-4.2 17.2-14.5 27.4-23 31.4-26.2 52.6-49 45.6-49-1 0-1.6-1.3-1.8-4.1l-.3-4.1-4.5 3.4zm-256.7 55.7c-14.2 3.5-32.9 14-44.6 25.1-5.4 5.1-5.9 5.9-3.9 6 1.4 0 4.9-2.2 8.8-5.5 6.9-5.8 17.1-12.2 26-16.1 7-3.1 23.1-8.4 25.5-8.4 1.1 0 1.9-.7 1.9-1.5 0-2-4.4-1.9-13.7.4zm21 42.8c-1.5.3-2.3 1.2-2.3 2.5 0 1.8.4 2 3.3 1.4 1.7-.4 5.2-.9 7.7-1.2 6.9-.9 8-1.6 3.5-2.5-4.3-.8-8.6-.9-12.2-.2zm293.5 48.4c-8.5 8.5-9.9 10.5-10.8 14.6-.6 2.7-1.3 5.6-1.6 6.7-.4 1-5.6 7.1-11.6 13.5l-11 11.6.7 6c.9 8.6 1.5 10.5 3.3 10.5 1.3 0 1.4-1.2.9-8.3l-.7-8.3 9.4-9.3c9.3-9.3 9.3-9.3 11.7-17.9 2.4-8.5 2.6-8.9 11.4-18 5-5.1 9.2-9.7 9.3-10.3.9-2.3-2 0-11 9.2zm-37.6 70-4.2 4-14.1-3c-7.7-1.7-16.2-3.1-18.8-3.1-4.3 0-14.1 3.2-14.1 4.6 0 .3-1.3 7.3-3 15.6-2.2 10.8-3 17.9-3 25.2v10.2l-4.4 6c-5.6 7.8-6.9 10.4-9.5 19l-2.1 7.1-5.9 2.2c-6.8 2.5-7.7 3.6-12.5 16-3.9 9.8-4.3 11.5-2.3 10.9 1.4-.5 5.5-8.3 7.9-15.3 1.8-5.2 2.4-5.7 11.8-9 4.5-1.6 21.1-5.7 28.3-6.9 2-.4 3.7-1.1 3.7-1.6 0-.6-1.7-1-3.7-1-3.8 0-18.9 2.3-23 3.6-1.3.3-2.3.4-2.3.1s1.1-4.2 2.5-8.6c1.6-5.1 3.9-9.7 6.4-12.8 5.6-7.1 6.1-8.5 6.1-16 0-11.3 5.8-42.9 8.2-44.4.7-.5 2-.9 2.8-.9 3.7 0 28.3 3.1 35.5 4.5 4.4.8 8.5 1.5 9.1 1.5 1 0 8.4-10.1 8.4-11.5 0-1.8-4.2.1-7.8 3.6zM732 694.7c0 3-4.7 13.6-8.1 18.4-1.1 1.6-2.9 2.9-4 2.9-1.2 0-1.9.7-1.9 2 0 1-1.2 3.1-2.7 4.5-3.9 3.6-16 9.5-19.4 9.5-2.6 0-2.9.3-2.9 3.5 0 4.5 4.4 14.5 6.4 14.5s2-1.8.1-6.3c-.8-2-1.5-4.2-1.5-4.9s3.1-2.8 6.9-4.6c14.1-6.9 25.7-19.5 31-33.8 2.8-7.4 2.7-8.4-.9-8.4-2.6 0-3 .4-3 2.7zm-255.7 10.5c1 7.3 12.1 26.7 14.2 24.7.3-.4-1.1-3.3-3.1-6.5-3.7-5.8-8.3-17.2-8.4-20.7 0-.9-.7-1.7-1.6-1.7-1.4 0-1.6.8-1.1 4.2zM173 724.9c0 1-20.5 18.1-23.8 19.8-1.3.7-3.3 1.3-4.3 1.3-1.2 0-1.9.7-1.9 1.9 0 1.3-1.2 2.4-3.6 3.3-3.3 1.2-3.5 1.5-3.1 4.5.8 4.8-.2 7.3-2.9 7.3-1.5 0-2.4.6-2.4 1.5 0 1 1 1.5 2.8 1.5 2.1 0 5.5-2.3 13.7-9.5 6-5.2 11.2-9.5 11.6-9.5s7.9 3.3 16.7 7.4c30.7 14.3 42.2 17.6 60.5 17.6 16.3 0 35.7-5 35.7-9.1 0-2.4.1-2.4-8 .5-3.7 1.4-10.3 3.2-14.6 4.1-12.1 2.6-28.9 1-46.2-4.4-6.5-2-40.1-17.2-40.1-18.1 0-.3 2.1-2.1 4.7-4 9.2-6.8 16.2-13.3 16.2-15.1 0-1.6-.8-1.9-5.5-1.9-3 0-5.5.4-5.5.9zm76.5 5.5c-8.1 5.5-13.3 10.2-12.3 11.1.3.3 4.7-2.2 9.8-5.5 5-3.4 9.8-6.4 10.6-6.7 1.4-.5 2-4.3.7-4.3-.5 0-4.4 2.5-8.8 5.4zm46.5-1.6c0 2 2.8 3.2 13.5 5.7 5 1.1 25.7 3.5 30.7 3.5 4.5 0 4.8-.2 4.8-2.5 0-3-1.3-3.6-12-5.9-9-1.9-15.7-2.1-16.2-.4-.4 1-1.7 1-6.4 0-3.2-.8-7.8-1.6-10.1-1.9-3.9-.5-4.3-.3-4.3 1.5zm143.5 40.6c-8.2 1.6-8.6 3.8-.9 5.5 3.1.7 10.1 2.8 15.6 4.7 11.5 4 13.8 4.1 21.2 1.3 5.3-2.1 8.1-4.9 3.4-3.4-6.9 2.1-11.7 1.7-21.7-1.5s-11.6-4.2-8.6-5.4c2.3-.8 1.8-2.6-.7-2.5-1.3.1-5 .7-8.3 1.3z" fill="#ffffed"/>
  <g fill="#30745c">
    <path d="M485.3 273.2c-1.6.8-2.3 2-2.3 4.1 0 1.8-3.1 9.4-7.4 18.1-11.7 23.8-16.3 39-18.7 62.3-1.3 12.1-1.4 12.3-3.8 12.3-1.4 0-4.9-1.9-8.2-4.5-3.2-2.5-6-4.5-6.3-4.5s-.6 6.2-.6 13.7c-.1 14.5-.8 15.5-3.1 4-.8-4.1-1.8-6.7-2.6-6.7-1.5 0-2 1.9-2.8 11.5-1 11.5-1 11.5-6.6 11.5H418v9h-12.8l-.5 3.7c-.2 2.1 0 4.2.4 4.7 1.7 1.9 1 3.8-1.1 3.1-1.6-.5-2-.2-2 1.4 0 1.9-.6 2.1-5.5 2.1-4.8 0-5.5.3-5.5 1.9 0 2.4-1.3 2.8-12.2 3.7l-8.7.6-8.8-4.7c-4.8-2.6-11.3-6.4-14.3-8.5-9.7-6.5-20.5-12-23.8-12-1.8 0-3.2.4-3.2.9 0 1.9 22.3 17.9 34 24.4 6.9 3.8 14.3 8.3 16.5 10 6.4 4.9 25.5 24 25.5 25.4 0 5.1-30.6-4.2-39.5-12.1-3.2-2.8-4.5-3.2-4.5-1.6 0 .5-.7 1-1.5 1s-1.5.4-1.5 1c0 .5-1.1 1-2.5 1-3.3 0-3.1.9.7 3.9 2.1 1.7 4.2 2.4 6.7 2.4 2.5-.1 6.7 1.4 13.6 4.7 5.5 2.7 13.6 5.9 18 7 15.2 4.1 33 10.2 42.4 14.6 12.9 6.1 13.1 6 13.1-2.6 0-9 1.6-9.2 6.3-.8 5.1 9.1 9.1 14.4 20.8 27.8 7.7 8.7 11 11.9 12.8 11.9 2.4.1 2.4 0 1.8-6.7-.4-3.7-.7-7.7-.7-9 0-1.2-.6-2.2-1.2-2.3-1.4 0-7.8-9.6-16-23.7-6.8-11.7-13.8-21.9-19.2-27.8-3.6-4.1-4.6-5.9-4.5-8.5.1-4.9 3.3-13.3 5.1-13.7.9-.2 3.2 1.1 5.1 2.7 1.9 1.7 4 3.1 4.6 3.1.8 0 1.1-4.5 1.1-14.5 0-12.2.2-14.5 1.5-14.5 1.2 0 1.5-1.4 1.5-6.8 0-11.6 6-24.6 17.8-38.5 4.2-4.9 5.4-7.4 8.5-17.5 5.4-17.6 6.1-22.3 6.1-38.7 0-10.8-.5-17.2-1.8-22.8-.9-4.2-2-7.7-2.4-7.6-.4 0-1.7.5-2.9 1.1zm70.2 11.3c-.5.2-2.2.6-3.7.9-1.8.4-2.8 1.3-2.8 2.4 0 1-2.1 3-5.2 4.9-11 6.6-32.1 30.8-38.6 44-1.5 2.9-3.2 5.3-3.9 5.3-.9 0-1.3 1.5-1.3 4.6 0 3.3.4 4.5 1.3 4.1.6-.3 8.3-5.3 16.9-11.2 23.6-16 34.5-27.8 41.5-45 1.8-4.4 3.3-8.6 3.3-9.3 0-1.1-4.9-1.6-7.5-.7z"/>
    <path d="M430.1 292.2c-2.1 4.3-3.5 9-4.3 14.8-.6 4.7-1.6 8.8-2.2 9.2-1.7 1.1 1.2 3.6 3.7 3.1 3.6-.9 4.6-2.2 6.7-9 1.4-4.5 2-9.3 2-15.4 0-11-1.3-11.6-5.9-2.7zM274 310.4c0 2.9 5.1 18.9 7.7 23.9 9 18 21.9 30.4 40.8 39.4 13.7 6.5 41.5 15.9 41.5 14.1 0-1.6-2.9-8.8-7.3-18.1l-5.1-10.7h-4.9c-4.9 0-5.1-.1-14.8-9.4-9.9-9.5-34.7-28.6-47.2-36.4-7-4.3-10.7-5.3-10.7-2.8zm71.2 17.3c.4 4.8 1.4 8.6 3.4 12.7 3 6.1 8.3 11.2 9.1 8.8.3-.6 1.1-1.2 1.9-1.2 2.2 0 1.7-6.8-1-12.7-2.7-5.8-10.1-14.3-12.4-14.3-1.2 0-1.4 1.2-1 6.7zm192.4 15.5c-3.1.7-5 1.7-5.3 2.7-.2 1-2.8 3.1-5.6 4.8-2.9 1.7-8 5.6-11.4 8.7-5.1 4.7-6.7 5.6-9.8 5.6-4.1 0-6.3 2-10.1 9.3l-2.1 4-.6-2.9c-1-5.3-7.9-20.5-9.1-20.1-.6.2-1.4 1.9-1.7 3.8s-1.1 4.6-1.7 6.1c-2 4.9-6.1 23-7.6 33.3-.8 5.5-1.5 15.6-1.6 22.5-.1 11.2.2 13.3 2.6 20.2 2.4 7 3 7.8 5.3 7.8 2.4 0 2.8-.8 5.6-9.2 6.3-19.1 5.6-17.8 9.5-17.8 3 0 3.8-.6 5.6-3.8 3.2-5.5 13.8-16.6 18.9-19.9 2.9-1.8 4.5-3.5 4.5-4.8 0-1.1 1.4-4 3-6.5 1.7-2.5 5.6-8.8 8.7-14s6-9.7 6.5-9.8c.4-.2.8-.9.8-1.6 0-.6 1.3-4.3 2.9-8.1 4.8-11.5 4.8-11.5.9-11.4-1.8.1-5.5.6-8.2 1.1zm1.4 48.2c-3.5 1.4-5.6 2.9-5.9 4.1-.2 1.1-2.8 4.4-5.8 7.3-6.4 6.3-14.9 19-19.4 28.8-6.2 13.7-13.9 38.5-13.9 45 0 1.5-.6 2.4-1.6 2.4-1.2 0-1.5.6-1 2.2.4 1.3 1.2 9.2 1.8 17.5.8 10.2 1.6 15.3 2.4 15.3 2.4 0 6.2-4 5.7-5.9-.9-3.5 5.9-21.1 8.2-21.1 1.2 0 1.5 1.4 1.5 6.5 0 5.2.3 6.5 1.5 6.5 2.4 0 23.5-18.1 23.5-20.1 0-1.6 7.7-21.9 11.6-30.7 1.5-3.3 5.5-22.4 4.8-23.1-.6-.6-5.4 2.9-5.4 3.9 0 .6-1.1 1-2.4 1-1.4 0-4.8 1.9-7.9 4.5-5.3 4.3-8.7 5.1-8.7 2 0-1.9 2.8-8.2 5.7-12.8 4.6-7.3 13-29.2 12.5-32.6-.2-1.7-.7-3.1-1.1-3.1-.3.1-3.1 1.1-6.1 2.4zM281.6 402c1.1 1.8 3.8 4.5 6.2 6.2 8.5 5.9 15.2 7.3 18.9 4 1.8-1.5 1.9-2 .7-3.7-.8-1-2.8-2.4-4.6-3.1-1.8-.6-5.6-2.1-8.3-3.2-2.8-1.1-7.2-2.3-9.9-2.7l-4.9-.8 1.9 3.3zm-93.6.1c0 1.8 13.7 14.9 21.2 20.2 13.9 9.9 31.6 17 50.8 20.2 15.8 2.7 64 4.6 64 2.6 0-1.8-28.3-27.1-30.4-27.1-.3 0-.6 1.1-.6 2.5 0 2.4-.2 2.5-6.7 2.5-5.2 0-9.2-.9-16.8-3.6-21.2-7.5-33.3-10.3-63-14.5-8.8-1.3-16.1-2.7-16.3-3.1-.5-1.2-2.2-1-2.2.3zm38.5 48.9c-.9 1.4 1.1 3.8 4.6 5.6 3.1 1.5 14.9 1.9 14.9.5 0-1.3-4.9-4.6-8.9-5.9-4.2-1.5-9.8-1.5-10.6-.2zm106.5 6.9c0 .6-1.1 1.1-2.4 1.1-3.5 0-4.5 4.2-2.9 13.3.5 3.4.9 3.8 2.7 3.2 6.5-2.1 17.4-4.4 23.1-5 10.3-1.1 8.5-4-5.8-9.5-9.1-3.5-14.7-4.7-14.7-3.1zm-73 7.4c0 .7-2.9 2.1-6.6 3.1-4.8 1.4-11.4 5-25.2 13.9-27.6 17.7-32.7 20.7-35.5 20.7-2.2 0-3.7 1.6-3.7 4.1 0 1.5 16.5 1 24.8-.7 25.9-5.3 56.2-26.4 56.2-39.1 0-3.3 0-3.3-5-3.3-3.4 0-5 .4-5 1.3zm85.3 17.7c-8.6 2.3-12 3.9-15.4 7.7-4.2 4.6-5.9 7.6-5.9 10.5 0 2.3.4 2.8 2.6 2.8 1.4 0 8.1 1 14.7 2.1 11 1.9 14.5 2.1 36.2 1.5 13.2-.3 27.9-.9 32.8-1.2l8.7-.7v6.8l12.6 4.3c6.9 2.4 16.4 6.1 21 8.3 15.2 7 16 4.8 4.4-11.6-8.5-11.9-13.4-16.3-28.8-25.5l-7.2-4.3-4.3 1.7c-5.3 2-15.4 2.1-22.7.1-3-.8-8.1-1.7-11.3-2.1-3.1-.4-6-1.1-6.3-1.5-1-1.7-23.5-.9-31.1 1.1zm-45.5 3c-18.4 6.8-37.1 24-55.6 51.1-5.8 8.4-6.4 10.4-2.9 9.4 7.3-2 36.7-18.4 42.5-23.8 2.8-2.6 2.8-3.5-.3-4.9-4.7-2.1-3.3-5.1 7.3-15.7 5.3-5.4 12.3-11.5 15.5-13.6 9.4-6.2 6.5-7.4-6.5-2.5zm75.2 31c-.8.4-4.8 1.3-8.8 1.9-7.3 1.1-27.3 7.4-36.9 11.7-4.9 2.1-5.3 2.6-5.3 5.6 0 2.8-1.3 4.6-8.3 11.8-16.2 16.7-30.6 42.3-36.5 64.5-1.3 5.1-2.1 6.5-3.6 6.5-1.7 0-1.8.6-1.3 6.6.4 3.7.9 6.9 1.2 7.2 1.1 1.1 12-7.5 20-16 15-15.7 21.8-27.1 32.1-53.3 2.3-6.1 5.2-12.9 6.3-15.2 2.9-5.9 12.3-15.7 18.4-19.2 5.8-3.3 22.7-9.1 26.7-9.1 2.5 0 5.8-1.5 5-2.3-1.1-1-7.6-1.5-9-.7z"/>
    <path d="M399 519.6c0 .9.9 1.8 2 2.1s2 1.1 2 1.8c0 1.2 7 2.5 14.3 2.5 3 0 3.7-.4 3.7-1.9 0-2.1-.3-2.3-10.3-4.6-8.8-2-11.7-1.9-11.7.1zm-106.8 13.5c-9 2.3-9.2 2.4-9.2 5.8 0 1.7-1 3.7-2.6 5.2-1.5 1.3-5.8 6.6-9.6 11.7-3.9 5.1-8.1 9.7-9.4 10.2-1.7.7-2.4 1.7-2.4 3.5 0 2.3.3 2.5 2.3 2 10.5-3.1 34.3-19 38.1-25.5 2.3-3.9 4.5-11.9 3.9-13.8-.6-1.6-2.2-1.4-11.1.9zM895 744.7c0 5.2.8 5.5 11.4 4.7 7.1-.5 9.6-1 9.6-2 0-.9-1.2-1.4-3.5-1.4-2.8 0-3.5-.4-3.5-2 0-1.8-.7-2-7-2-7 0-7 0-7 2.7zm-763-.2c0 1.2 1.5 1.5 7.9 1.5 8.9 0 11.5-1.4 4.4-2.4-8-1.1-12.3-.8-12.3.9zM579 783c0 .5 1.6 1 3.5 1s3.5-.5 3.5-1c0-.6-1.6-1-3.5-1s-3.5.4-3.5 1zm45 2c0 .6 3.3 1 8 1s8-.4 8-1-3.3-1-8-1-8 .4-8 1zm308 .9c0 2 .4 2.1 9.8 2 5.3-.1 10.8-.4 12.2-.8l2.5-.7-2.5-.7c-1.4-.3-6.9-.9-12.2-1.3-9.6-.7-9.8-.6-9.8 1.5zm-597 6.5c0 1.3 1.1 1.6 6 1.6 3.3 0 6-.4 6-1s-1.3-1-2.9-1-4.3-.3-6-.6c-2.4-.5-3.1-.3-3.1 1zM105 805c0 .6 3.2 1 7.5 1s7.5-.4 7.5-1-3.2-1-7.5-1-7.5.4-7.5 1zm617 0c0 .6 2.7 1 6 1s6-.4 6-1-2.7-1-6-1-6 .4-6 1zm-89 4c0 .6-3.2 1-7.5 1s-7.5.4-7.5 1 4.3 1 11 1c10.3 0 11-.1 11-2 0-1.6-.7-2-3.5-2-1.9 0-3.5.4-3.5 1z"/>
  </g>
  <g fill="#1e3042">
    <path d="M660.8 280.1c-1.2.6-1.8 2.2-1.8 4.4 0 3 .3 3.5 2.3 3.5 2.7 0 5.1-4.1 4.2-7.1-.7-2.1-2.1-2.4-4.7-.8zM426 324.6c0 7.8 3 39.1 4.1 43.6 1.5 5.9 3.3 4.8 2.5-1.5-.3-2.8-1.1-12-1.6-20.2-1.8-25.7-2-27.5-3.6-27.5-1 0-1.4 1.4-1.4 5.6zm-68 24.3c0 1.1 6.8 10.2 21.5 28.6 5.3 6.6 12.8 16.6 16.7 22.2 4 5.7 7.6 10.3 8 10.3s.8-1.5.8-3.4c0-3.8-.2-4-29.1-40-12.9-16.1-17.9-21-17.9-17.7zm203.5 1.3c-6.1 2.1-13.9 6.8-18.6 11.1-1.5 1.3-5.2 6.6-8.2 11.8-3.1 5.2-7 11.4-8.7 13.9-2.5 3.8-3.9 8-2.6 8 .2 0 2.5-1 5.2-2.2 4.9-2.1 13.8-4.8 16.2-4.8.7 0 1.2 1.3 1.2 3 0 1.6.4 3 .9 3 1.5 0 10.4-11.9 14.4-19 4.1-7.4 8.1-17.6 9.1-23.3.8-4.5.1-4.6-8.9-1.5zm38.8 12.1c-7.9 7.3-19.2 17.8-25.3 23.4L564.1 396l-6.8.1c-11.3.2-11.1 0-16.3 12.9-2.6 6.3-6 13.7-7.7 16.5-3.6 5.9-6 12.2-5 13.1.4.4 2.4-.7 4.5-2.4 3.8-3.3 18.1-12.2 19.4-12.2.5 0 .8.7.8 1.5s.5 1.5 1 1.5c1.6 0 12.9-5.9 18-9.3 5-3.5 17-14.6 17-15.8 0-1.4-5.3-3.7-11.8-5l-6.3-1.3 22.2-22.2c12.2-12.2 22-22.6 21.8-23.2s-6.8 4.9-14.6 12.1zm-189.3.5c0 1 .6 4.2 1.4 7.2.7 3 2.4 9.9 3.6 15.2 1.5 6.4 2.8 9.8 3.7 9.8.7 0 1.3-.2 1.3-.4 0-.9-5.1-22.3-6.7-27.9-1.5-5.5-3.3-7.6-3.3-3.9zm211 25.9c-10.2 9.6-22.8 21.3-28.1 25.9-9.7 8.4-16 15.4-13.9 15.4.6 0 2.5-1.5 4.3-3.4 1.8-1.8 5.5-4.8 8.2-6.6 4.9-3.3 49.5-46.7 49.5-48.2 0-.4-.3-.8-.7-.7-.5 0-9.1 7.9-19.3 17.6zm-260.2 1.5c2.3 2.3 3.9 2 2.9-.7-.4-.8-1.7-1.5-2.9-1.5h-2.2l2.2 2.2zm95.2 29.1c0 14.4.1 15.5 2.1 17.3 3.3 2.9 10.3 13.2 13.7 19.9 6.3 12.7 8.6 24.2 9.7 49.2l.5 13.3-2.2-.1c-1.6 0-5.4-3.6-12.7-11.9-11.7-13.4-15.7-18.7-20.8-27.8-4.7-8.4-6.3-8.2-6.3.8 0 8.6-.2 8.7-13.1 2.6-9.4-4.4-27.2-10.5-42.4-14.6-4.4-1.1-12.5-4.3-18.1-7.1-9.9-4.8-13.4-5.9-13.4-3.9 0 .5 2.4 2.8 5.3 5.1 2.8 2.2 6.1 4.9 7.3 5.8 2.2 1.9 7.2 3.2 18.9 5.1 20.5 3.3 38.2 10.8 56.8 24.3 5.2 3.9 8.5 7.5 14.7 16.2 11.6 16.4 10.8 18.6-4.4 11.6-4.6-2.2-14.1-5.9-21-8.3l-12.6-4.3v-6.8l-8.7.7c-4.9.3-19.4.9-32.4 1.3-22 .6-24.4.4-37-1.8-17.6-3.1-35.8-3.3-43.9-.4-6.3 2.3-16 8.3-16 9.9 0 .6 1.5 1.9 3.3 2.9 2.7 1.4 6.6 1.7 24.7 1.9 18.7.3 21 .5 17.5 1.5-9.4 2.9-23.5 8.9-23.5 10 0 .7.3 1.3.8 1.3.4 0 8.2-2.9 17.3-6.4 32.5-12.5 43.2-13.5 74.7-7 2.1.4 3.2.3 3.2-.5 0-1.5 3.6-1.4 11.7.4 9.9 2.3 10.3 2.5 10.3 4.4 0 1.7-1.2 1.8-16.2 1.8-15.1-.1-17 .1-25.3 2.6-9.6 3-31.7 13.5-32.3 15.3-.2.9 4.5 1 17.3.6 12.8-.3 17.5-.2 17.5.7 0 .6-.7 1.1-1.6 1.1-3.5 0-14.7 6.4-20.4 11.7-10.6 9.8-15.9 24.3-14.6 40 .7 7.1 2.7 15.4 4.6 18.3 2.2 3.5 20.3-18.3 27.7-33.5 4.3-9 8.2-23.8 8.3-31.5 0-5.8.8-6.3 9.1-5.6 14.9 1.3 28.9 3.9 28.9 5.3 0 .7-.4 1.3-1 1.3-.5 0-1 .4-1 .9s-4.4 5.3-9.8 10.7c-9.8 9.9-18.2 19.8-18.2 21.5 0 1.5 2.8 1 7.3-1.2 5.7-3 26.2-16.7 37.7-25.4 5.2-4 16.3-12.3 24.5-18.5 21.2-15.9 32.6-25.3 31.7-25.9-.5-.3-1.3-6.9-1.9-14.6s-1.9-19.9-2.9-27c-1.4-11.1-1.5-14.4-.5-22.9 1.1-8.5 3.8-19.1 6.6-25.9.6-1.4.2-1.7-2.6-1.7-3.8 0-3.1-1.2-9.4 17.8-2.8 8.5-3.2 9.2-5.7 9.2-2.4 0-2.8-.6-4.3-5.6-.9-3.1-4.1-11-7.1-17.4-3-6.5-6-14.1-6.7-16.9-.6-2.8-1.7-5.1-2.4-5.1-1 0-1.3 3.6-1.3 15.3zm-150-6.8c0 .8.9 1.9 2 2.5 3.6 1.9 22.3 17.2 30.9 25.2 7.8 7.2 12.1 9.6 12.1 6.5 0-3.4-39.5-35.7-43.7-35.7-.7 0-1.3.7-1.3 1.5zm465 10.6c-1.5 3.5-.4 4.9 3.8 4.9 2.5 0 2.8-1.6 1-5.5-1.5-3.4-3.3-3.2-4.8.6zm-196.5 12.5c-5.5 3.1-11.1 6.6-12.5 7.8-1.4 1.3-5.9 4.4-10.2 6.9l-7.6 4.7-4.7 11.9c-2.6 6.6-4.5 12.5-4.3 13.1.9 2.7 54.8-45.2 54.8-48.8 0-2.6-5.9-.9-15.5 4.4zm200.5 4.9c-1.4 1.6-1 1.8 1.4.9.9-.3 1.6-1 1.6-1.5 0-1.4-1.6-1.1-3 .6zm-20.5 19.2c-3.3 3.1-10.3 9.8-15.5 14.8-5.2 4.9-19.8 18.7-32.5 30.5-12.6 11.8-27.1 25.4-32.1 30.2-4.9 4.9-9.6 8.8-10.2 8.8-.7 0-1.2.6-1.2 1.3 0 .8-1.1 2.4-2.5 3.7s-3.9 4.5-5.6 7.1c-3.3 5.2-3 5-19.4 9.5-22.2 6-20.4 5.1-21.4 9.2-.5 2-1.9 8.9-3.1 15.2l-2.2 11.5-5.2 4.8c-7.3 6.8-24.2 20.4-27.5 22.2-4.7 2.4-11.4 3.6-12.3 2.2-.4-.7-.8-4.9-.8-9.4 0-8.4-.5-11.3-2.1-11.3-.5 0-.9 6-.9 13.3 0 12.9-.1 13.6-3.3 21l-3.4 7.7.5 17.9.5 17.9-4.8 6.4c-2.7 3.4-5.3 6.7-6 7.3-.6.5-1.5 2.1-1.8 3.5-1.1 4.1-4.6 9-6.4 9-1 0-3.6-.7-5.8-1.5-4.6-1.6-10.9-2-10-.5 2.7 4.4 16.7 10 21 8.3.8-.3 2.4-3.7 3.6-7.7 2.6-8.6 3.9-11.2 9.5-19l4.4-6v-10.2c0-7.3.8-14.4 3-25.2 1.7-8.3 3-15.3 3-15.6 0-1.4 9.8-4.6 14.1-4.6 2.6 0 11.1 1.4 18.8 3.1l14.1 3 4.2-4.1c3.4-3.2 4.8-4 6.8-3.6 9.9 2.1 27.2 5.6 27.6 5.6.2 0 .4-.7.4-1.5s-1.6-1.8-3.7-2.4c-16.7-4.2-20.6-5.1-23.2-5.1-3.2 0-3.6-.7-4.6-10.5l-.7-6 11-11.6c6-6.4 11.2-12.5 11.6-13.5.3-1.1 1-4 1.6-6.6.8-4.1 2.5-6.3 11.7-15.9 21.3-22.1 48.3-48.9 78-77.4 26.8-25.7 32.3-31.6 29.6-31.5-.5 0-3.5 2.6-6.8 5.7zm-460-.6c-3.8.5-10.3 1.8-14.3 2.9s-8.1 2-9.2 2c-1.5 0-2 .7-2 2.5 0 1.4.2 2.5.4 2.5s4.8-1.2 10.3-2.7c8.5-2.3 11.8-2.7 24.3-2.7 12.2-.1 15 .2 17.8 1.7 1.9 1 3.5 1.7 3.7 1.5.1-.2.5-1.9.8-3.9l.5-3.7-4.5-.6c-6.1-.8-19.1-.6-27.8.5zm322.4 18.4c-4.9 5.3-27.8 25.8-38.9 34.8-5.2 4.2-13.5 11-18.5 15.2-4.9 4.1-11.7 9.6-15 12.2s-11 8.8-17.1 13.8c-6.1 4.9-15.3 12.3-20.5 16.3-5.2 3.9-15 11.6-21.9 16.9-6.9 5.4-21.7 16.2-33 24.1s-21.6 15.1-22.9 16l-2.3 1.7 7.5 6.3c4.1 3.4 7.8 6.2 8.1 6.2s.6-.7.6-1.5c0-.7 4.3-4.7 9.7-8.7 5.3-4 11.3-8.6 13.5-10.2 3.5-2.7 3.8-3.4 3.8-7.7 0-3.4.5-5 1.9-6 2.7-2 27.6-21 34.6-26.5 11.9-9.2 25.1-19.9 31.5-25.4 3.6-3.1 10.3-8.6 15-12.3 15.2-11.9 23.5-18.9 43.3-36.5l19.6-17.2h7.5c5.5 0 7.6-.4 7.5-1.3-.1-2.2-7.5-13.2-9.1-13.5-.9-.2-3.1 1.3-4.9 3.3zm-111.5 13.2c-4.4 10.7-6.4 18.3-4.7 18.3 1.4 0 11.5-8.4 10.4-8.8-.7-.2-1.1-2.9-1.1-6.8 0-7.6-2-8.7-4.6-2.7z"/>
    <path d="M693 567c-5 4.4-9.7 8-10.5 8s-1.5.6-1.5 1.3c0 1.7-7 8.3-14.2 13.6-3.2 2.3-5.8 4.3-5.8 4.4 0 3.3-2.7 12.7-4.5 15.9-3.4 5.9-3.2 8.8.7 11.3 3.9 2.4 16.8 24.3 16.8 28.4 0 .4-2 2.2-4.5 4-4.5 3.2-5.9 6.1-2.9 6.1 2.2 0 12.1-7.8 24.4-19.2 5.8-5.4 11.3-9.8 12.3-9.8 1.7 0 2.2-1.6 1.1-4.4-1-2.6-2.9-1.9-8.2 2.9-4.9 4.4-7.7 6-5.2 3 1.1-1.3.6-1.5-3.1-1.5-2.4-.1-5.5-.7-6.9-1.5s-4.2-1.4-6.2-1.5c-3.7 0-3.8-.1-3.8-3.8 0-2 .9-9.1 2-15.7s2-13.4 2-15.2c0-3.8 5.1-10.3 8.2-10.3 1.4 0 1.8-.5 1.3-1.9-.4-1.3.6-2.9 3.2-5.3 8.1-7.5 16.7-16.8 15.6-16.8-.7 0-5.3 3.6-10.3 8zm-11.5 67.7c1.9.9 3.5 2.3 3.5 3.2 0 1.8-3.9 6.1-5.6 6.1-1.2 0-6.4-8-6.4-9.9 0-1.6 4.5-1.3 8.5.6zM451 579c0 1.3.7 2 2 2s2-.7 2-2-.7-2-2-2-2 .7-2 2zm317.8 69.6c-3.2 1.7-3.7 4.4-1 4.4 2.1 0 5.2-2.9 5.2-4.8 0-1.5-.9-1.5-4.2.4zm-379.8.8c0 1.5 3.7 3.2 4.7 2.2.3-.3.3-1.2 0-2.1-.8-1.9-4.7-2-4.7-.1zm131.2 10.8c-4.2 4.1-9.2 8.6-11 10.1-1.9 1.5-5 4.6-6.9 7-1.9 2.3-4.2 4.4-5 4.7-1 .4-.5 1.2 1.7 2.9 1.8 1.2 3.3 2.1 3.4 1.9.1-.1 1.7-2.8 3.5-5.8 2-3.3 7.8-9.5 14.3-15.4 6-5.5 10.7-10.4 10.5-10.9-.8-2.6-3.3-1.3-10.5 5.5zm-264.9 12c4.6 11.6 6.2 15.1 7.3 15.5 1.8.7 1.8 3.4-.1 5.9-.8 1-1.5 3.7-1.5 5.9 0 5.3 4.9 22.5 7.2 25.1 2.6 2.9 2.3 3.6-1.5 2.9-2.1-.4-4.7-.1-6.8.8-5.3 2.2-22.9 14.1-22.9 15.4 0 3.4 9.3 4.4 16 1.7 3-1.2 4.4-1.3 5.4-.5.7.6 3.7 1.9 6.7 2.9 4.6 1.6 7.4 1.8 18.7 1.3l13.4-.6-2.4-2.8c-1.9-2.1-3.2-2.7-6.5-2.7-3.2 0-4.5-.5-5.3-2.1-1.9-3.5-4-11.3-4-14.9 0-2.1-1.7-6.8-4.1-11.7-5-9.7-5.9-15.8-3.4-23.2l1.7-5.1-4.9-4.4c-12.3-10.9-14.2-12.3-13-9.4zm384.9 5.6c-5 4.5-6.2 6.2-4.3 6.2 1.4 0 13.1-8.9 13.1-10 0-2.3-3.8-.6-8.8 3.8zM427 682.9c0 .9 2.4 2.1 4.1 2.1.5 0 .9-.7.9-1.5 0-.9-.9-1.5-2.5-1.5-1.4 0-2.5.4-2.5.9zm51.2 11.3c.6 11 3.2 19.5 8.9 28.7 3.2 5.1 3.7 6.6 2.8 7.8-.7.8-2.2 5.1-3.5 9.6l-2.1 8.2-4.7-.2c-2.5-.2-4.6.1-4.6.6 0 1.2 45.9 1.8 76.5.9 13.8-.3 47-.7 73.9-.7l48.9-.1-.7-3.1c-.3-1.7-.6-4.1-.6-5.3 0-1.6-.9-2.5-3.3-3.4-1.8-.7-4.3-2.1-5.5-3.2-1.1-1.1-2.4-2-2.8-2-.3 0-2.9 2.1-5.7 4.6l-5.2 4.6-20.7-.7c-15.7-.5-22-.4-25.8.6-2.7.7-5 1.6-5 2.1 0 1.3-7.1 3.8-11 3.8-3.2 0-4.4-.7-8.9-5.5-2.9-3-5.6-5.5-6-5.5-1.1 0-4.1-3.5-4.1-4.8 0-.6 1.4-3.3 3-5.9 1.7-2.6 3-5.5 3-6.6 0-1.7-.5-1.8-4.2-1.2-7.1 1.2-20.9 4.5-28.2 6.8l-6.8 2.2.5 4c.3 2.2 1.1 6.6 1.8 9.7.9 4 1 6.1.3 6.8-1.3 1.3-17.4 2.2-17.4 1.1 0-.5.7-2.8 1.5-5.2 1.4-4 1.4-4.4-.2-5.3-3.4-1.8-12.4-12.1-15.5-17.5-4.1-7.4-7.6-16.8-8.4-23-.6-4.8-.8-5.1-3.5-5.1-1.5 0-5.8-1.6-9.5-3.5s-6.9-3.5-7.2-3.5c-.2 0-.2 4.2 0 9.2zm-81.3 8.1c-3.7 2.8-4.7 4.4-7.6 12.6-1.9 5.2-3.2 9.6-2.9 9.8 1.6 1.7 29.6-9.2 29.6-11.5 0-.4-1.3-2.1-3-3.7-1.6-1.6-4.2-4.6-5.6-6.7-1.5-2.1-3.5-3.8-4.5-3.8-.9 0-3.7 1.5-6 3.3zm467 15.6c-2.3 5.4-7.8 8.1-18.1 8.8-4.3.3-7.8.7-7.8.8s.9 2.8 2 6 2 6.2 2 6.7c0 .4-11.7.8-26 .8s-26-.4-26-.9c0-.4 3.5-2.1 7.8-3.6 4.2-1.6 7.9-2.9 8.1-3.1.3-.3 3-14.9 3.1-16.7 0-2.3-10.9 1.3-38.5 12.5-21.3 8.6-40.9 14.9-48.5 15.5-4.3.4-8.1 1.4-11.4 3.2-4.7 2.5-5.6 2.6-20.3 2.6-8.4 0-15.3.4-15.3.8 0 .5 10 .6 22.3.3 12.2-.3 61.8-.9 110.2-1.2l88-.6.2-6.9c.2-7.9-.7-8.6-6.1-4.4-2.9 2.2-4.3 2.5-11.9 2.5-4.8 0-8.7-.4-8.7-.9 0-.4 2-2.1 4.5-3.7 2.5-1.5 4.5-3.2 4.5-3.7 0-1.2-11.2-18.7-11.9-18.7-.4 0-1.3 1.8-2.2 3.9zM678 726.5c-1.3 1.3-3.8 3.5-5.6 4.7-4.3 2.9-4.4 4.1-.1 2.4 1.7-.8 5.6-1.7 8.5-2.1 2.8-.4 5.2-.9 5.2-1.2 0-1.3-3.6-6.3-4.5-6.3-.7 0-2.2 1.1-3.5 2.5zm-235.5.3c-2.1 1.8-29.4 13.2-38 15.8-7.9 2.4-10.7 2.8-23 2.8-13.7.1-14.2 0-24.9-3.7-5.9-2.1-11-3.6-11.3-3.4-.2.3 0 1.4.5 2.4 1.5 2.7 8.4 26.5 7.8 27-.2.2-4.6-.3-9.7-1.3-7.2-1.3-12.3-1.5-22.8-1.1-7.5.3-14.6.9-15.8 1.3-1.7.5-2.3.2-2.3-1 0-.9-.4-1.6-1-1.6-.5 0-1 .4-1 1s-2.8 1-6.5 1c-4.8 0-6.5.4-6.5 1.3 0 2 23.1 2.7 91.6 2.7 48.4 0 59.5-.3 65.5-1.5 13.4-2.8 11.6-3.4-13.9-4.2-11.7-.3-21.2-.9-21.2-1.2 0-.4 2.4-1.5 5.3-2.5 2.8-1 9.4-3.8 14.6-6.2s10-4.4 10.7-4.4c.8 0 1.4-.4 1.4-.9s2.1-1.7 4.6-2.7c3.8-1.4 4.5-2.1 4.1-3.8-3.4-14.1-4.2-16.6-5.7-16.6-.9 0-2 .4-2.5.8zm-327.6.9c-1.3.3-1.8 2.2-2.4 8l-.7 7.5-10.6-.4c-11.3-.5-18.2-2.6-22.9-7-2.6-2.4-3.5-2-6.4 3.2-2.2 4-2.3 4-8.3 4.1-4.1 0-5.4.3-4.1.8 1.1.5 17.9 1.1 37.3 1.5 31.2.7 35.2.6 35.2-.8 0-1.1-1.6-1.7-6-2.2-3.3-.4-6.3-1-6.6-1.5-.2-.4-.7-3.8-1.1-7.4-.3-3.6-.9-6.4-1.2-6.4-.3.1-1.3.3-2.2.6z"/>
    <path d="M812.7 734.6c-1.4 1.4-.6 2.4 1.9 2.4 1.6 0 2.4-.5 2.2-1.3-.5-1.4-3.1-2.1-4.1-1.1zm96.3.4c-.8.6-3.2 1.5-5.4 2.1-5.5 1.5-3.8 2.2 3.3 1.4 5.1-.6 6.1-1 6.1-2.6 0-2.1-1.6-2.4-4-.9zm-398.5 33c-5.5 2.2-15.2 5.8-21.5 8s-13.7 4.8-16.5 5.9l-5 1.9-.3 7.8-.3 7.7 18.2-.6c10-.4 25.3-.7 34.1-.7 15.1 0 15.8-.1 15.8-2 0-1.1-1.8-7.4-4-14s-4-12.3-4-12.7c0-.3 9.3-.4 20.7-.2 19.2.4 20.8.3 21.1-1.4.3-1.4-.4-1.7-3.5-1.7-2.2 0-4.5-.6-5.2-1.3-1.1-1-1.4-1-1.8 0-.3.9-3.2 1.3-9.8 1.3s-9.5-.4-9.8-1.3c-.4-1-.7-1-1.8 0-1.5 1.5-11.9 1.7-11.9.3 0-1.9-4.5-.9-14.5 3zm-455.2-2.2c-37.6.2-43.3.4-43.3 1.7s6.6 1.5 52 1.5c44.4 0 52-.2 52-1.4 0-1.9-7.3-2.2-60.7-1.8zm773.7 1.7c0 1.3 2.4 1.5 15.8 1.5 8.6 0 28.9.3 45 .7 25.6.5 29.2.4 29.2-.9s-4-1.6-27.2-2.1c-46.4-1.2-62.8-.9-62.8.8zm98 0c0 1.3 4.4 1.5 33.5 1.5s33.5-.2 33.5-1.5-4.4-1.5-33.5-1.5-33.5.2-33.5 1.5zm-356.9 6c1.7 1.7 14.3 6.4 17.2 6.5.9 0 1.7.4 1.7 1 0 .5-.7 1-1.5 1s-1.5.4-1.5.9c0 1.6 15.8 2.2 42.3 1.5 14.7-.4 26.7-1.1 26.7-1.5 0-.5-.1-.9-.2-1-.2 0-14.5-.4-31.8-.9l-31.5-.7-9.5-3.2c-5.2-1.8-9.9-3.6-10.4-4.2-.6-.5-1.5-.9-2-.9-.6 0-.3.7.5 1.5zM927 780v4h-10.2c-7.7 0-9.9.3-9 1.2 1.2 1.2 22.8 3.5 23.8 2.5.3-.3 0-3.1-.7-6.1-1.5-6.7-3.9-7.7-3.9-1.6zm-599.3-.9c-1.1.6-3.2.9-4.8.5-3.1-.6-2.7-1.3-4.4 9.5-.4 2.4 0 2.7 3.3 3.3 2 .3 5.8.6 8.3.6 4.3 0 4.7-.2 5.2-2.8.3-1.5.8-3.6 1.2-4.7.4-1.4-.1-3-1.5-4.8-2.3-2.9-4.3-3.3-7.3-1.6zm375.5 6.2c-2.3 2.3-4.2 4.8-4.2 5.3 0 .6 1.3 4 2.9 7.6l3 6.5 25 .1c21.6 0 25-.2 25.6-1.5.3-.9.3-1.8.1-2-.3-.3-10-.5-21.7-.5h-21.2l.7-7.2c.6-7 .6-7.3-1.9-8.6-1.4-.7-2.5-1.9-2.5-2.7 0-2.2-1.4-1.5-5.8 3zm-555.5 1.2c-.9 2-1.7 3.8-1.7 4 0 .3 3.2.5 7 .5 4 0 7-.4 7-1 0-1.2-7.8-7-9.5-7-.6 0-1.9 1.6-2.8 3.5zm471.8 1.5c-.8 1.4.3 4.7 3.1 9.2 1.3 2.1 2.4 4.9 2.4 6.2 0 2.2-.8 2.7-7.1 4.6-3.9 1.2-6.9 2.3-6.7 2.5s5.2.1 11.1-.2l10.7-.6v-7.3c0-7.2 0-7.2-3-7.9-1.6-.3-4.3-2.2-5.9-4.1-3.3-3.7-3.7-3.9-4.6-2.4zm201.5 5.5c-1.3 1.4-2.1 2.7-1.9 3 .3.2 2.9.2 5.7-.2l5.3-.6-2.2-2.3c-2.8-3-4-3-6.9.1zm-426.2 4.2c-5 .3-5.8.7-5.8 2.3 0 1.8-.7 2-9 2-5.5 0-9 .4-9 1 0 .7 6.1 1 17.8.8l17.7-.3.3-3.3c.4-3.6 1.6-3.3-12-2.5zm-181.3 1.4c-28.4.7-46.5 1.8-46.5 2.9 0 .3 12.5 1.3 27.8 2.2 21.8 1.3 33.8 1.5 56.2.8 15.7-.5 32.4-.9 37.3-.9 4.8-.1 8.7-.5 8.7-1 0-1-6.1-1.8-25-3-24-1.6-31.4-1.7-58.5-1zM56 802.3c0 2.1 19.7 3.2 42.4 2.4 15.4-.6 18.7-1 17.5-2.1-.2-.2-13.8-.7-30.1-1.1-26.5-.7-29.8-.6-29.8.8z"/>
  </g>
  <path d="M619.1 345c-2.4 2.1-4.2 4.3-4 4.9s2.4-.9 4.8-3.3c5.6-5.7 5.1-6.7-.8-1.6zm149.4 103c-3.2 3.3-5.7 6.2-5.4 6.4.3.3 3.4-2.4 6.9-5.9 3.6-3.6 6-6.5 5.4-6.5-.5 0-3.6 2.7-6.9 6zM708 616.9c-2.5 2.2-4.1 4.3-3.7 4.7.4.5 2.9-1.3 5.5-3.9 5.6-5.7 4.5-6.2-1.8-.8zm-8.7 148.7c-.3.9-1.2 1.3-2.2.9-2.3-.9-39.1.6-39.1 1.6 0 .5 38.3.9 85.5.9 56.3 0 85.5-.3 85.5-1s-21.7-1-63-1c-55.3 0-63-.2-63-1.5 0-2-2.9-1.9-3.7.1zM5 767.5c0 .8.9 1.5 2 1.5s2-.7 2-1.5-.9-1.5-2-1.5-2 .7-2 1.5zm111 .5c0 .6 4 1 10 1s10-.4 10-1-4-1-10-1-10 .4-10 1zm168 0c0 .5.9 1 2 1s2-.5 2-1c0-.6-.9-1-2-1s-2 .4-2 1zm635 0c0 .5 1.8 1 4 1s4-.5 4-1c0-.6-1.8-1-4-1s-4 .4-4 1zm-803 35c0 .5 2.5 1 5.5 1s5.5-.5 5.5-1c0-.6-2.5-1-5.5-1s-5.5.4-5.5 1z"/>
  <g fill="#5caf60">
    <path d="M419.7 264.7c-3.6 8.3-4.7 12.9-4.7 20.6 0 12.2 5 30.7 8.3 30.7.9 0 1.7-2.6 2.5-8.8 1.2-9.3 6.2-21.2 8.9-21.2 1.1 0 1.2-.9.7-3.8-1.4-8.1-9.1-23.2-11.8-23.2-.7 0-2.5 2.6-3.9 5.7zm57.8 13.7c-11 7.4-24.1 23.7-30.5 37.9-3.9 8.6-7.8 25.1-8.5 35.5l-.6 8.7 6.4 4.7c3.5 2.7 7.5 4.8 8.8 4.8 2.4 0 2.5-.3 3.8-12.3 2.4-23.4 7-38.5 18.7-62.4 4.9-9.8 7.4-16.1 7.2-17.8l-.3-2.5-5 3.4zm61.8 10.5c-10.1 4-15.6 7.4-21.6 13.5-8.9 8.9-15.2 21.8-17.1 34.8-1 6.6 1.2 6.4 4.6-.5 6.5-13.2 27.6-37.4 38.6-44 3.1-1.9 5.2-3.9 5.2-4.9 0-2.4-1.2-2.2-9.7 1.1zm-167.3 14c0 15.5 1.2 24.8 5.1 40.1 3.4 13.3 7.2 22.5 16.4 39.9 3.6 6.8 6.5 12.9 6.5 13.5s1.4 2.6 3 4.3c2.7 3 3.5 3.3 9.1 3.3h6.1l-.5-7.3c-.3-3.9-1.5-11-2.6-15.7-3.4-13.7-4.4-19-3.7-19.7 1.2-1.2 1.8.6 5.8 17.1l4.1 16.6h3.3c3.8 0 3.9-.3 5.3-14.7.6-5.8.6-10.5 0-12.5-.5-1.8-.9-5-.9-7 0-2.5-.5-3.8-1.3-3.8s-1.9-1.9-2.6-4.3c-3.8-12.8-15.2-32.1-26.1-43.9-6-6.6-22.6-18.8-25.6-18.8-1.1 0-1.4 2.4-1.4 12.9zm-99 4.6c0 .9.9 1.5 2.4 1.5 5.4 0 40.5 25.2 56.5 40.6 9.5 9.1 10 9.4 14.5 9.4 2.5 0 4.6-.4 4.6-.8 0-.5-3.1-5.6-6.9-11.4-14.4-21.8-31.1-33.6-54.6-38.8-11.1-2.4-16.5-2.6-16.5-.5zm250.2 40.8c-3.4 1.8-9.7 6.1-14 9.7l-7.7 6.5 3.8.3c3.3.3 4.4-.3 10-5.3 3.4-3.1 8.6-7.1 11.5-8.8 4.8-3 6.8-5.7 4-5.7-.7.1-4.1 1.5-7.6 3.3zm-46.1 14.3c-2.4 2.7-5.4 6.8-6.8 9.1-1.4 2.4-3.1 4.3-3.8 4.3-.8 0-2.4 2.6-3.6 5.7-2.7 6.9-3.8 22.4-1.9 28.7 1.6 5.7 8.1 19.6 9.2 19.6.4 0 .8-4.8.8-10.8 0-15.9 4.7-43 9.7-55.3 2.4-6.1 1.1-6.6-3.6-1.3zM277 393.7c.1 3.3 2.4 4.9 8.7 6 3.5.7 9 2.4 12.3 3.9s6.3 2.4 6.7 2.1c2.5-2.5-10.1-10.6-19.5-12.6-7.1-1.5-8.2-1.4-8.2.6zm-66.5 1.4c-8.3 1.3-20.5 5.1-20.5 6.3 0 .7 6.2 2 16.3 3.4 29.7 4.2 41.9 7.1 63.2 14.6 7.6 2.7 11.6 3.6 16.8 3.6h6.7v-3c0-2.5-.9-3.5-5.7-6.6-6.8-4.4-23.6-12.5-30.8-14.9-12.2-4.1-32.9-5.6-46-3.4zm115 .8c-4.8 1.1-7 2.1-7 3.1 0 1.1 1 1.4 3.8 1.2 4-.4 13.2 4 24.7 11.8 3 2.1 9.5 5.9 14.3 8.5l8.8 4.7 8.7-.6c10.9-.9 12.2-1.3 12.2-3.7 0-1.6.7-1.9 5.5-1.9 5.2 0 5.5-.2 5.5-2.4 0-5.2-24.9-18.6-39.2-21.1-10.8-1.9-28.4-1.7-37.3.4zm201.5.8c-19 11.3-29.3 24.9-34 45.5-1.2 5.4-2.7 9.8-3.3 9.8-1 0-.4 15.2.9 23.2.7 4.3 3.4 5.3 3.4 1.4 0-6.5 7.7-31.3 13.9-45 4.5-9.8 13-22.5 19.5-28.9 3.1-3 5.6-6.2 5.6-7.1 0-2.2-.7-2-6 1.1zm-180.6 31.8c1.2 4.7 2.4 7.1 6.5 12.5 2.2 3 4.1 6.2 4.1 7.2 0 1.2 2.9 3.1 9.3 6.3 12.1 5.9 29.7 9.6 29.7 6.2 0-1.5-18.6-20-25.8-25.6-3-2.2-6.2-4.1-7.2-4.1s-4.8-1.1-8.4-2.5c-8.3-3.1-9-3.1-8.2 0zm98.1-.3c-4.8 13.3-4.7 14.6 1.1 21.2 5.4 5.9 12.4 16.1 19.2 27.8 8.5 14.5 14.7 23.7 16.1 23.7 1.2.1 1.3-1.6.8-9.7-1.2-17.7-6.7-33.6-16.2-46.6-5.1-7-9.1-11.6-10.1-11.6-.3 0-2.2-1.4-4.1-3-3.6-3.2-6.1-3.8-6.8-1.8zM324 448.3c0 2.2 7.4 8.7 9.9 8.7 2.7 0 16 4.5 21.5 7.2 2.1 1.1 4.1 2.8 4.3 3.9.4 1.5 1.4 1.9 4.4 1.9 2.2 0 3.9-.3 3.9-.8-.1-.8-12-10.1-15.4-11.9-1.1-.6-3.4-1.5-5.1-2-1.9-.5-3.1-1.7-3.5-3.2-.7-3.2-5.6-4.9-13.7-5-4.5-.1-6.3.3-6.3 1.2zm-82 17.2c-20.5 4.2-35.3 13.5-46.1 28.8-2.7 3.9-4.9 7.4-4.9 7.9 0 .4 1 .8 2.1.8 2.4 0 8.1-3.4 35.1-20.7 13.8-8.9 20.4-12.5 25.2-13.9 8.4-2.4 8.8-4.4.9-4.3-3.2 0-8.7.7-12.3 1.4zm65.5 4.5c-20.7 4.7-41.5 15.7-52.4 27.6-11.1 12.1-17.4 26.4-18.6 42.1-.5 7.1-.4 8.3.9 8.3.9 0 1.6-.8 1.6-1.7s2.3-5.1 5.2-9.2c13.9-20.4 25.7-32.9 40.5-43.2 8.1-5.6 22.3-11.3 26.2-10.6 1.6.3 5.1-.8 9.8-3.1 6.4-3.2 7.3-4 7.3-6.3 0-6.2-5.7-7.3-20.5-3.9z"/>
    <path d="M364 472c-16.4 1.3-34.5 7.4-50.9 16.9-8.4 4.9-20.1 14.6-20.1 16.7 0 1.7-.1 1.7 4.6-.2 2.3-1 8.2-1.8 15.1-2.1 10.8-.6 11.3-.7 11.3-2.8 0-2.6 4.6-9.3 8.5-12.3 5.3-4.2 14.9-6.4 29.3-7 8-.2 13.7 0 14.5.6.6.5 3.7 1.3 6.8 1.6 3.1.4 8.1 1.4 11 2.1 3 .8 8.3 1.5 11.8 1.5 6.2 0 13.1-1.6 13.1-3.1 0-1-13.5-6.5-20.5-8.3-5.9-1.5-24.5-4.7-25.5-4.4-.3 0-4.3.4-9 .8zm19 47c-.8.5-2.6 1-4 1-4 0-20.9 5.8-26.7 9.1-7.6 4.3-20.1 18.4-18.1 20.4.3.3 2.5-.4 4.9-1.5s5.1-2 6-2 1.9-.9 2.2-1.9c.7-2.6 20.4-12.2 32.2-15.6 4.9-1.4 12.2-2.8 16.2-3.2 7.7-.6 9.3-2 4.6-4-7.3-3.1-14.6-4.1-17.3-2.3zm-68.9 20.1c-16.4 10.9-24.4 19.8-31.6 35.2-5 10.5-7.4 20.9-8.2 34.9-.6 9.2-.5 9.8 1.3 9.8 1.5 0 2.3-1.4 3.6-6.5 5.9-22.2 20.3-47.8 36.5-64.5 6.3-6.5 8.3-9.2 8.3-11.3 0-1.5-.5-2.7-1.2-2.6-.7 0-4.6 2.2-8.7 5zm-37.9.6c-6 4.1-12.2 12.8-14.7 20.4-3.2 9.5.1 8 9.3-4.3 3.8-5.1 8.1-10.4 9.6-11.7 2.4-2.3 3.8-8.1 1.8-8.1-.4 0-3.1 1.6-6 3.7zm357.3 183.8c-3.8 2.9-9.5 6.6-12.5 8.2-4.1 2.3-5.6 3.6-5.8 5.5-.3 2.5-.3 2.5 10.4 3.1 5.9.4 14 .7 17.9.7 7.2 0 7.3 0 12.3-4.5 2.7-2.5 5.3-4.5 5.6-4.5.4 0 1.6.9 2.8 2 2.6 2.4 4.8 2.6 4.8.5 0-.8.3-1.5.8-1.5.4 0 3-2 5.9-4.5 2.8-2.5 5.6-4.5 6.1-4.5.6 0 1.9 1.8 2.9 4l1.8 3.9 6.1.1c5.1 0 7.3-.6 13-3.5 6.7-3.4 12.1-7.2 11.3-7.9-.8-.8-44-2.6-59.9-2.5h-16.5l-7 5.4zM909 744c0 1.6.7 2 3.5 2 2.4 0 3.5.5 3.5 1.5 0 .8-.1 1.6-.2 1.7-.2 0-44.6.5-98.8 1-82.9.7-140.8 1.9-129.7 2.6 1.6.1 2.7.8 2.7 1.7 0 .8 1.4 1.7 3.3 2 1.7.4 55.9.4 120.2.2 125.7-.4 137.6-.9 155.6-5.7 5.3-1.5 5.4-4.5.2-5.9-5.6-1.5-28.8-3.1-45.5-3.1-14.1 0-14.8.1-14.8 2zm-452 1c-9.6.6-15 2.3-15 4.5 0 2.7 24.3 4.1 83.1 5.1 41.2.6 43.6.6 44.3-1.1.6-1.7 1.8-1.7 16.9-.9 8.9.5 20.3.8 25.2.7 5-.1 20.5-.2 34.5-.3 14 0 26.3-.3 27.3-.6.9-.3 1.7-1.2 1.7-2 0-1.2-7.1-1.4-49.2-1.3-27.1 0-60.5.4-74.3.7-30.7.9-76.5.3-76.5-.9 0-1.8-4.1-4.9-6.2-4.7-1.3.1-6.6.4-11.8.8zm-385 1.4c0 .8.7 1.7 1.6 2s13.5.6 28 .6c21.4 0 26.4-.3 26.4-1.3 0-1.1-4.2-1.5-19.7-2-30.4-1.1-36.3-.9-36.3.7zm203 4c0 2.1 2.3 2.6 13.1 2.6 9.2 0 9.9-.1 9.9-2s-.7-2-11.5-2c-9.2 0-11.5.3-11.5 1.4zm387.8 16.3c1.2.2 3.2.2 4.5 0 1.2-.2.2-.4-2.3-.4s-3.5.2-2.2.4zm95 0c13.4.2 35 .2 48 0 13-.1 2.1-.2-24.3-.2s-37.1.1-23.7.2zM342 771.3c0 1.8 20.7 2.7 61.1 2.7 28.8 0 29.7-.1 30.2-2 .5-2 0-2-45.4-2-37.8 0-45.9.2-45.9 1.3zM655 783c0 .6-3.2 1-7.5 1-6.3 0-7.5.3-7.5 1.7 0 1.5 1.8 1.6 19.7 1 10.8-.4 22.7-.7 26.5-.7 12.6 0 6.9-1.6-9.9-2.8-20.2-1.5-21.3-1.5-21.3-.2zm-120 12.9c0 2 .5 2.1 8 2.1 6.4 0 8-.3 8-1.5 0-1-1-1.5-2.7-1.5-1.6 0-5.2-.3-8-.6-4.9-.6-5.3-.5-5.3 1.5zm-55.7 2.8c-6.9.2-12.3.8-12.3 1.3s1 1.2 2.3 1.4c9.8 2.1 13.8 2.6 20.3 2.6 7.1 0 7.5-.1 6.9-2s-.2-2 5.9-2c3.7 0 6.6-.4 6.6-1s-3.4-.9-8.7-.8c-4.9.1-14.3.4-21 .5zm-72.3 3.2c0 .7-1 1.6-2.2 2.1-1.8.7-1.1.9 3.3.9 3.1.1 8.4.4 11.8.7 8.6 1 7.8-1-1.1-2.5-4-.7-8.3-1.5-9.5-1.8-1.4-.3-2.3 0-2.3.6zM296.8 803c-.2.5-14 1.2-34 1.6-54.8 1.1-40.1 3.4 22 3.4 28.7 0 36.3-.3 36-1.3-.3-.7-4-1.6-9.5-2.3-5-.6-10.3-1.4-11.6-1.8-1.4-.3-2.7-.2-2.9.4zm458.6.4c-.5 1.3-2.4 1.6-11 1.6-5.7 0-10.4.4-10.4.8 0 1.5 19 2.2 36 1.5 8.8-.3 16-.9 16-1.3 0-.7-13.2-2.7-24.2-3.7-4.7-.4-5.9-.2-6.4 1.1zm-631.6.3c-2.5.3-3.8.9-3.8 1.9 0 1.1 2.4 1.4 13 1.4 7.2 0 13-.4 13-.8 0-.9-14.2-3.4-17-3-.8.1-3.2.3-5.2.5zm516.2 6.2c0 1.9.5 2.1 7.3 2.1 6.4 0 11-1.1 9.7-2.3-.3-.3-4.2-.8-8.7-1.2-8-.7-8.3-.6-8.3 1.4z"/>
  </g>
  <g fill="#834c42">
    <path d="M554.5 445.7c-2.2 1.4-4.2 2.9-4.5 3.3s-1.3.9-2.2 1.3c-1.5.5-2.7 3.7-1.4 3.7.7 0 14.9-8.9 16-10 2.2-2.2-4.1-.9-7.9 1.7zm21.5 8.8c-.7.9-9.2 8.2-18.9 16.3-9.6 8.1-20.9 17.6-25 21.1-4.2 3.5-10.6 8.8-14.2 11.8l-6.6 5.4 12.6 12.1c6.9 6.6 14.3 13.8 16.4 16l3.9 3.9 4.5-3.8c8.1-6.9 20-16.7 30-24.8 18.8-15.2 39.3-34.1 39.3-36.2 0-.9-2.1-1.3-7.4-1.3-4.1 0-7.7-.4-8-.9-.4-.5-2.4-1.2-4.5-1.6-4.6-.8-5.1-1.9-5.1-11.8V454h-3.4c-1.8 0-5.3-.3-7.7-.6-3.5-.5-4.8-.2-5.9 1.1zm90 99.2c-1.2 1.6-6.1 6.8-10.8 11.8-8.3 8.6-8.8 9.3-10.9 17.1-2.5 8.6-2.9 12.4-1.4 12.4.5 0 3.6 2.2 6.8 5 8.2 7 9.2 6.8 10.8-2.2.5-3.2 1.6-4.6 7.8-9.2 9-6.7 12.9-10.8 13-13.8.2-2.5-10.8-23.8-12.3-23.8-.5 0-1.8 1.2-3 2.7zm17.3 29.1c-3.4.5-8.3 6.7-8.3 10.5 0 1.8-.9 8.6-2 15.2s-2 13.7-2 15.7c0 3.7.1 3.8 3.8 3.8 2 .1 4.8.7 6.2 1.5 3.8 2.2 11.3 1.9 13.5-.5 1-1.1 2.4-2 3.2-2 1.5 0 5.5-2.1 6.4-3.3 1.4-1.9-.4-6.6-9.2-23.4-5-9.8-9.2-17.8-9.3-17.8-.1-.1-1.1.1-2.3.3zm-292.6 1.9c-1.4 1.3-.6 2.3 1.8 2.3 1.8 0 2.3-.4 1.9-1.5-.6-1.6-2.6-2-3.7-.8zm91.9 24.8c-4.7 3.6-9.2 6.5-10 6.5s-1.6.4-1.8.9c-.4 1-8.9 8-19.1 15.4-5.1 3.8-7.7 6.5-7.7 7.8s3.7 4.8 11.1 10.7c6.2 4.8 17.5 13.7 25.3 19.9 7.7 6.2 15 11.2 16.1 11.3 1.2 0 3.5-1.9 5.8-4.7l3.8-4.6-3.3-3.5c-1.8-1.9-9-7.9-16-13.4-8.8-6.8-12.8-10.5-12.8-11.9 0-3 8.6-15.1 19.9-28.2 5.6-6.4 10.1-11.9 10.1-12.2s-2.9-.5-6.4-.5c-6.3 0-6.5.1-15 6.5z"/>
    <path d="M650.2 629.2c.2 7.4-2 40.7-2.9 42.1-.2.4.3 1.4 1.1 2.3 2.2 2.2 2.1 2.5-2.4 5.8-2.5 1.9-4 3.8-4 5.2s-2.4 4.1-7.5 8.3c-9.3 7.7-9.9 10.1-2.5 10.1 4.8 0 5 .1 6.5 3.6.8 2 1.5 5.4 1.5 7.5 0 6.2-1.1 6.8 24.2-13.6 15.8-12.7 44.5-41.4 47.8-47.7l2.5-4.8-1.9-4.7c-1-2.7-2.3-6.2-2.9-8-.9-2.5-1.9-3.3-4.5-3.8-3-.6-3.9-.1-10 5.3-3.7 3.3-7.6 7-8.7 8.2-3.5 3.9-18.2 15-19.9 15-3 0-1.6-2.9 2.9-6.1 2.5-1.8 4.5-3.6 4.5-3.9 0-1.6-3.4-8.8-6.7-14.3-4.7-7.8-11-13.6-14.6-13.7h-2.8l.3 7.2z"/>
    <path d="M673 634.1c0 1.9 5.2 9.9 6.4 9.9 1.7 0 5.6-4.3 5.6-6.1s-6-4.9-9.5-4.9c-1.4 0-2.5.5-2.5 1.1zm-297 42.4c0 1.6.6 2.5 1.5 2.5s1.5-.9 1.5-2.5-.6-2.5-1.5-2.5-1.5.9-1.5 2.5zm136-.4c-.8.4-2.2 1-3 1.2-.9.3-2.8 2.7-4.3 5.4l-2.7 5 3.9 2.9c2.1 1.6 9.8 7.6 17 13.2 7.9 6.2 13.7 10.2 14.6 9.8 1.7-.6 5.5-7.8 5.5-10.3-.1-1.1-4.6-5.3-11.3-10.6-13.6-10.7-17.4-14.1-17.9-16-.2-.9-.8-1.2-1.8-.6zm35.5 34.1c-1.4 4.4-2.3 8.3-2.1 8.6.3.2 1.9 0 3.6-.6 1.6-.6 5.7-1.4 9-1.8s6.3-1.1 6.7-1.7c.7-1.1-6.1-7.5-11.4-10.7l-3.2-1.9-2.6 8.1zm27.5 8.6c0 1-1.3 3.9-3 6.5-3.5 5.5-3.7 6.8-1.2 9 1.9 1.8 4.2 2.3 4.2.9 0-.4 2.5-2 5.5-3.7 3-1.6 5.5-3.5 5.5-4.2s-1.9-3-4.1-5.1c-5.7-5.1-6.9-5.7-6.9-3.4zm163 75.7v6.5h18v-13h-18v6.5zm-53 8.5c0 1.7.7 2 5 2s5-.3 5-2-.7-2-5-2-5 .3-5 2zm162.7-1.4c-1.6 1.6-.6 3.4 1.9 3.4 1.9 0 2.5-.5 2.2-1.7-.3-1.9-2.9-2.9-4.1-1.7zm-324 3.2c-1.5 1.5-2.7 3.1-2.7 3.4 0 .4 1.4.9 3.1 1.3 3.6.8 4.9-.4 4.9-4.8 0-3.5-1.9-3.5-5.3.1z"/>
  </g>
</svg>
