<svg version="1.0" xmlns="http://www.w3.org/2000/svg"
 width="1024.000000pt" height="1024.000000pt" viewBox="0 0 1024.000000 1024.000000"
 preserveAspectRatio="xMidYMid meet">

<g transform="translate(0.000000,1024.000000) scale(0.100000,-0.100000)"
fill="#efefdb" stroke="none">
<path d="M0 5120 l0 -5120 5120 0 5120 0 0 5120 0 5120 -5120 0 -5120 0 0
-5120z m4274 2491 c60 -94 79 -159 84 -283 4 -99 1 -127 -17 -186 -11 -38 -28
-75 -36 -82 -12 -10 -14 -28 -10 -89 31 -437 39 -501 65 -501 15 0 18 17 23
168 4 137 10 186 32 272 46 179 122 316 244 444 58 60 199 166 222 166 20 0
43 -159 43 -305 0 -164 -7 -211 -61 -388 -30 -97 -44 -126 -80 -168 -72 -85
-132 -179 -114 -179 5 0 20 19 34 43 24 41 122 159 137 165 9 3 78 -159 87
-202 l6 -29 20 39 c46 91 173 209 283 262 59 30 180 62 229 62 31 0 30 -3 -16
-115 -36 -86 -36 -95 -1 -63 15 14 45 37 67 50 45 28 181 75 191 66 12 -12
-28 -135 -73 -226 -25 -52 -74 -130 -109 -175 -35 -44 -63 -81 -62 -83 2 -1
44 1 94 5 l91 6 107 100 c245 231 480 444 485 439 3 -3 -115 -125 -262 -272
l-268 -268 63 -13 c65 -13 118 -36 118 -50 0 -13 -120 -124 -173 -160 -26 -17
-80 -48 -121 -67 l-74 -35 -7 -52 c-4 -29 -14 -76 -21 -106 -16 -58 -13 -71 9
-50 7 8 67 48 132 89 72 46 148 104 194 150 42 41 116 111 166 155 49 44 174
160 278 259 103 98 191 175 195 172 3 -4 -98 -111 -226 -239 -230 -230 -232
-233 -232 -275 0 -38 2 -42 24 -42 20 0 43 -27 127 -147 57 -82 118 -168 136
-192 18 -24 33 -51 33 -60 0 -9 -20 -37 -45 -61 -25 -24 -45 -47 -45 -51 0 -4
74 -130 163 -281 90 -150 183 -307 207 -348 24 -41 45 -77 47 -79 2 -3 45 36
96 85 50 49 196 186 322 304 127 118 273 256 325 306 52 49 124 117 160 149
36 33 100 93 142 134 43 41 80 72 83 69 7 -6 -277 -291 -551 -553 -323 -309
-598 -584 -591 -591 4 -4 16 1 26 10 11 10 23 16 28 13 4 -3 35 -57 68 -121
33 -64 63 -116 67 -116 4 0 48 36 98 80 50 44 96 80 102 80 6 0 9 -2 7 -5 -2
-2 -48 -48 -101 -102 l-97 -99 99 -189 c55 -105 101 -194 103 -200 2 -5 22 5
45 23 61 48 63 39 4 -21 -51 -52 -53 -55 -46 -95 5 -29 11 -42 23 -42 9 0 21
-14 28 -32 6 -18 19 -54 29 -81 l19 -47 -25 -48 c-49 -93 -403 -428 -648 -612
l-46 -35 234 -6 c129 -3 298 -10 376 -14 l141 -7 5 26 c3 14 -1 35 -10 47 -16
23 -82 175 -82 189 0 4 35 8 78 8 42 0 109 3 149 7 l72 7 7 46 c4 25 4 94 1
154 -4 59 -3 108 1 108 4 0 37 -25 72 -55 36 -30 70 -55 77 -55 7 0 54 29 105
65 133 92 347 230 455 292 181 105 413 198 413 167 0 -5 -26 -40 -57 -79 -208
-258 -297 -490 -398 -1040 -3 -15 -25 -27 -85 -49 -44 -15 -80 -32 -80 -37 0
-5 115 -9 260 -9 143 0 260 4 260 8 0 5 -9 35 -20 67 -11 32 -20 59 -20 60 0
1 35 5 78 8 103 7 158 34 181 88 9 21 18 39 22 39 7 0 119 -175 119 -187 0 -5
-20 -22 -45 -37 -25 -16 -45 -33 -45 -37 0 -5 39 -9 87 -9 76 0 90 3 119 25
45 34 64 33 64 -5 l0 -30 213 0 c224 0 457 -14 520 -31 52 -14 51 -44 -2 -59
-180 -48 -299 -53 -1556 -57 -643 -2 -1185 -2 -1202 2 -18 3 -33 12 -33 19 0
21 -52 24 -390 18 -173 -2 -353 -5 -400 -6 -47 0 -158 3 -247 8 -151 8 -163 8
-169 -9 -7 -17 -31 -17 -443 -11 -459 7 -723 19 -806 36 -49 10 -55 9 -145
-34 -52 -24 -119 -52 -147 -62 -29 -10 -53 -22 -53 -26 0 -5 46 -8 103 -8 149
0 327 -12 327 -22 0 -4 -7 -8 -15 -8 -8 0 -15 -7 -15 -16 0 -9 6 -14 14 -11 7
3 103 31 212 62 l199 57 90 -22 c123 -30 125 -30 125 -39 0 -9 -142 -65 -257
-102 -66 -21 -94 -39 -60 -39 14 0 160 52 294 104 93 36 133 44 133 26 0 -14
104 -12 119 3 11 9 14 9 18 0 3 -9 32 -13 98 -13 66 0 95 4 98 13 4 10 7 9 18
0 7 -7 30 -13 52 -13 31 0 38 -3 35 -17 -3 -17 -19 -18 -211 -14 -115 2 -207
0 -207 -5 1 -5 18 -61 39 -124 l39 -115 81 -9 c56 -7 81 -13 81 -23 0 -10 -42
-13 -210 -13 -133 0 -210 -4 -210 -10 0 -6 -29 -10 -66 -10 -61 0 -65 -1 -59
-20 6 -19 2 -20 -67 -20 -106 0 -239 29 -423 92 -134 45 -125 36 -125 128 l0
80 -307 0 c-415 0 -623 9 -623 27 0 10 -22 13 -92 13 -51 0 -184 3 -295 7
-181 5 -203 4 -203 -10 0 -24 -180 -145 -319 -214 l-124 -61 64 -6 c35 -3 120
-8 189 -11 118 -6 274 -22 474 -48 56 -8 91 -17 94 -25 7 -23 -750 -11 -1180
18 -197 13 -358 27 -358 31 0 4 57 10 128 14 70 4 158 10 196 14 l68 6 -109
72 c-130 86 -290 165 -399 195 -78 22 -91 23 -756 26 -586 2 -678 5 -678 17 0
13 39 15 263 15 l262 0 -90 49 c-98 52 -108 67 -80 120 19 38 31 38 95 6 55
-28 157 -55 208 -55 37 0 37 -2 17 -60 -8 -23 -15 -46 -15 -51 0 -5 119 -9
265 -9 l265 0 0 50 c0 47 2 50 25 50 17 0 25 5 25 18 0 11 13 23 35 31 24 8
35 19 35 32 0 17 -8 19 -75 19 -60 0 -75 -3 -75 -15 0 -13 -36 -15 -264 -15
-145 0 -271 3 -280 6 -9 3 -16 12 -16 20 0 10 -15 14 -52 15 -79 1 -108 17
-33 18 l60 1 30 48 c16 26 33 60 38 76 8 26 11 28 45 22 119 -20 290 -16 353
9 13 5 17 -5 22 -61 4 -37 10 -71 15 -76 4 -4 76 -13 160 -18 l151 -11 111 92
c60 51 110 96 110 101 0 4 25 8 55 8 42 0 55 -3 55 -15 0 -8 6 -15 14 -15 8 0
37 -11 64 -25 28 -14 54 -25 60 -25 5 0 13 15 16 33 9 48 71 172 120 242 53
72 138 155 226 217 77 54 162 98 189 98 11 0 21 6 23 12 5 13 18 3 131 -98
l49 -44 -17 -51 c-25 -74 -16 -135 34 -232 24 -49 41 -96 41 -117 0 -36 21
-114 40 -149 8 -17 21 -21 57 -21 l46 0 -6 38 c-3 20 -9 52 -13 70 -6 32 -6
33 20 26 20 -5 26 -2 26 10 0 9 8 16 20 16 11 0 20 6 20 13 0 8 11 20 25 27
21 11 28 11 42 -1 34 -28 94 -49 141 -49 46 0 176 -24 220 -41 14 -5 22 -17
22 -32 0 -21 12 -28 113 -63 110 -38 114 -39 252 -38 123 0 151 3 230 28 84
25 233 86 349 142 65 31 72 30 80 -8 3 -18 14 -62 23 -97 l18 -63 93 4 c51 3
95 7 97 10 3 3 -6 29 -20 59 -56 123 -53 296 8 419 43 86 57 89 57 11 0 -48 3
-61 15 -61 12 0 15 16 15 80 0 44 2 80 4 80 2 0 33 -16 70 -35 37 -19 80 -35
95 -35 27 0 29 -3 35 -51 13 -100 85 -253 148 -318 l33 -34 5 66 c3 36 8 69
12 73 4 4 31 0 59 -9 28 -10 63 -17 78 -17 23 0 22 2 -14 20 -23 11 -56 33
-75 50 l-35 29 35 0 c19 0 53 -6 75 -14 21 -8 41 -13 42 -11 2 2 -13 16 -34
32 -21 15 -103 80 -183 143 -80 64 -175 139 -211 166 -114 86 -409 318 -523
412 l-109 90 -41 -23 c-69 -40 -73 -38 -203 119 -65 78 -134 161 -153 185 -18
23 -42 42 -52 42 -17 0 -19 7 -16 58 l3 57 43 3 c35 3 45 8 52 28 13 34 99
124 119 124 19 0 125 105 134 133 4 10 20 25 37 35 16 9 30 22 30 28 0 11
-157 38 -289 50 -83 7 -91 2 -91 -56 -1 -77 -40 -225 -83 -315 -49 -101 -138
-225 -216 -300 -58 -56 -60 -55 -86 28 -57 190 -7 398 125 520 57 53 169 117
204 117 9 0 16 5 16 10 0 13 -222 13 -313 0 -37 -6 -93 -21 -125 -34 l-57 -24
-51 -129 c-106 -270 -167 -372 -319 -531 -87 -92 -189 -171 -203 -158 -16 16
-8 318 11 406 36 167 138 340 260 442 131 109 251 173 439 235 104 33 118 41
118 61 0 28 -13 28 -119 1 -75 -19 -364 -124 -412 -149 -10 -6 -19 -21 -19
-33 0 -12 -11 -45 -24 -72 -24 -53 -93 -115 -213 -192 -65 -41 -192 -98 -201
-89 -10 11 19 115 49 176 36 71 102 140 161 169 24 11 93 33 153 49 91 24 223
69 330 113 11 4 -77 8 -201 8 -196 1 -223 -1 -235 -16 -46 -56 -425 -263 -482
-263 -13 0 2 158 23 230 41 140 157 294 284 379 165 110 434 202 553 188 53
-6 55 4 6 28 -79 37 -280 31 -448 -14 -78 -22 -81 -23 -110 -73 -67 -113 -282
-253 -476 -308 -95 -28 -309 -40 -309 -19 0 32 80 149 150 219 143 144 326
210 582 210 86 0 137 5 190 20 115 31 249 43 391 36 70 -4 127 -5 127 -2 0 3
-20 24 -45 47 -25 23 -45 48 -45 55 0 19 105 19 160 -1 45 -16 90 -20 90 -7
-1 20 -340 310 -403 343 -12 7 -45 13 -72 13 -72 1 -155 52 -206 128 -60 88
-55 97 43 77 87 -18 166 -66 200 -121 18 -30 54 -64 95 -93 77 -54 217 -168
327 -265 108 -97 126 -95 52 4 -41 55 -74 131 -62 143 3 3 40 -7 81 -22 42
-15 78 -25 81 -22 3 3 -41 30 -99 61 -112 60 -342 232 -342 256 0 23 134 49
255 50 204 0 344 -43 525 -165 85 -57 95 -62 95 -44 0 17 -152 233 -261 369
-55 69 -125 160 -157 202 -31 42 -62 77 -68 77 -50 3 -114 121 -122 224 -6 83
7 87 67 21 52 -55 91 -136 91 -187 0 -34 16 -57 143 -215 78 -97 164 -205 191
-240 26 -35 50 -61 52 -59 2 2 -25 60 -61 128 -76 145 -129 265 -146 332 -11
44 -13 47 -44 47 -31 0 -33 2 -55 73 -18 57 -24 103 -28 220 l-4 147 31 0 c31
0 31 0 31 55 0 41 4 55 14 55 30 0 196 -122 256 -188 109 -118 223 -311 261
-439 20 -71 33 -52 25 40 -3 45 -9 126 -13 181 -6 89 -9 103 -38 146 -58 86
-92 300 -66 407 18 70 62 163 77 163 8 0 25 -17 38 -39z m2381 -180 c9 -30
-15 -71 -42 -71 -20 0 -23 5 -23 35 0 48 52 77 65 36z m-1025 -43 c0 -7 -15
-49 -33 -93 -70 -172 -179 -290 -415 -450 -86 -59 -163 -109 -169 -112 -18 -7
-17 93 2 180 41 196 168 351 349 426 119 50 266 76 266 49z m-2735 -228 c292
-64 481 -231 655 -580 59 -118 107 -247 96 -257 -3 -4 -16 3 -29 14 -32 29
-53 39 -185 84 -333 115 -497 242 -615 476 -25 47 -64 171 -82 251 -7 32 -6
32 32 32 21 0 79 -9 128 -20z m3143 -256 c37 -26 24 -92 -15 -80 -11 4 -28 15
-37 25 -17 18 -17 21 -1 45 20 30 23 31 53 10z m-3603 -618 c103 -18 157 -37
280 -95 117 -56 185 -98 286 -179 90 -71 239 -211 239 -223 0 -20 -482 -1
-640 26 -192 32 -369 103 -508 202 -74 52 -212 184 -212 201 0 13 138 57 220
71 86 14 247 12 335 -3z m5333 -271 c18 -39 15 -55 -10 -55 -42 0 -53 14 -38
49 15 38 33 40 48 6z m-741 -351 c-7 -104 -43 -188 -108 -259 -45 -49 -131
-105 -161 -105 -14 0 -98 106 -98 124 0 4 11 6 25 6 94 0 195 136 195 261 l0
48 38 4 c20 2 55 4 76 5 l39 2 -6 -86z m-4656 64 c40 -13 89 -46 89 -59 0 -14
-118 -10 -149 5 -35 18 -55 42 -46 56 8 13 64 13 106 -2z m4475 -110 c-8 -42
-54 -108 -88 -128 -44 -24 -44 -3 -1 41 22 22 49 58 58 80 22 48 40 52 31 7z
m725 -858 c11 0 12 -30 1 -47 -13 -20 -52 -4 -52 21 0 28 10 38 28 31 7 -3 18
-5 23 -5z m-85 -397 c7 -10 14 -23 14 -29 0 -12 -118 -59 -127 -50 -9 8 68 96
85 96 8 0 21 -8 28 -17z m834 -204 c36 -23 77 -48 92 -57 16 -10 28 -19 28
-22 0 -3 -64 -37 -142 -75 -194 -95 -381 -210 -671 -412 -77 -54 -79 -54 -100
-37 -55 46 -117 109 -117 120 0 21 268 209 490 344 106 65 327 179 345 179 6
0 39 -18 75 -40z m-4383 -414 c3 -9 3 -18 0 -21 -10 -10 -47 7 -47 22 0 19 39
18 47 -1z m-477 -224 c0 -5 30 -48 66 -97 66 -87 67 -88 54 -123 -36 -101
-123 -172 -262 -216 -44 -14 -85 -25 -92 -25 -12 0 -126 163 -126 181 0 5 28
9 63 9 140 1 277 118 277 238 0 23 5 42 10 42 6 0 10 -4 10 -9z m330 -46 c0
-16 -6 -25 -15 -25 -9 0 -15 9 -15 25 0 16 6 25 15 25 9 0 15 -9 15 -25z m693
-47 c18 -24 18 -30 7 -57 -7 -17 -17 -31 -24 -31 -20 0 -196 61 -196 68 0 8
157 50 179 48 8 -1 23 -13 34 -28z m-1113 -34 c0 -19 -45 -63 -80 -79 -39 -18
-72 -13 -38 6 9 5 36 25 60 43 42 34 58 42 58 30z m-1827 -138 c31 -13 60 -26
63 -29 3 -2 0 -32 -7 -66 -9 -41 -18 -61 -28 -61 -24 0 -151 43 -151 51 0 5
11 29 25 55 14 26 25 53 25 60 0 19 5 18 73 -10z m2531 -44 c14 -21 40 -51 56
-67 17 -16 30 -33 30 -37 0 -13 -157 -85 -225 -103 -87 -23 -215 -32 -215 -14
0 14 177 189 191 189 5 0 29 16 55 35 25 19 54 35 63 35 10 0 30 -17 45 -38z
m320 -117 c25 -36 46 -71 46 -78 -1 -13 -212 -115 -316 -153 -143 -53 -352
-69 -466 -38 -81 23 -73 36 17 28 86 -8 94 2 50 54 -39 46 -33 52 49 52 130 0
205 22 391 114 94 47 173 85 177 85 3 1 27 -28 52 -64z m4236 -22 c-1 -23 -61
-63 -95 -63 -29 0 -14 25 28 46 46 23 67 28 67 17z m-462 -190 c2 -8 -6 -13
-22 -13 -25 0 -33 10 -19 24 10 10 36 3 41 -11z m962 -2 c0 -16 -10 -20 -61
-26 -71 -8 -88 -1 -33 14 22 6 46 15 54 21 24 15 40 12 40 -9z m-2680 -191 c0
-5 -7 -10 -15 -10 -8 0 -15 5 -15 10 0 6 7 10 15 10 8 0 15 -4 15 -10z m-350
-24 c74 -8 155 -19 180 -24 25 -6 78 -13 118 -17 l72 -7 0 -99 0 -99 63 0 c95
0 397 -23 397 -30 0 -14 -445 -21 -624 -11 -100 6 -256 14 -348 17 -93 3 -168
10 -168 15 0 5 23 9 50 9 65 0 64 14 -2 29 -73 17 -144 53 -140 71 2 8 6 35 9
61 9 75 12 77 90 55 188 -52 203 -54 408 -61 133 -5 205 -4 205 2 0 6 -55 13
-127 17 -71 4 -168 11 -218 17 -93 10 -225 45 -225 60 0 13 106 11 260 -5z
m2240 -64 c0 -18 18 -19 338 -25 185 -3 545 -3 800 0 426 6 462 5 462 -10 0
-16 -33 -17 -377 -18 -679 -3 -2978 3 -2982 7 -15 14 34 19 207 19 147 0 199
3 205 13 12 18 37 15 37 -5 0 -15 20 -16 233 -10 127 4 418 7 645 7 405 0 412
0 412 20 0 11 5 20 10 20 6 0 10 -8 10 -18z m-8250 -37 c0 -8 -9 -15 -20 -15
-11 0 -20 7 -20 15 0 8 9 15 20 15 11 0 20 -7 20 -15z m3073 -76 c12 -7 30
-21 41 -31 14 -15 26 -18 50 -13 64 13 78 11 99 -17 18 -24 18 -30 7 -58 -7
-17 -10 -33 -7 -36 3 -3 30 -8 61 -11 63 -7 76 -23 18 -23 -54 0 -355 29 -361
35 -2 3 8 5 22 5 l27 0 0 80 c0 83 4 89 43 69z m6049 -9 l86 0 7 -39 6 -38
106 -7 c241 -17 144 -42 -123 -33 -119 4 -183 10 -208 21 -34 14 -36 17 -36
62 l0 47 38 -7 c20 -3 76 -6 124 -6z m-2019 -56 c58 -10 44 -24 -25 -24 -49 0
-59 -3 -50 -12 8 -8 83 -16 227 -22 l215 -9 0 -67 0 -68 58 -5 c110 -10 242
-30 242 -37 0 -16 -348 -20 -515 -5 -93 8 -198 15 -232 15 l-63 0 -30 66 c-16
37 -30 72 -30 78 0 5 19 30 42 53 45 46 70 52 161 37z m575 -16 c3 -15 -4 -18
-42 -18 -40 0 -46 3 -46 21 0 18 5 20 42 17 31 -2 44 -8 46 -20z m-6210 -28
c23 -17 42 -35 42 -40 0 -6 -30 -10 -70 -10 -38 0 -70 2 -70 5 0 16 36 75 45
75 7 0 31 -14 53 -30z m4683 -44 c16 -19 43 -38 59 -41 29 -6 30 -8 30 -69 l0
-63 117 -7 c64 -3 119 -9 122 -12 17 -16 -42 -24 -189 -24 -182 0 -270 8 -270
23 0 5 -16 30 -36 54 -20 25 -33 50 -30 58 3 9 26 27 52 43 26 15 61 37 78 49
17 12 32 22 34 22 1 1 16 -14 33 -33z m-4971 -54 l0 -68 95 -13 c155 -22 117
-35 -77 -27 -144 5 -650 24 -710 25 -15 1 -18 11 -18 69 0 38 3 72 7 75 3 4
163 7 355 7 l348 0 0 -68z m2800 4 c0 -61 -9 -55 118 -77 87 -15 98 -35 15
-25 -32 3 -156 9 -275 13 l-218 6 0 54 c0 51 1 53 28 54 15 0 88 7 162 14 74
7 143 13 153 14 14 1 17 -8 17 -53z m4209 20 l22 -23 -53 -6 c-28 -4 -54 -4
-57 -2 -7 7 40 55 54 55 6 0 21 -11 34 -24z m-7911 -8 c3 -13 -3 -18 -22 -18
-20 0 -26 5 -26 21 0 15 5 20 22 17 13 -2 24 -11 26 -20z m6582 -88 c0 -17 -7
-20 -50 -20 -43 0 -50 3 -50 20 0 17 7 20 50 20 43 0 50 -3 50 -20z m1568 -3
c3 -12 -3 -17 -22 -17 -25 0 -35 18 -19 34 12 12 38 2 41 -17z m-3228 -14 c0
-44 -13 -56 -49 -48 -17 4 -31 9 -31 13 0 12 54 62 67 62 8 0 13 -11 13 -27z"/>
<path d="M5415 6355 c-5 -2 -29 -9 -52 -15 -26 -6 -43 -17 -43 -25 0 -8 1 -15
3 -15 6 0 132 52 136 56 5 5 -30 4 -44 -1z"/>
<path d="M5440 5955 c-83 -49 -147 -101 -137 -111 3 -3 31 15 62 40 31 25 67
46 80 46 13 0 25 7 29 15 3 8 17 20 31 27 23 11 34 28 17 28 -4 0 -41 -20 -82
-45z"/>
<path d="M4921 5877 c-13 -52 -26 -164 -18 -157 5 5 47 174 47 191 0 5 -4 9
-9 9 -5 0 -14 -19 -20 -43z"/>
<path d="M3440 5710 c0 -9 32 -30 46 -30 4 0 -1 9 -11 20 -19 21 -35 26 -35
10z"/>
<path d="M3530 5524 c0 -13 7 -15 31 -10 17 3 60 6 95 6 36 0 64 4 64 10 0 6
-38 10 -95 10 -81 0 -95 -2 -95 -16z"/>
<path d="M2844 5155 c-20 -25 -35 -47 -33 -50 8 -7 119 70 119 83 0 6 -11 12
-24 12 -17 0 -36 -14 -62 -45z"/>
<path d="M6541 4033 c2 -14 89 -86 89 -73 0 15 -64 80 -79 80 -6 0 -11 -3 -10
-7z"/>
<path d="M6930 3935 c-19 -19 -29 -35 -24 -35 6 0 25 16 44 35 19 19 29 35 24
35 -6 0 -25 -16 -44 -35z"/>
<path d="M5198 3582 c-106 -97 -119 -112 -95 -112 14 0 214 197 206 204 -2 2
-52 -39 -111 -92z"/>
<path d="M6437 3452 c-26 -20 -43 -38 -37 -40 11 -4 99 58 100 71 0 13 -15 6
-63 -31z"/>
<path d="M2603 3003 c-7 -2 -13 -12 -13 -22 0 -14 10 -17 55 -17 60 0 65 4 37
29 -18 16 -54 21 -79 10z"/>
<path d="M6771 2920 c-24 -5 -55 -17 -69 -26 -39 -25 -11 -34 116 -34 l112 0
0 30 c0 24 -4 30 -22 30 -13 0 -39 2 -58 4 -19 3 -55 1 -79 -4z"/>
<path d="M2790 2700 c0 -5 -18 -21 -39 -35 -29 -19 -37 -31 -34 -46 7 -27 24
-24 83 16 60 40 63 41 56 18 -2 -10 -7 -32 -11 -50 l-6 -31 83 5 c46 3 85 10
86 14 6 15 22 10 22 -7 0 -12 6 -15 23 -10 12 4 75 9 140 13 64 3 117 9 117
12 0 3 -62 30 -138 59 l-137 52 -122 0 c-74 0 -123 -4 -123 -10z"/>
</g>

<g transform="translate(0.000000,1024.000000) scale(0.100000,-0.100000)"
fill="#db7d59" stroke="none">
<path d="M5832 5954 c-77 -27 -248 -136 -222 -142 8 -1 67 27 130 63 76 43
126 65 148 65 22 0 32 5 32 15 0 19 -32 19 -88 -1z"/>
<path d="M6815 5611 c-9 -22 -36 -58 -58 -80 -43 -44 -43 -65 1 -41 34 20 80
86 88 128 9 45 -9 41 -31 -7z"/>
<path d="M5007 5062 c-99 -81 -191 -153 -522 -404 -220 -167 -491 -343 -572
-371 -63 -22 -75 2 111 -222 94 -113 143 -165 157 -165 27 0 75 26 113 61 17
16 123 94 236 172 113 78 261 186 330 240 69 53 167 130 219 169 180 139 351
282 351 292 0 14 -305 306 -319 306 -5 0 -52 -35 -104 -78z m-457 -612 c0 -13
-7 -20 -20 -20 -13 0 -20 7 -20 20 0 13 7 20 20 20 13 0 20 -7 20 -20z"/>
<path d="M7527 4763 c-4 -3 -7 -17 -7 -30 0 -33 24 -24 28 10 3 26 -7 35 -21
20z"/>
<path d="M4185 4690 c-10 -11 -16 -23 -13 -26 7 -6 48 27 48 38 0 14 -17 8
-35 -12z"/>
<path d="M5528 4645 c-296 -257 -453 -405 -561 -529 -135 -156 -227 -284 -227
-315 0 -14 38 -50 128 -119 70 -55 140 -114 156 -131 17 -17 35 -31 41 -31 7
0 58 43 114 96 56 52 108 94 114 91 33 -10 15 -45 -68 -127 -47 -46 -85 -93
-85 -102 0 -10 17 -33 38 -52 52 -47 254 -206 261 -206 4 0 31 32 60 71 l53
72 -4 176 -5 176 35 83 35 84 -6 186 c-4 103 -10 224 -13 270 -10 123 11 102
24 -25 7 -60 14 -162 18 -228 8 -169 13 -185 46 -152 7 7 45 34 83 59 88 58
295 234 295 251 0 14 -446 440 -466 445 -6 2 -36 -18 -66 -43z"/>
<path d="M3971 4484 c-52 -56 -63 -84 -36 -84 8 0 15 4 15 8 0 4 23 33 50 64
28 31 50 59 50 62 0 20 -35 -2 -79 -50z"/>
<path d="M8120 4142 c-230 -116 -710 -430 -710 -466 0 -11 62 -74 117 -120 21
-17 23 -17 100 37 290 202 477 317 671 412 78 38 142 72 142 75 0 3 -12 12
-28 22 -15 9 -56 34 -92 57 -36 22 -69 40 -75 40 -5 0 -62 -26 -125 -57z
m-390 -384 c0 -19 -31 -48 -52 -48 -27 0 -22 27 10 44 33 19 42 19 42 4z"/>
<path d="M6234 4093 c3 -21 6 -56 6 -78 l0 -40 123 -29 c67 -16 127 -31 133
-33 13 -5 8 99 -8 139 -5 14 -22 31 -36 37 -36 15 -160 41 -196 41 -28 0 -28
-1 -22 -37z"/>
<path d="M6204 3875 c-20 -30 -42 -55 -48 -55 -6 0 -47 7 -91 15 -72 14 -318
45 -355 45 -8 0 -21 -4 -28 -9 -24 -15 -82 -331 -82 -444 0 -74 -6 -91 -57
-153 -40 -50 -41 -59 -5 -78 15 -8 49 -35 76 -60 41 -38 57 -46 88 -46 21 0
38 -4 38 -9 0 -5 8 -12 18 -15 9 -3 37 -26 62 -51 25 -24 49 -44 53 -45 14 0
379 262 467 336 90 76 106 111 45 101 -19 -3 -35 -2 -35 2 0 4 27 30 60 57 32
27 61 56 64 64 8 22 28 341 22 347 -4 5 -232 53 -248 53 -4 0 -24 -25 -44 -55z"/>
<path d="M7397 3508 c5 -107 3 -134 -16 -201 -52 -189 -164 -327 -332 -409
-38 -18 -69 -39 -69 -46 0 -7 7 -29 15 -49 19 -45 19 -63 -1 -63 -9 0 -25 23
-41 60 l-26 60 -100 0 -100 0 6 -52 c10 -78 16 -81 187 -75 166 5 179 9 302
112 170 140 285 363 313 610 l6 61 -67 57 c-38 31 -72 57 -76 57 -4 0 -4 -55
-1 -122z"/>
<path d="M2443 3476 c-131 -70 -267 -189 -341 -298 -42 -61 -100 -183 -108
-225 -3 -18 -11 -33 -16 -33 -6 0 -32 11 -60 25 -27 14 -54 25 -60 25 -6 0
-38 -24 -72 -53 -34 -29 -82 -68 -108 -87 -26 -19 -47 -37 -47 -40 0 -3 75
-40 168 -83 256 -118 376 -150 566 -150 102 0 133 4 210 27 91 28 151 57 195
96 17 15 21 23 12 27 -7 2 -18 10 -25 16 -6 7 -34 18 -62 25 -27 7 -68 22 -91
33 -38 18 -44 18 -77 4 -42 -17 -110 -20 -138 -5 -32 18 -23 55 24 95 61 53
197 135 224 135 28 0 28 5 -2 109 -28 96 -31 157 -10 185 19 25 19 52 1 59 -7
3 -26 37 -41 76 -25 63 -31 71 -54 71 -14 0 -54 -15 -88 -34z"/>
<path d="M3312 3364 c-24 -18 -51 -38 -60 -43 -9 -5 -14 -13 -10 -17 13 -12
88 28 109 57 36 50 22 52 -39 3z"/>
<path d="M4721 3337 c-25 -31 -60 -128 -70 -198 -16 -101 -1 -202 43 -296 32
-67 37 -73 76 -83 66 -18 71 -14 95 78 12 45 25 85 28 88 3 4 -12 30 -33 58
-72 95 -110 205 -110 317 0 50 -8 60 -29 36z"/>
<path d="M6100 3079 c-96 -71 -179 -130 -185 -132 -13 -5 7 -42 51 -91 33 -39
35 -39 73 -28 21 7 54 12 74 12 31 0 36 3 39 27 2 20 15 33 58 56 30 16 85 52
123 79 65 48 67 51 67 93 0 23 -7 59 -15 79 -15 34 -17 36 -63 35 -44 -1 -58
-9 -222 -130z"/>
<path d="M3811 3092 c-50 -48 -91 -93 -91 -100 0 -14 107 -17 127 -4 10 6 73
167 73 186 0 17 -26 -2 -109 -82z"/>
<path d="M4165 3074 c-186 -92 -261 -114 -391 -114 -82 0 -88 -6 -49 -52 44
-52 36 -62 -50 -54 -90 8 -98 -5 -17 -28 114 -31 323 -15 466 38 104 38 315
140 316 153 0 14 -89 143 -98 142 -4 0 -83 -38 -177 -85z"/>
<path d="M8563 3056 c-42 -21 -57 -46 -28 -46 20 0 78 29 87 44 21 32 1 32
-59 2z"/>
<path d="M3018 3006 c-30 -23 -20 -33 47 -50 112 -28 144 -15 56 23 -28 11
-53 26 -56 31 -8 14 -26 12 -47 -4z"/>
<path d="M5338 2962 c-10 -2 -24 -23 -34 -50 -9 -26 -27 -71 -40 -100 -28 -63
-23 -67 62 -55 l59 8 -2 40 c-1 22 -7 67 -15 100 -10 47 -17 60 -30 57z"/>
<path d="M764 2935 c-9 -34 16 -61 86 -93 45 -21 75 -26 163 -30 99 -4 107 -3
107 14 0 11 3 42 6 70 l7 52 -119 -2 c-66 0 -147 3 -181 7 -61 8 -62 8 -69
-18z"/>
<path d="M2914 2918 c4 -18 11 -54 15 -79 4 -25 17 -57 29 -69 12 -13 22 -32
22 -42 0 -13 8 -18 29 -18 31 0 294 -98 299 -112 2 -4 15 -8 30 -8 14 0 63 -7
110 -16 46 -8 86 -14 88 -11 5 5 -61 236 -79 274 -8 19 -18 23 -56 23 -119 0
-366 42 -448 76 -45 19 -46 18 -39 -18z"/>
<path d="M475 2749 c-28 -53 -18 -68 80 -120 95 -51 115 -57 115 -36 0 7 16
32 36 55 19 23 33 46 30 51 -3 5 -25 12 -49 15 -24 4 -72 20 -106 36 -35 17
-69 30 -77 30 -7 0 -21 -14 -29 -31z"/>
<path d="M1310 2645 c0 -30 3 -35 24 -35 17 0 26 7 30 25 8 33 1 45 -30 45
-21 0 -24 -5 -24 -35z"/>
<path d="M5840 2671 c0 -15 132 -50 225 -60 50 -6 147 -13 218 -17 70 -4 127
-11 127 -16 0 -5 12 -8 28 -6 19 2 28 9 30 24 3 20 -3 22 -70 29 -40 4 -93 11
-118 17 -118 26 -440 47 -440 29z"/>
<path d="M4770 2619 c-236 -69 -300 -89 -300 -98 0 -12 190 -71 230 -71 54 0
440 133 440 151 0 5 -12 11 -27 15 -16 3 -61 15 -100 25 -40 11 -81 18 -90 18
-10 -1 -79 -19 -153 -40z"/>
<path d="M5717 2633 c-15 -54 -17 -111 -4 -121 21 -18 196 -72 232 -72 l33 0
4 74 3 75 -35 6 c-19 3 -70 17 -113 31 -93 29 -114 30 -120 7z"/>
<path d="M8320 2600 c0 -11 5 -20 10 -20 6 0 10 9 10 20 0 11 -4 20 -10 20 -5
0 -10 -9 -10 -20z"/>
<path d="M3120 2420 l0 -80 35 0 c31 0 35 3 35 28 0 15 3 43 6 64 6 33 4 38
-24 52 -17 9 -36 16 -42 16 -6 0 -10 -31 -10 -80z"/>
<path d="M4350 2421 c0 -67 3 -82 18 -90 30 -16 263 -91 282 -91 16 0 19 11
22 85 3 73 1 85 -13 85 -9 0 -70 17 -135 39 -65 21 -131 42 -146 45 l-28 6 0
-79z"/>
<path d="M9050 2451 c0 -42 11 -51 61 -51 27 0 29 3 29 39 0 35 -3 39 -31 45
-55 11 -59 9 -59 -33z"/>
<path d="M7090 2415 c0 -12 14 -15 70 -15 75 0 94 13 33 24 -66 10 -103 7
-103 -9z"/>
<path d="M7680 2411 c0 -18 6 -21 46 -21 38 0 45 3 42 18 -2 12 -15 18 -46 20
-37 3 -42 1 -42 -17z"/>
<path d="M7136 2331 c-3 -24 -6 -57 -6 -72 0 -29 0 -29 64 -29 34 0 91 3 125
6 l61 7 0 58 c0 69 4 67 -141 71 l-97 3 -6 -44z"/>
<path d="M567 2343 c-4 -3 -7 -30 -7 -60 l0 -53 160 0 160 0 0 60 0 60 -153 0
c-85 0 -157 -3 -160 -7z"/>
<path d="M6120 2312 c-89 -52 -91 -59 -45 -118 22 -27 40 -50 40 -51 1 -1 31
7 68 18 62 18 67 22 67 47 0 16 -4 32 -9 38 -5 5 -20 30 -33 56 l-24 47 -64
-37z"/>
<path d="M3900 2325 c-74 -7 -147 -14 -162 -14 -23 -1 -28 -6 -28 -26 l0 -25
128 0 c70 0 151 3 180 6 51 7 52 7 52 40 0 26 -4 34 -17 33 -10 -1 -79 -7
-153 -14z"/>
<path d="M320 2301 c0 -16 6 -21 26 -21 33 0 30 33 -4 38 -17 3 -22 -2 -22
-17z"/>
</g>

<g transform="translate(0.000000,1024.000000) scale(0.100000,-0.100000)"
fill="#674544" stroke="none">
<path d="M5985 6894 c-16 -24 -16 -27 1 -45 9 -10 26 -21 37 -25 39 -12 52 54
15 80 -30 21 -33 20 -53 -10z"/>
<path d="M6432 6557 c-12 -13 -19 -27 -15 -30 7 -8 53 31 53 45 0 15 -16 8
-38 -15z"/>
<path d="M6028 5982 c-10 -20 -67 -89 -127 -153 l-110 -117 31 -6 c17 -3 48
-6 69 -6 l39 0 0 -67 c0 -98 5 -110 48 -118 21 -4 42 -10 47 -15 13 -11 165
-15 188 -5 27 12 117 108 117 126 0 9 -15 36 -33 60 -18 24 -79 110 -136 192
-56 81 -106 147 -109 147 -4 0 -15 -17 -24 -38z"/>
<path d="M6918 5743 l-38 -4 0 -48 c0 -125 -101 -261 -195 -261 -14 0 -25 -2
-25 -6 0 -18 84 -124 98 -124 30 0 116 56 161 105 65 71 101 155 108 259 l6
86 -39 -2 c-21 -1 -56 -3 -76 -5z"/>
<path d="M6246 5352 l-78 -3 -195 -172 c-198 -175 -281 -245 -433 -364 -47
-37 -114 -92 -150 -123 -64 -55 -196 -162 -315 -254 -70 -55 -319 -245 -346
-265 -24 -17 -27 -91 -4 -91 8 0 54 29 101 65 85 64 87 65 151 65 l64 0 203
183 c269 242 336 299 351 295 19 -5 465 -431 465 -445 0 -17 -210 -195 -297
-251 -70 -45 -87 -62 -60 -62 43 1 202 115 343 247 l52 48 22 115 c12 63 26
132 31 152 10 41 -8 32 214 92 164 45 161 43 194 95 17 27 41 57 52 67 43 38
42 59 -3 137 -70 122 -261 441 -272 457 -9 12 -29 14 -90 12z"/>
<path d="M7548 4735 c-6 -29 10 -45 23 -24 13 21 11 49 -5 49 -7 0 -16 -11
-18 -25z"/>
<path d="M5593 4338 c4 -46 7 -109 7 -140 0 -45 3 -58 15 -58 19 0 19 28 3
173 -13 127 -34 148 -25 25z"/>
<path d="M7405 4334 c-20 -25 -35 -47 -32 -50 9 -9 127 38 127 50 -1 18 -26
46 -42 46 -9 0 -32 -20 -53 -46z"/>
<path d="M6320 4225 c-91 -91 -93 -95 -65 -95 37 0 160 -26 197 -41 14 -6 32
-24 38 -40 8 -17 20 -29 31 -29 15 0 19 8 19 38 0 21 11 56 25 81 30 51 30 51
8 51 -10 0 -44 23 -76 50 -32 28 -62 50 -67 50 -5 0 -10 7 -12 15 -2 10 -35
-17 -98 -80z"/>
<path d="M8455 4043 c-38 -10 -240 -105 -330 -156 -121 -69 -319 -195 -435
-278 -52 -37 -107 -73 -122 -79 -23 -11 -27 -20 -33 -74 -31 -266 -144 -478
-345 -639 l-35 -29 65 5 c76 6 269 67 485 155 189 77 310 121 354 130 l35 8
24 114 c62 302 178 559 345 765 31 39 57 73 57 78 0 8 -33 8 -65 0z"/>
<path d="M3440 3488 c0 -120 -137 -237 -277 -238 -35 0 -63 -4 -63 -9 0 -18
114 -181 126 -181 7 0 48 11 92 25 139 44 226 115 262 216 13 35 12 36 -54
123 -36 49 -66 92 -66 97 0 5 -4 9 -10 9 -5 0 -10 -19 -10 -42z"/>
<path d="M4378 3442 c-47 -13 -58 -20 -58 -37 0 -17 13 -25 68 -43 38 -12 73
-22 79 -22 6 0 16 14 23 31 11 27 11 33 -7 57 -24 33 -32 34 -105 14z"/>
<path d="M7250 3308 c-14 -5 -54 -7 -92 -4 -39 4 -68 2 -68 -3 0 -18 71 -177
90 -201 27 -36 46 -20 98 79 48 94 55 141 20 140 -13 0 -34 -5 -48 -11z"/>
<path d="M1470 3266 c0 -7 -11 -34 -25 -60 -14 -26 -25 -50 -25 -55 0 -8 127
-51 151 -51 10 0 19 20 28 61 7 34 10 64 7 66 -7 7 -118 53 -128 53 -5 0 -8
-6 -8 -14z"/>
<path d="M6070 3105 c-102 -74 -191 -134 -197 -135 -7 0 -13 -4 -13 -8 0 -4
-25 -21 -55 -37 -30 -17 -55 -37 -55 -45 0 -9 22 -37 48 -63 39 -38 54 -47 84
-47 45 0 108 26 108 44 0 8 -18 36 -40 62 -46 56 -48 64 -17 83 12 7 93 65
180 128 110 80 157 120 157 134 0 10 -3 19 -7 18 -5 0 -91 -61 -193 -134z"/>
<path d="M5176 3044 c-3 -9 -6 -44 -6 -79 0 -59 2 -65 29 -84 40 -29 48 -27
61 17 20 62 49 100 86 114 47 17 43 31 -9 23 -28 -4 -58 -1 -87 9 -57 20 -66
20 -74 0z"/>
<path d="M1475 2675 l-109 -95 -105 -2 -106 -2 100 -3 c54 -2 102 -7 105 -12
3 -4 43 -13 90 -20 162 -24 321 -92 513 -220 l105 -71 160 0 c88 0 162 4 164
8 2 5 55 34 118 65 63 30 161 87 217 126 l102 71 11 58 c6 31 14 65 16 75 7
23 -1 22 -39 -8 -94 -71 -289 -125 -454 -125 -183 0 -298 33 -605 176 -88 41
-163 74 -167 74 -4 0 -56 -43 -116 -95z"/>
<path d="M708 2652 c-51 -64 -49 -72 15 -72 l53 0 17 53 c22 69 22 67 -15 67
-27 -1 -40 -10 -70 -48z"/>
<path d="M6420 2690 c0 -5 7 -10 15 -10 8 0 15 5 15 10 0 6 -7 10 -15 10 -8 0
-15 -4 -15 -10z"/>
<path d="M5980 2505 l0 -75 245 0 245 0 0 73 0 72 -245 3 -245 3 0 -76z"/>
<path d="M6713 2573 c15 -2 39 -2 55 0 15 2 2 4 -28 4 -30 0 -43 -2 -27 -4z"/>
<path d="M9140 2440 l0 -40 65 0 65 0 0 40 0 40 -65 0 -65 0 0 -40z"/>
<path d="M9055 2400 c3 -5 8 -10 11 -10 2 0 4 5 4 10 0 6 -5 10 -11 10 -5 0
-7 -4 -4 -10z"/>
<path d="M880 2285 l0 -65 195 0 195 0 0 65 0 65 -195 0 -195 0 0 -65z"/>
<path d="M3105 2329 c55 -11 75 -11 75 1 0 6 -25 9 -57 9 -57 -1 -58 -1 -18
-10z"/>
<path d="M3710 2240 c0 -19 7 -20 90 -20 83 0 90 1 90 20 0 19 -7 20 -90 20
-83 0 -90 -1 -90 -20z"/>
</g>

<g transform="translate(0.000000,1024.000000) scale(0.100000,-0.100000)"
fill="#ffffed" stroke="none">
<path d="M3662 7083 c4 -117 10 -163 28 -220 22 -68 25 -73 52 -73 15 0 28 4
28 8 0 4 -9 48 -20 98 -11 49 -23 144 -27 212 l-6 122 -30 0 -29 0 4 -147z"/>
<path d="M4355 6428 c12 -72 24 -79 25 -15 0 45 -3 57 -16 57 -13 0 -15 -7 -9
-42z"/>
<path d="M5235 6288 c-87 -46 -213 -177 -259 -269 -20 -39 -36 -78 -36 -85 0
-30 17 -11 52 59 55 111 148 204 281 281 45 27 60 46 35 46 -7 0 -40 -15 -73
-32z"/>
<path d="M5960 6068 c-25 -19 -62 -47 -82 -62 -49 -35 -48 -48 2 -40 73 12 47
-37 -91 -171 -88 -85 -466 -406 -714 -607 -39 -31 -113 -91 -165 -134 -85 -69
-191 -151 -520 -399 -133 -100 -333 -233 -394 -261 -54 -25 -96 -31 -96 -13 0
6 -16 9 -37 7 l-38 -3 -3 -57 c-3 -56 -2 -58 23 -58 46 0 139 45 291 142 233
148 789 574 1160 888 49 42 172 145 274 230 314 262 526 490 456 490 -10 0
-16 13 -18 41 l-3 41 -45 -34z"/>
<path d="M3393 5511 c-142 -35 -329 -140 -446 -251 -54 -51 -59 -59 -39 -60
14 0 49 22 88 55 69 58 171 122 260 161 70 31 231 84 255 84 11 0 19 7 19 15
0 20 -44 19 -137 -4z"/>
<path d="M3603 5083 c-15 -3 -23 -12 -23 -25 0 -18 4 -20 33 -14 17 4 52 9 77
12 69 9 80 16 35 25 -43 8 -86 9 -122 2z"/>
<path d="M6538 4599 c-85 -85 -99 -105 -108 -146 -6 -27 -13 -56 -16 -67 -4
-10 -56 -71 -116 -135 l-110 -116 7 -60 c9 -86 15 -105 33 -105 13 0 14 12 9
83 l-7 83 94 93 c93 93 93 93 117 179 24 85 26 89 114 180 50 51 92 97 93 103
9 23 -20 0 -110 -92z"/>
<path d="M6162 3899 l-42 -40 -141 30 c-77 17 -162 31 -188 31 -43 0 -141 -32
-141 -46 0 -3 -13 -73 -30 -156 -22 -108 -30 -179 -30 -252 l0 -102 -44 -60
c-56 -78 -69 -104 -95 -190 l-21 -71 -59 -22 c-68 -25 -77 -36 -125 -160 -39
-98 -43 -115 -23 -109 14 5 55 83 79 153 18 52 24 57 118 90 45 16 211 57 283
69 20 4 37 11 37 16 0 6 -17 10 -37 10 -38 0 -189 -23 -230 -36 -13 -3 -23 -4
-23 -1 0 3 11 42 25 86 16 51 39 97 64 128 56 71 61 85 61 160 0 113 58 429
82 444 7 5 20 9 28 9 37 0 283 -31 355 -45 44 -8 85 -15 91 -15 10 0 84 101
84 115 0 18 -42 -1 -78 -36z"/>
<path d="M7320 3293 c0 -30 -47 -136 -81 -184 -11 -16 -29 -29 -40 -29 -12 0
-19 -7 -19 -20 0 -10 -12 -31 -27 -45 -39 -36 -160 -95 -194 -95 -26 0 -29 -3
-29 -35 0 -45 44 -145 64 -145 20 0 20 18 1 63 -8 20 -15 42 -15 49 0 7 31 28
69 46 141 69 257 195 310 338 28 74 27 84 -9 84 -26 0 -30 -4 -30 -27z"/>
<path d="M4763 3188 c10 -73 121 -267 142 -247 3 4 -11 33 -31 65 -37 58 -83
172 -84 207 0 9 -7 17 -16 17 -14 0 -16 -8 -11 -42z"/>
<path d="M1730 2991 c0 -10 -205 -181 -238 -198 -13 -7 -33 -13 -43 -13 -12 0
-19 -7 -19 -19 0 -13 -12 -24 -36 -33 -33 -12 -35 -15 -31 -45 8 -48 -2 -73
-29 -73 -15 0 -24 -6 -24 -15 0 -10 10 -15 28 -15 21 0 55 23 137 95 60 52
112 95 116 95 4 0 79 -33 167 -74 307 -143 422 -176 605 -176 163 0 357 50
357 91 0 24 1 24 -80 -5 -37 -14 -103 -32 -146 -41 -121 -26 -289 -10 -462 44
-65 20 -401 172 -401 181 0 3 21 21 47 40 92 68 162 133 162 151 0 16 -8 19
-55 19 -30 0 -55 -4 -55 -9z"/>
<path d="M2495 2936 c-81 -55 -133 -102 -123 -111 3 -3 47 22 98 55 50 34 98
64 106 67 14 5 20 43 7 43 -5 0 -44 -25 -88 -54z"/>
<path d="M2960 2952 c0 -20 28 -32 135 -57 50 -11 257 -35 307 -35 45 0 48 2
48 25 0 30 -13 36 -120 59 -90 19 -157 21 -162 4 -4 -10 -17 -10 -64 0 -32 8
-78 16 -101 19 -39 5 -43 3 -43 -15z"/>
<path d="M4395 2546 c-82 -16 -86 -38 -9 -55 31 -7 101 -28 156 -47 115 -40
138 -41 212 -13 53 21 81 49 34 34 -69 -21 -117 -17 -217 15 -100 32 -116 42
-86 54 23 8 18 26 -7 25 -13 -1 -50 -7 -83 -13z"/>
</g>

<g transform="translate(0.000000,1024.000000) scale(0.100000,-0.100000)"
fill="#30745c" stroke="none">
<path d="M4853 7508 c-16 -8 -23 -20 -23 -41 0 -18 -31 -94 -74 -181 -117
-238 -163 -390 -187 -623 -13 -121 -14 -123 -38 -123 -14 0 -49 19 -82 45 -32
25 -60 45 -63 45 -3 0 -6 -62 -6 -137 -1 -145 -8 -155 -31 -40 -8 41 -18 67
-26 67 -15 0 -20 -19 -28 -115 -10 -115 -10 -115 -66 -115 l-49 0 0 -45 0 -45
-64 0 -64 0 -5 -37 c-2 -21 0 -42 4 -47 17 -19 10 -38 -11 -31 -16 5 -20 2
-20 -14 0 -19 -6 -21 -55 -21 -48 0 -55 -3 -55 -19 0 -24 -13 -28 -122 -37
l-87 -6 -88 47 c-48 26 -113 64 -143 85 -97 65 -205 120 -238 120 -18 0 -32
-4 -32 -9 0 -19 223 -179 340 -244 69 -38 143 -83 165 -100 64 -49 255 -240
255 -254 0 -51 -306 42 -395 121 -32 28 -45 32 -45 16 0 -5 -7 -10 -15 -10 -8
0 -15 -4 -15 -10 0 -5 -11 -10 -25 -10 -33 0 -31 -9 7 -39 21 -17 42 -24 67
-24 25 1 67 -14 136 -47 55 -27 136 -59 180 -70 152 -41 330 -102 424 -146
129 -61 131 -60 131 26 0 90 16 92 63 8 51 -91 91 -144 208 -278 77 -87 110
-119 128 -119 24 -1 24 0 18 67 -4 37 -7 77 -7 90 0 12 -6 22 -12 23 -14 0
-78 96 -160 237 -68 117 -138 219 -192 278 -36 41 -46 59 -45 85 1 49 33 133
51 137 9 2 32 -11 51 -27 19 -17 40 -31 46 -31 8 0 11 45 11 145 0 122 2 145
15 145 12 0 15 14 15 68 0 116 60 246 178 385 42 49 54 74 85 175 54 176 61
223 61 387 0 108 -5 172 -18 228 -9 42 -20 77 -24 76 -4 0 -17 -5 -29 -11z"/>
<path d="M5555 7395 c-5 -2 -22 -6 -37 -9 -18 -4 -28 -13 -28 -24 0 -10 -21
-30 -52 -49 -110 -66 -321 -308 -386 -440 -15 -29 -32 -53 -39 -53 -9 0 -13
-15 -13 -46 0 -33 4 -45 13 -41 6 3 83 53 169 112 236 160 345 278 415 450 18
44 33 86 33 93 0 11 -49 16 -75 7z"/>
<path d="M4301 7318 c-21 -43 -35 -90 -43 -148 -6 -47 -16 -88 -22 -92 -17
-11 12 -36 37 -31 36 9 46 22 67 90 14 45 20 93 20 154 0 110 -13 116 -59 27z"/>
<path d="M2740 7136 c0 -29 51 -189 77 -239 90 -180 219 -304 408 -394 137
-65 415 -159 415 -141 0 16 -29 88 -73 181 l-51 107 -49 0 c-49 0 -51 1 -148
94 -99 95 -347 286 -472 364 -70 43 -107 53 -107 28z"/>
<path d="M3452 6963 c4 -48 14 -86 34 -127 30 -61 83 -112 91 -88 3 6 11 12
19 12 22 0 17 68 -10 127 -27 58 -101 143 -124 143 -12 0 -14 -12 -10 -67z"/>
<path d="M5376 6808 c-31 -7 -50 -17 -53 -27 -2 -10 -28 -31 -56 -48 -29 -17
-80 -56 -114 -87 -51 -47 -67 -56 -98 -56 -41 0 -63 -20 -101 -93 l-21 -40 -6
29 c-10 53 -79 205 -91 201 -6 -2 -14 -19 -17 -38 -3 -19 -11 -46 -17 -61 -20
-49 -61 -230 -76 -333 -8 -55 -15 -156 -16 -225 -1 -112 2 -133 26 -202 24
-70 30 -78 53 -78 24 0 28 8 56 92 63 191 56 178 95 178 30 0 38 6 56 38 32
55 138 166 189 199 29 18 45 35 45 48 0 11 14 40 30 65 17 25 56 88 87 140 31
52 60 97 65 98 4 2 8 9 8 16 0 6 13 43 29 81 48 115 48 115 9 114 -18 -1 -55
-6 -82 -11z"/>
<path d="M5390 6326 c-35 -14 -56 -29 -59 -41 -2 -11 -28 -44 -58 -73 -64 -63
-149 -190 -194 -288 -62 -137 -139 -385 -139 -450 0 -15 -6 -24 -16 -24 -12 0
-15 -6 -10 -22 4 -13 12 -92 18 -175 8 -102 16 -153 24 -153 24 0 62 40 57 59
-9 35 59 211 82 211 12 0 15 -14 15 -65 0 -52 3 -65 15 -65 24 0 235 181 235
201 0 16 77 219 116 307 15 33 55 224 48 231 -6 6 -54 -29 -54 -39 0 -6 -11
-10 -24 -10 -14 0 -48 -19 -79 -45 -53 -43 -87 -51 -87 -20 0 19 28 82 57 128
46 73 130 292 125 326 -2 17 -7 31 -11 31 -3 -1 -31 -11 -61 -24z"/>
<path d="M2816 6220 c11 -18 38 -45 62 -62 85 -59 152 -73 189 -40 18 15 19
20 7 37 -8 10 -28 24 -46 31 -18 6 -56 21 -83 32 -28 11 -72 23 -99 27 l-49 8
19 -33z"/>
<path d="M1880 6219 c0 -18 137 -149 212 -202 139 -99 316 -170 508 -202 158
-27 640 -46 640 -26 0 18 -283 271 -304 271 -3 0 -6 -11 -6 -25 0 -24 -2 -25
-67 -25 -52 0 -92 9 -168 36 -212 75 -333 103 -630 145 -88 13 -161 27 -163
31 -5 12 -22 10 -22 -3z"/>
<path d="M2265 5730 c-9 -14 11 -38 46 -56 31 -15 149 -19 149 -5 0 13 -49 46
-89 59 -42 15 -98 15 -106 2z"/>
<path d="M3330 5661 c0 -6 -11 -11 -24 -11 -35 0 -45 -42 -29 -133 5 -34 9
-38 27 -32 65 21 174 44 231 50 103 11 85 40 -58 95 -91 35 -147 47 -147 31z"/>
<path d="M2600 5587 c0 -7 -29 -21 -66 -31 -48 -14 -114 -50 -252 -139 -276
-177 -327 -207 -355 -207 -22 0 -37 -16 -37 -41 0 -15 165 -10 248 7 259 53
562 264 562 391 0 33 0 33 -50 33 -34 0 -50 -4 -50 -13z"/>
<path d="M3453 5410 c-86 -23 -120 -39 -154 -77 -42 -46 -59 -76 -59 -105 0
-23 4 -28 26 -28 14 0 81 -10 147 -21 110 -19 145 -21 362 -15 132 3 279 9
328 12 l87 7 0 -34 0 -34 126 -43 c69 -24 164 -61 210 -83 152 -70 160 -48 44
116 -85 119 -134 163 -288 255 l-72 43 -43 -17 c-53 -20 -154 -21 -227 -1 -30
8 -81 17 -113 21 -31 4 -60 11 -63 15 -10 17 -235 9 -311 -11z"/>
<path d="M2998 5380 c-184 -68 -371 -240 -556 -511 -58 -84 -64 -104 -29 -94
73 20 367 184 425 238 28 26 28 35 -3 49 -47 21 -33 51 73 157 53 54 123 115
155 136 94 62 65 74 -65 25z"/>
<path d="M3750 5070 c-8 -4 -48 -13 -88 -19 -73 -11 -273 -74 -369 -117 -49
-21 -53 -26 -53 -56 0 -28 -13 -46 -83 -118 -162 -167 -306 -423 -365 -645
-13 -51 -21 -65 -36 -65 -17 0 -18 -6 -13 -66 4 -37 9 -69 12 -72 11 -11 120
75 200 160 150 157 218 271 321 533 23 61 52 129 63 152 29 59 123 157 184
192 58 33 227 91 267 91 25 0 58 15 50 23 -11 10 -76 15 -90 7z"/>
<path d="M3990 5044 c0 -9 9 -18 20 -21 11 -3 20 -11 20 -18 0 -12 70 -25 143
-25 30 0 37 4 37 19 0 21 -3 23 -103 46 -88 20 -117 19 -117 -1z"/>
<path d="M2922 4909 c-90 -23 -92 -24 -92 -58 0 -17 -10 -37 -26 -52 -15 -13
-58 -66 -96 -117 -39 -51 -81 -97 -94 -102 -17 -7 -24 -17 -24 -35 0 -23 3
-25 23 -20 105 31 343 190 381 255 23 39 45 119 39 138 -6 16 -22 14 -111 -9z"/>
<path d="M8950 2793 c0 -52 8 -55 114 -47 71 5 96 10 96 20 0 9 -12 14 -35 14
-28 0 -35 4 -35 20 0 18 -7 20 -70 20 -70 0 -70 0 -70 -27z"/>
<path d="M1320 2795 c0 -12 15 -15 79 -15 89 0 115 14 44 24 -80 11 -123 8
-123 -9z"/>
<path d="M5790 2410 c0 -5 16 -10 35 -10 19 0 35 5 35 10 0 6 -16 10 -35 10
-19 0 -35 -4 -35 -10z"/>
<path d="M6240 2390 c0 -6 33 -10 80 -10 47 0 80 4 80 10 0 6 -33 10 -80 10
-47 0 -80 -4 -80 -10z"/>
<path d="M9320 2381 c0 -20 4 -21 98 -20 53 1 108 4 122 8 l25 7 -25 7 c-14 3
-69 9 -122 13 -96 7 -98 6 -98 -15z"/>
<path d="M3350 2316 c0 -13 11 -16 60 -16 33 0 60 4 60 10 0 6 -13 10 -29 10
-16 0 -43 3 -60 6 -24 5 -31 3 -31 -10z"/>
<path d="M1050 2190 c0 -6 32 -10 75 -10 43 0 75 4 75 10 0 6 -32 10 -75 10
-43 0 -75 -4 -75 -10z"/>
<path d="M7220 2190 c0 -6 27 -10 60 -10 33 0 60 4 60 10 0 6 -27 10 -60 10
-33 0 -60 -4 -60 -10z"/>
<path d="M6330 2150 c0 -6 -32 -10 -75 -10 -43 0 -75 -4 -75 -10 0 -6 43 -10
110 -10 103 0 110 1 110 20 0 16 -7 20 -35 20 -19 0 -35 -4 -35 -10z"/>
</g>

<g transform="translate(0.000000,1024.000000) scale(0.100000,-0.100000)"
fill="#1e3042" stroke="none">
<path d="M6608 7439 c-12 -6 -18 -22 -18 -44 0 -30 3 -35 23 -35 27 0 51 41
42 71 -7 21 -21 24 -47 8z"/>
<path d="M4260 6994 c0 -78 30 -391 41 -436 15 -59 33 -48 25 15 -3 28 -11
120 -16 202 -18 257 -20 275 -36 275 -10 0 -14 -14 -14 -56z"/>
<path d="M3580 6751 c0 -11 68 -102 215 -286 53 -66 128 -166 167 -222 40 -57
76 -103 80 -103 4 0 8 15 8 34 0 38 -2 40 -291 400 -129 161 -179 210 -179
177z"/>
<path d="M5615 6738 c-61 -21 -139 -68 -186 -111 -15 -13 -52 -66 -82 -118
-31 -52 -70 -114 -87 -139 -25 -38 -39 -80 -26 -80 2 0 25 10 52 22 49 21 138
48 162 48 7 0 12 -13 12 -30 0 -16 4 -30 9 -30 15 0 104 119 144 190 41 74 81
176 91 233 8 45 1 46 -89 15z"/>
<path d="M6003 6617 c-79 -73 -192 -178 -253 -234 l-109 -103 -68 -1 c-113 -2
-111 0 -163 -129 -26 -63 -60 -137 -77 -165 -36 -59 -60 -122 -50 -131 4 -4
24 7 45 24 38 33 181 122 194 122 5 0 8 -7 8 -15 0 -8 5 -15 10 -15 16 0 129
59 180 93 50 35 170 146 170 158 0 14 -53 37 -118 50 l-63 13 222 222 c122
122 220 226 218 232 -2 6 -68 -49 -146 -121z"/>
<path d="M4110 6612 c0 -10 6 -42 14 -72 7 -30 24 -99 36 -152 15 -64 28 -98
37 -98 7 0 13 2 13 4 0 9 -51 223 -67 279 -15 55 -33 76 -33 39z"/>
<path d="M6220 6353 c-102 -96 -228 -213 -281 -259 -97 -84 -160 -154 -139
-154 6 0 25 15 43 34 18 18 55 48 82 66 49 33 495 467 495 482 0 4 -3 8 -7 7
-5 0 -91 -79 -193 -176z"/>
<path d="M3618 6338 c23 -23 39 -20 29 7 -4 8 -17 15 -29 15 l-22 0 22 -22z"/>
<path d="M4570 6047 c0 -144 1 -155 21 -173 33 -29 103 -132 137 -199 63 -127
86 -242 97 -492 l5 -133 -22 1 c-16 0 -54 36 -127 119 -117 134 -157 187 -208
278 -47 84 -63 82 -63 -8 0 -86 -2 -87 -131 -26 -94 44 -272 105 -424 146 -44
11 -125 43 -181 71 -99 48 -134 59 -134 39 0 -5 24 -28 53 -51 28 -22 61 -49
73 -58 22 -19 72 -32 189 -51 205 -33 382 -108 568 -243 52 -39 85 -75 147
-162 116 -164 108 -186 -44 -116 -46 22 -141 59 -210 83 l-126 43 0 34 0 34
-87 -7 c-49 -3 -194 -9 -324 -13 -220 -6 -244 -4 -370 18 -176 31 -358 33
-439 4 -63 -23 -160 -83 -160 -99 0 -6 15 -19 33 -29 27 -14 66 -17 247 -19
187 -3 210 -5 175 -15 -94 -29 -235 -89 -235 -100 0 -7 3 -13 8 -13 4 0 82 29
173 64 325 125 432 135 747 70 21 -4 32 -3 32 5 0 15 36 14 117 -4 99 -23 103
-25 103 -44 0 -17 -12 -18 -162 -18 -151 1 -170 -1 -253 -26 -96 -30 -317
-135 -323 -153 -2 -9 45 -10 173 -6 128 3 175 2 175 -7 0 -6 -7 -11 -16 -11
-35 0 -147 -64 -204 -117 -106 -98 -159 -243 -146 -400 7 -71 27 -154 46 -183
22 -35 203 183 277 335 43 90 82 238 83 315 0 58 8 63 91 56 149 -13 289 -39
289 -53 0 -7 -4 -13 -10 -13 -5 0 -10 -4 -10 -9 0 -5 -44 -53 -98 -107 -98
-99 -182 -198 -182 -215 0 -15 28 -10 73 12 57 30 262 167 377 254 52 40 163
123 245 185 212 159 326 253 317 259 -5 3 -13 69 -19 146 -6 77 -19 199 -29
270 -14 111 -15 144 -5 229 11 85 38 191 66 259 6 14 2 17 -26 17 -38 0 -31
12 -94 -178 -28 -85 -32 -92 -57 -92 -24 0 -28 6 -43 56 -9 31 -41 110 -71
174 -30 65 -60 141 -67 169 -6 28 -17 51 -24 51 -10 0 -13 -36 -13 -153z"/>
<path d="M3070 6115 c0 -8 9 -19 20 -25 36 -19 223 -172 309 -252 78 -72 121
-96 121 -65 0 34 -395 357 -437 357 -7 0 -13 -7 -13 -15z"/>
<path d="M7720 6009 c-15 -35 -4 -49 38 -49 25 0 28 16 10 55 -15 34 -33 32
-48 -6z"/>
<path d="M5755 5884 c-55 -31 -111 -66 -125 -78 -14 -13 -59 -44 -102 -69
l-76 -47 -47 -119 c-26 -66 -45 -125 -43 -131 9 -27 548 452 548 488 0 26 -59
9 -155 -44z"/>
<path d="M7760 5835 c-14 -16 -10 -18 14 -9 9 3 16 10 16 15 0 14 -16 11 -30
-6z"/>
<path d="M7555 5643 c-33 -31 -103 -98 -155 -148 -52 -49 -198 -187 -325 -305
-126 -118 -271 -254 -321 -302 -49 -49 -96 -88 -102 -88 -7 0 -12 -6 -12 -13
0 -8 -11 -24 -25 -37 -14 -13 -39 -45 -56 -71 -33 -52 -30 -50 -194 -95 -222
-60 -204 -51 -214 -92 -5 -20 -19 -89 -31 -152 l-22 -115 -52 -48 c-73 -68
-242 -204 -275 -222 -47 -24 -114 -36 -123 -22 -4 7 -8 49 -8 94 0 84 -5 113
-21 113 -5 0 -9 -60 -9 -133 0 -129 -1 -136 -33 -210 l-34 -77 5 -179 5 -179
-48 -64 c-27 -34 -53 -67 -60 -73 -6 -5 -15 -21 -18 -35 -11 -41 -46 -90 -64
-90 -10 0 -36 7 -58 15 -46 16 -109 20 -100 5 27 -44 167 -100 210 -83 8 3 24
37 36 77 26 86 39 112 95 190 l44 60 0 102 c0 73 8 144 30 252 17 83 30 153
30 156 0 14 98 46 141 46 26 0 111 -14 188 -31 l141 -30 42 41 c34 32 48 40
68 36 99 -21 272 -56 276 -56 2 0 4 7 4 15 0 8 -16 18 -37 24 -167 42 -206 51
-232 51 -32 0 -36 7 -46 105 l-7 60 110 116 c60 64 112 125 116 135 3 11 10
40 16 66 8 41 25 63 117 159 213 221 483 489 780 774 268 257 323 316 296 315
-5 0 -35 -26 -68 -57z"/>
<path d="M2955 5649 c-38 -5 -103 -18 -143 -29 -40 -11 -81 -20 -92 -20 -15 0
-20 -7 -20 -25 0 -14 2 -25 4 -25 2 0 48 12 103 27 85 23 118 27 243 27 122 1
150 -2 178 -17 19 -10 35 -17 37 -15 1 2 5 19 8 39 l5 37 -45 6 c-61 8 -191 6
-278 -5z"/>
<path d="M6179 5465 c-49 -53 -278 -258 -389 -348 -52 -42 -135 -110 -185
-152 -49 -41 -117 -96 -150 -122 -33 -26 -110 -88 -171 -138 -61 -49 -153
-123 -205 -163 -52 -39 -150 -116 -219 -169 -69 -54 -217 -162 -330 -241 -113
-79 -216 -151 -229 -160 l-23 -17 75 -63 c41 -34 78 -62 81 -62 3 0 6 7 6 15
0 7 43 47 97 87 53 40 113 86 135 102 35 27 38 34 38 77 0 34 5 50 19 60 27
20 276 210 346 265 119 92 251 199 315 254 36 31 103 86 150 123 152 119 235
189 433 365 l196 172 75 0 c55 0 76 4 75 13 -1 22 -75 132 -91 135 -9 2 -31
-13 -49 -33z"/>
<path d="M5064 5333 c-44 -107 -64 -183 -47 -183 14 0 115 84 104 88 -7 2 -11
29 -11 68 0 76 -20 87 -46 27z"/>
<path d="M6930 4570 c-50 -44 -97 -80 -105 -80 -8 0 -15 -6 -15 -13 0 -17 -70
-83 -142 -136 -32 -23 -58 -43 -58 -44 0 -33 -27 -127 -45 -159 -34 -59 -32
-88 7 -113 39 -24 168 -243 168 -284 0 -4 -20 -22 -45 -40 -45 -32 -59 -61
-29 -61 22 0 121 78 244 192 58 54 113 98 123 98 17 0 22 16 11 44 -10 26 -29
19 -82 -29 -49 -44 -77 -60 -52 -30 11 13 6 15 -31 15 -24 1 -55 7 -69 15 -14
8 -42 14 -62 15 -37 0 -38 1 -38 38 0 20 9 91 20 157 11 66 20 134 20 152 0
38 51 103 82 103 14 0 18 5 13 19 -4 13 6 29 32 53 81 75 167 168 156 168 -7
0 -53 -36 -103 -80z m-115 -677 c19 -9 35 -23 35 -32 0 -18 -39 -61 -56 -61
-12 0 -64 80 -64 99 0 16 45 13 85 -6z"/>
<path d="M4510 4450 c0 -13 7 -20 20 -20 13 0 20 7 20 20 0 13 -7 20 -20 20
-13 0 -20 -7 -20 -20z"/>
<path d="M7688 3754 c-32 -17 -37 -44 -10 -44 21 0 52 29 52 48 0 15 -9 15
-42 -4z"/>
<path d="M3890 3746 c0 -15 37 -32 47 -22 3 3 3 12 0 21 -8 19 -47 20 -47 1z"/>
<path d="M5202 3638 c-42 -41 -92 -86 -110 -101 -19 -15 -50 -46 -69 -70 -19
-23 -42 -44 -50 -47 -10 -4 -5 -12 17 -29 18 -12 33 -21 34 -19 1 1 17 28 35
58 20 33 78 95 143 154 60 55 107 104 105 109 -8 26 -33 13 -105 -55z"/>
<path d="M2553 3518 c46 -116 62 -151 73 -155 18 -7 18 -34 -1 -59 -8 -10 -15
-37 -15 -59 0 -53 49 -225 72 -251 26 -29 23 -36 -15 -29 -21 4 -47 1 -68 -8
-53 -22 -229 -141 -229 -154 0 -34 93 -44 160 -17 30 12 44 13 54 5 7 -6 37
-19 67 -29 46 -16 74 -18 187 -13 l134 6 -24 28 c-19 21 -32 27 -65 27 -32 0
-45 5 -53 21 -19 35 -40 113 -40 149 0 21 -17 68 -41 117 -50 97 -59 158 -34
232 l17 51 -49 44 c-123 109 -142 123 -130 94z"/>
<path d="M6402 3462 c-50 -45 -62 -62 -43 -62 14 0 131 89 131 100 0 23 -38 6
-88 -38z"/>
<path d="M4270 3411 c0 -9 24 -21 41 -21 5 0 9 7 9 15 0 9 -9 15 -25 15 -14 0
-25 -4 -25 -9z"/>
<path d="M4782 3298 c6 -110 32 -195 89 -287 32 -51 37 -66 28 -78 -7 -8 -22
-51 -35 -96 l-21 -82 -47 2 c-25 2 -46 -1 -46 -6 0 -12 459 -18 765 -9 138 3
470 7 739 7 l489 1 -7 31 c-3 17 -6 41 -6 53 0 16 -9 25 -33 34 -18 7 -43 21
-55 32 -11 11 -24 20 -28 20 -3 0 -29 -21 -57 -46 l-52 -46 -207 7 c-157 5
-220 4 -258 -6 -27 -7 -50 -16 -50 -21 0 -13 -71 -38 -110 -38 -32 0 -44 7
-89 55 -29 30 -56 55 -60 55 -11 0 -41 35 -41 48 0 6 14 33 30 59 17 26 30 55
30 66 0 17 -5 18 -42 12 -71 -12 -209 -45 -282 -68 l-68 -22 5 -40 c3 -22 11
-66 18 -97 9 -40 10 -61 3 -68 -13 -13 -174 -22 -174 -11 0 5 7 28 15 52 14
40 14 44 -2 53 -34 18 -124 121 -155 175 -41 74 -76 168 -84 230 -6 48 -8 51
-35 51 -15 0 -58 16 -95 35 -37 19 -69 35 -72 35 -2 0 -2 -42 0 -92z"/>
<path d="M3969 3217 c-37 -28 -47 -44 -76 -126 -19 -52 -32 -96 -29 -98 16
-17 296 92 296 115 0 4 -13 21 -30 37 -16 16 -42 46 -56 67 -15 21 -35 38 -45
38 -9 0 -37 -15 -60 -33z"/>
<path d="M8639 3061 c-23 -54 -78 -81 -181 -88 -43 -3 -78 -7 -78 -8 0 -1 9
-28 20 -60 11 -32 20 -62 20 -67 0 -4 -117 -8 -260 -8 -143 0 -260 4 -260 9 0
4 35 21 78 36 42 16 79 29 81 31 3 3 30 149 31 167 0 23 -109 -13 -385 -125
-213 -86 -409 -149 -485 -155 -43 -4 -81 -14 -114 -32 -47 -25 -56 -26 -203
-26 -84 0 -153 -4 -153 -8 0 -5 100 -6 223 -3 122 3 618 9 1102 12 l880 6 2
69 c2 79 -7 86 -61 44 -29 -22 -43 -25 -119 -25 -48 0 -87 4 -87 9 0 4 20 21
45 37 25 15 45 32 45 37 0 12 -112 187 -119 187 -4 0 -13 -18 -22 -39z"/>
<path d="M6780 2975 c-13 -13 -38 -35 -56 -47 -43 -29 -44 -41 -1 -24 17 8 56
17 85 21 28 4 52 9 52 12 0 13 -36 63 -45 63 -7 0 -22 -11 -35 -25z"/>
<path d="M4425 2972 c-21 -18 -294 -132 -380 -158 -79 -24 -107 -28 -230 -28
-137 -1 -142 0 -249 37 -59 21 -110 36 -113 34 -2 -3 0 -14 5 -24 15 -27 84
-265 78 -270 -2 -2 -46 3 -97 13 -72 13 -123 15 -228 11 -75 -3 -146 -9 -158
-13 -17 -5 -23 -2 -23 10 0 9 -4 16 -10 16 -5 0 -10 -4 -10 -10 0 -6 -28 -10
-65 -10 -48 0 -65 -4 -65 -13 0 -20 231 -27 916 -27 484 0 595 3 655 15 134
28 116 34 -139 42 -117 3 -212 9 -212 12 0 4 24 15 53 25 28 10 94 38 146 62
52 24 100 44 107 44 8 0 14 4 14 9 0 5 21 17 46 27 38 14 45 21 41 38 -34 141
-42 166 -57 166 -9 0 -20 -4 -25 -8z"/>
<path d="M1149 2963 c-13 -3 -18 -22 -24 -80 l-7 -75 -106 4 c-113 5 -182 26
-229 70 -26 24 -35 20 -64 -32 -22 -40 -23 -40 -83 -41 -41 0 -54 -3 -41 -8
11 -5 179 -11 373 -15 312 -7 352 -6 352 8 0 11 -16 17 -60 22 -33 4 -63 10
-66 15 -2 4 -7 38 -11 74 -3 36 -9 64 -12 64 -3 -1 -13 -3 -22 -6z"/>
<path d="M8127 2894 c-14 -14 -6 -24 19 -24 16 0 24 5 22 13 -5 14 -31 21 -41
11z"/>
<path d="M9090 2890 c-8 -6 -32 -15 -54 -21 -55 -15 -38 -22 33 -14 51 6 61
10 61 26 0 21 -16 24 -40 9z"/>
<path d="M5105 2560 c-55 -22 -152 -58 -215 -80 -63 -22 -137 -48 -165 -59
l-50 -19 -3 -78 -3 -77 182 6 c100 4 253 7 341 7 151 0 158 1 158 20 0 11 -18
74 -40 140 -22 66 -40 123 -40 127 0 3 93 4 207 2 192 -4 208 -3 211 14 3 14
-4 17 -35 17 -22 0 -45 6 -52 13 -11 10 -14 10 -18 0 -3 -9 -32 -13 -98 -13
-66 0 -95 4 -98 13 -4 10 -7 10 -18 0 -15 -15 -119 -17 -119 -3 0 19 -45 9
-145 -30z"/>
<path d="M553 2582 c-376 -2 -433 -4 -433 -17 0 -13 66 -15 520 -15 444 0 520
2 520 14 0 19 -73 22 -607 18z"/>
<path d="M8290 2565 c0 -13 24 -15 158 -15 86 0 289 -3 450 -7 256 -5 292 -4
292 9 0 13 -40 16 -272 21 -464 12 -628 9 -628 -8z"/>
<path d="M9270 2565 c0 -13 44 -15 335 -15 291 0 335 2 335 15 0 13 -44 15
-335 15 -291 0 -335 -2 -335 -15z"/>
<path d="M5701 2505 c17 -17 143 -64 172 -65 9 0 17 -4 17 -10 0 -5 -7 -10
-15 -10 -8 0 -15 -4 -15 -9 0 -16 158 -22 423 -15 147 4 267 11 267 15 0 5 -1
9 -2 10 -2 0 -145 4 -318 9 l-315 7 -95 32 c-52 18 -99 36 -104 42 -6 5 -15 9
-20 9 -6 0 -3 -7 5 -15z"/>
<path d="M9270 2440 l0 -40 -102 0 c-77 0 -99 -3 -90 -12 12 -12 228 -35 238
-25 3 3 0 31 -7 61 -15 67 -39 77 -39 16z"/>
<path d="M3277 2449 c-11 -6 -32 -9 -48 -5 -31 6 -27 13 -44 -95 -4 -24 0 -27
33 -33 20 -3 58 -6 83 -6 43 0 47 2 52 28 3 15 8 36 12 47 4 14 -1 30 -15 48
-23 29 -43 33 -73 16z"/>
<path d="M7032 2387 c-23 -23 -42 -48 -42 -53 0 -6 13 -40 29 -76 l30 -65 250
-1 c216 0 250 2 256 15 3 9 3 18 1 20 -3 3 -100 5 -217 5 l-212 0 7 72 c6 70
6 73 -19 86 -14 7 -25 19 -25 27 0 22 -14 15 -58 -30z"/>
<path d="M1477 2375 c-9 -20 -17 -38 -17 -40 0 -3 32 -5 70 -5 40 0 70 4 70
10 0 12 -78 70 -95 70 -6 0 -19 -16 -28 -35z"/>
<path d="M6195 2360 c-8 -14 3 -47 31 -92 13 -21 24 -49 24 -62 0 -22 -8 -27
-71 -46 -39 -12 -69 -23 -67 -25 2 -2 52 -1 111 2 l107 6 0 73 c0 72 0 72 -30
79 -16 3 -43 22 -59 41 -33 37 -37 39 -46 24z"/>
<path d="M8210 2305 c-13 -14 -21 -27 -19 -30 3 -2 29 -2 57 2 l53 6 -22 23
c-28 30 -40 30 -69 -1z"/>
<path d="M3948 2263 c-50 -3 -58 -7 -58 -23 0 -18 -7 -20 -90 -20 -55 0 -90
-4 -90 -10 0 -7 61 -10 178 -8 l177 3 3 33 c4 36 16 33 -120 25z"/>
<path d="M2135 2249 c-284 -7 -465 -18 -465 -29 0 -3 125 -13 278 -22 218 -13
338 -15 562 -8 157 5 324 9 373 9 48 1 87 5 87 10 0 10 -61 18 -250 30 -240
16 -314 17 -585 10z"/>
<path d="M560 2217 c0 -21 197 -32 424 -24 154 6 187 10 175 21 -2 2 -138 7
-301 11 -265 7 -298 6 -298 -8z"/>
</g>

<g transform="translate(0.000000,1024.000000) scale(0.100000,-0.100000)"
fill="#000000" stroke="none">
<path d="M6191 6790 c-24 -21 -42 -43 -40 -49 2 -6 24 9 48 33 56 57 51 67 -8
16z"/>
<path d="M7685 5760 c-32 -33 -57 -62 -54 -64 3 -3 34 24 69 59 36 36 60 65
54 65 -5 0 -36 -27 -69 -60z"/>
<path d="M7080 4071 c-25 -22 -41 -43 -37 -47 4 -5 29 13 55 39 56 57 45 62
-18 8z"/>
<path d="M6993 2584 c-3 -9 -12 -13 -22 -9 -23 9 -391 -6 -391 -16 0 -5 383
-9 855 -9 563 0 855 3 855 10 0 7 -217 10 -630 10 -553 0 -630 2 -630 15 0 20
-29 19 -37 -1z"/>
<path d="M50 2565 c0 -8 9 -15 20 -15 11 0 20 7 20 15 0 8 -9 15 -20 15 -11 0
-20 -7 -20 -15z"/>
<path d="M1160 2560 c0 -6 40 -10 100 -10 60 0 100 4 100 10 0 6 -40 10 -100
10 -60 0 -100 -4 -100 -10z"/>
<path d="M2840 2560 c0 -5 9 -10 20 -10 11 0 20 5 20 10 0 6 -9 10 -20 10 -11
0 -20 -4 -20 -10z"/>
<path d="M9190 2560 c0 -5 18 -10 40 -10 22 0 40 5 40 10 0 6 -18 10 -40 10
-22 0 -40 -4 -40 -10z"/>
<path d="M1160 2210 c0 -5 25 -10 55 -10 30 0 55 5 55 10 0 6 -25 10 -55 10
-30 0 -55 -4 -55 -10z"/>
</g>

<g transform="translate(0.000000,1024.000000) scale(0.100000,-0.100000)"
fill="#5caf60" stroke="none">
<path d="M4197 7593 c-36 -83 -47 -129 -47 -206 0 -122 50 -307 83 -307 9 0
17 26 25 88 12 93 62 212 89 212 11 0 12 9 7 38 -14 81 -91 232 -118 232 -7 0
-25 -26 -39 -57z"/>
<path d="M4775 7456 c-110 -74 -241 -237 -305 -379 -39 -86 -78 -251 -85 -355
l-6 -87 64 -47 c35 -27 75 -48 88 -48 24 0 25 3 38 123 24 234 70 385 187 624
49 98 74 161 72 178 l-3 25 -50 -34z"/>
<path d="M5393 7351 c-101 -40 -156 -74 -216 -135 -89 -89 -152 -218 -171
-348 -10 -66 12 -64 46 5 65 132 276 374 386 440 31 19 52 39 52 49 0 24 -12
22 -97 -11z"/>
<path d="M3720 7211 c0 -155 12 -248 51 -401 34 -133 72 -225 164 -399 36 -68
65 -129 65 -135 0 -6 14 -26 30 -43 27 -30 35 -33 91 -33 l61 0 -5 73 c-3 39
-15 110 -26 157 -34 137 -44 190 -37 197 12 12 18 -6 58 -171 l41 -166 33 0
c38 0 39 3 53 147 6 58 6 105 0 125 -5 18 -9 50 -9 70 0 25 -5 38 -13 38 -8 0
-19 19 -26 43 -38 128 -152 321 -261 439 -60 66 -226 188 -256 188 -11 0 -14
-24 -14 -129z"/>
<path d="M2730 7165 c0 -9 9 -15 24 -15 54 0 405 -252 565 -406 95 -91 100
-94 145 -94 25 0 46 4 46 8 0 5 -31 56 -69 114 -144 218 -311 336 -546 388
-111 24 -165 26 -165 5z"/>
<path d="M5232 6757 c-34 -18 -97 -61 -140 -97 l-77 -65 38 -3 c33 -3 44 3
100 53 34 31 86 71 115 88 48 30 68 57 40 57 -7 -1 -41 -15 -76 -33z"/>
<path d="M4771 6614 c-24 -27 -54 -68 -68 -91 -14 -24 -31 -43 -38 -43 -8 0
-24 -26 -36 -57 -27 -69 -38 -224 -19 -287 16 -57 81 -196 92 -196 4 0 8 48 8
108 0 159 47 430 97 553 24 61 11 66 -36 13z"/>
<path d="M2770 6303 c1 -33 24 -49 87 -60 35 -7 90 -24 123 -39 33 -15 63 -24
67 -21 25 25 -101 106 -195 126 -71 15 -82 14 -82 -6z"/>
<path d="M2105 6289 c-83 -13 -205 -51 -205 -63 0 -7 62 -20 163 -34 297 -42
419 -71 632 -146 76 -27 116 -36 168 -36 l67 0 0 30 c0 25 -9 35 -57 66 -68
44 -236 125 -308 149 -122 41 -329 56 -460 34z"/>
<path d="M3255 6281 c-48 -11 -70 -21 -70 -31 0 -11 10 -14 38 -12 40 4 132
-40 247 -118 30 -21 95 -59 143 -85 l88 -47 87 6 c109 9 122 13 122 37 0 16 7
19 55 19 52 0 55 2 55 24 0 52 -249 186 -392 211 -108 19 -284 17 -373 -4z"/>
<path d="M5270 6273 c-190 -113 -293 -249 -340 -455 -12 -54 -27 -98 -33 -98
-10 0 -4 -152 9 -232 7 -43 34 -53 34 -14 0 65 77 313 139 450 45 98 130 225
195 289 31 30 56 62 56 71 0 22 -7 20 -60 -11z"/>
<path d="M3464 5955 c12 -47 24 -71 65 -125 22 -30 41 -62 41 -72 0 -12 29
-31 93 -63 121 -59 297 -96 297 -62 0 15 -186 200 -258 256 -30 22 -62 41 -72
41 -10 0 -48 11 -84 25 -83 31 -90 31 -82 0z"/>
<path d="M4445 5958 c-48 -133 -47 -146 11 -212 54 -59 124 -161 192 -278 85
-145 147 -237 161 -237 12 -1 13 16 8 97 -12 177 -67 336 -162 466 -51 70 -91
116 -101 116 -3 0 -22 14 -41 30 -36 32 -61 38 -68 18z"/>
<path d="M3240 5757 c0 -22 74 -87 99 -87 27 0 160 -45 215 -72 21 -11 41 -28
43 -39 4 -15 14 -19 44 -19 22 0 39 3 39 8 -1 8 -120 101 -154 119 -11 6 -34
15 -51 20 -19 5 -31 17 -35 32 -7 32 -56 49 -137 50 -45 1 -63 -3 -63 -12z"/>
<path d="M2420 5585 c-205 -42 -353 -135 -461 -288 -27 -39 -49 -74 -49 -79 0
-4 10 -8 21 -8 24 0 81 34 351 207 138 89 204 125 252 139 84 24 88 44 9 43
-32 0 -87 -7 -123 -14z"/>
<path d="M3075 5540 c-207 -47 -415 -157 -524 -276 -111 -121 -174 -264 -186
-421 -5 -71 -4 -83 9 -83 9 0 16 8 16 17 0 9 23 51 52 92 139 204 257 329 405
432 81 56 223 113 262 106 16 -3 51 8 98 31 64 32 73 40 73 63 0 62 -57 73
-205 39z"/>
<path d="M3640 5520 c-164 -13 -345 -74 -509 -169 -84 -49 -201 -146 -201
-167 0 -17 -1 -17 46 2 23 10 82 18 151 21 108 6 113 7 113 28 0 26 46 93 85
123 53 42 149 64 293 70 80 2 137 0 145 -6 6 -5 37 -13 68 -16 31 -4 81 -14
110 -21 30 -8 83 -15 118 -15 62 0 131 16 131 31 0 10 -135 65 -205 83 -59 15
-245 47 -255 44 -3 0 -43 -4 -90 -8z"/>
<path d="M3830 5050 c-8 -5 -26 -10 -40 -10 -40 0 -209 -58 -267 -91 -76 -43
-201 -184 -181 -204 3 -3 25 4 49 15 24 11 51 20 60 20 9 0 19 9 22 19 7 26
204 122 322 156 49 14 122 28 162 32 77 6 93 20 46 40 -73 31 -146 41 -173 23z"/>
<path d="M3141 4849 c-164 -109 -244 -198 -316 -352 -50 -105 -74 -209 -82
-349 -6 -92 -5 -98 13 -98 15 0 23 14 36 65 59 222 203 478 365 645 63 65 83
92 83 113 0 15 -5 27 -12 26 -7 0 -46 -22 -87 -50z"/>
<path d="M2762 4843 c-60 -41 -122 -128 -147 -204 -32 -95 1 -80 93 43 38 51
81 104 96 117 24 23 38 81 18 81 -4 0 -31 -16 -60 -37z"/>
<path d="M6335 3005 c-38 -29 -95 -66 -125 -82 -41 -23 -56 -36 -58 -55 -3
-25 -3 -25 104 -31 59 -4 140 -7 179 -7 72 0 73 0 123 45 27 25 53 45 56 45 4
0 16 -9 28 -20 26 -24 48 -26 48 -5 0 8 3 15 8 15 4 0 30 20 59 45 28 25 56
45 61 45 6 0 19 -18 29 -40 l18 -39 61 -1 c51 0 73 6 130 35 67 34 121 72 113
79 -8 8 -440 26 -599 25 l-165 0 -70 -54z"/>
<path d="M9090 2800 c0 -16 7 -20 35 -20 24 0 35 -5 35 -15 0 -8 -1 -16 -2
-17 -2 0 -446 -5 -988 -10 -829 -7 -1408 -19 -1297 -26 16 -1 27 -8 27 -17 0
-8 14 -17 33 -20 17 -4 559 -4 1202 -2 1257 4 1376 9 1556 57 53 15 54 45 2
59 -56 15 -288 31 -455 31 -141 0 -148 -1 -148 -20z"/>
<path d="M4570 2790 c-96 -6 -150 -23 -150 -45 0 -27 243 -41 831 -51 412 -6
436 -6 443 11 6 17 18 17 169 9 89 -5 203 -8 252 -7 50 1 205 2 345 3 140 0
263 3 273 6 9 3 17 12 17 20 0 12 -71 14 -492 13 -271 0 -605 -4 -743 -7 -307
-9 -765 -3 -765 9 0 18 -41 49 -62 47 -13 -1 -66 -4 -118 -8z"/>
<path d="M720 2776 c0 -8 7 -17 16 -20 9 -3 135 -6 280 -6 214 0 264 3 264 13
0 11 -42 15 -197 20 -304 11 -363 9 -363 -7z"/>
<path d="M2750 2736 c0 -21 23 -26 131 -26 92 0 99 1 99 20 0 19 -7 20 -115
20 -92 0 -115 -3 -115 -14z"/>
<path d="M6628 2573 c12 -2 32 -2 45 0 12 2 2 4 -23 4 -25 0 -35 -2 -22 -4z"/>
<path d="M7578 2573 c134 -2 350 -2 480 0 130 1 21 2 -243 2 -264 0 -371 -1
-237 -2z"/>
<path d="M3420 2527 c0 -18 207 -27 611 -27 288 0 297 1 302 20 5 20 0 20
-454 20 -378 0 -459 -2 -459 -13z"/>
<path d="M6550 2410 c0 -6 -32 -10 -75 -10 -63 0 -75 -3 -75 -17 0 -15 18 -16
197 -10 108 4 227 7 265 7 126 0 69 16 -99 28 -202 15 -213 15 -213 2z"/>
<path d="M5350 2281 c0 -20 5 -21 80 -21 64 0 80 3 80 15 0 10 -10 15 -27 15
-16 0 -52 3 -80 6 -49 6 -53 5 -53 -15z"/>
<path d="M4793 2253 c-69 -2 -123 -8 -123 -13 0 -5 10 -12 23 -14 98 -21 138
-26 203 -26 71 0 75 1 69 20 -6 19 -2 20 59 20 37 0 66 4 66 10 0 6 -34 9 -87
8 -49 -1 -143 -4 -210 -5z"/>
<path d="M4070 2221 c0 -7 -10 -16 -22 -21 -18 -7 -11 -9 33 -9 31 -1 84 -4
118 -7 86 -10 78 10 -11 25 -40 7 -83 15 -95 18 -14 3 -23 0 -23 -6z"/>
<path d="M2968 2210 c-2 -5 -140 -12 -340 -16 -548 -11 -401 -34 220 -34 287
0 363 3 360 13 -3 7 -40 16 -95 23 -50 6 -103 14 -116 18 -14 3 -27 2 -29 -4z"/>
<path d="M7554 2206 c-5 -13 -24 -16 -110 -16 -57 0 -104 -4 -104 -8 0 -15
190 -22 360 -15 88 3 160 9 160 13 0 7 -132 27 -242 37 -47 4 -59 2 -64 -11z"/>
<path d="M1238 2203 c-25 -3 -38 -9 -38 -19 0 -11 24 -14 130 -14 72 0 130 4
130 8 0 9 -142 34 -170 30 -8 -1 -32 -3 -52 -5z"/>
<path d="M6400 2141 c0 -19 5 -21 73 -21 64 0 110 11 97 23 -3 3 -42 8 -87 12
-80 7 -83 6 -83 -14z"/>
</g>

<g transform="translate(0.000000,1024.000000) scale(0.100000,-0.100000)"
fill="#834c42" stroke="none">
<path d="M5545 5783 c-22 -14 -42 -29 -45 -33 -3 -4 -13 -9 -22 -13 -15 -5
-27 -37 -14 -37 7 0 149 89 160 100 22 22 -41 9 -79 -17z"/>
<path d="M5760 5695 c-7 -9 -92 -82 -189 -163 -96 -81 -209 -176 -250 -211
-42 -35 -106 -88 -142 -118 l-66 -54 126 -121 c69 -66 143 -138 164 -160 l39
-39 45 38 c81 69 200 167 300 248 188 152 393 341 393 362 0 9 -21 13 -74 13
-41 0 -77 4 -80 9 -4 5 -24 12 -45 16 -46 8 -51 19 -51 118 l0 67 -34 0 c-18
0 -53 3 -77 6 -35 5 -48 2 -59 -11z"/>
<path d="M6660 4703 c-12 -16 -61 -68 -108 -118 -83 -86 -88 -93 -109 -171
-25 -86 -29 -124 -14 -124 5 0 36 -22 68 -50 82 -70 92 -68 108 22 5 32 16 46
78 92 90 67 129 108 130 138 2 25 -108 238 -123 238 -5 0 -18 -12 -30 -27z"/>
<path d="M6833 4412 c-34 -5 -83 -67 -83 -105 0 -18 -9 -86 -20 -152 -11 -66
-20 -137 -20 -157 0 -37 1 -38 38 -38 20 -1 48 -7 62 -15 38 -22 113 -19 135
5 10 11 24 20 32 20 15 0 55 21 64 33 14 19 -4 66 -92 234 -50 98 -92 178 -93
178 -1 1 -11 -1 -23 -3z"/>
<path d="M3907 4393 c-14 -13 -6 -23 18 -23 18 0 23 4 19 15 -6 16 -26 20 -37
8z"/>
<path d="M4826 4145 c-47 -36 -92 -65 -100 -65 -8 0 -16 -4 -18 -9 -4 -10 -89
-80 -191 -154 -51 -38 -77 -65 -77 -78 0 -13 37 -48 111 -107 62 -48 175 -137
253 -199 77 -62 150 -112 161 -113 12 0 35 19 58 47 l38 46 -33 35 c-18 19
-90 79 -160 134 -88 68 -128 105 -128 119 0 30 86 151 199 282 56 64 101 119
101 122 0 3 -29 5 -64 5 -63 0 -65 -1 -150 -65z"/>
<path d="M6502 3948 c2 -74 -20 -407 -29 -421 -2 -4 3 -14 11 -23 22 -22 21
-25 -24 -58 -25 -19 -40 -38 -40 -52 0 -14 -24 -41 -75 -83 -93 -77 -99 -101
-25 -101 48 0 50 -1 65 -36 8 -20 15 -54 15 -75 0 -62 -11 -68 242 136 158
127 445 414 478 477 l25 48 -19 47 c-10 27 -23 62 -29 80 -9 25 -19 33 -45 38
-30 6 -39 1 -100 -53 -37 -33 -76 -70 -87 -82 -35 -39 -182 -150 -199 -150
-30 0 -16 29 29 61 25 18 45 36 45 39 0 16 -34 88 -67 143 -47 78 -110 136
-146 137 l-28 0 3 -72z"/>
<path d="M6730 3899 c0 -19 52 -99 64 -99 17 0 56 43 56 61 0 18 -60 49 -95
49 -14 0 -25 -5 -25 -11z"/>
<path d="M3760 3475 c0 -16 6 -25 15 -25 9 0 15 9 15 25 0 16 -6 25 -15 25 -9
0 -15 -9 -15 -25z"/>
<path d="M5120 3479 c-8 -4 -22 -10 -30 -12 -9 -3 -28 -27 -43 -54 l-27 -50
39 -29 c21 -16 98 -76 170 -132 79 -62 137 -102 146 -98 17 6 55 78 55 103 -1
11 -46 53 -113 106 -136 107 -174 141 -179 160 -2 9 -8 12 -18 6z"/>
<path d="M5475 3138 c-14 -44 -23 -83 -21 -86 3 -2 19 0 36 6 16 6 57 14 90
18 33 4 63 11 67 17 7 11 -61 75 -114 107 l-32 19 -26 -81z"/>
<path d="M5750 3052 c0 -10 -13 -39 -30 -65 -35 -55 -37 -68 -12 -90 19 -18
42 -23 42 -9 0 4 25 20 55 37 30 16 55 35 55 42 0 7 -19 30 -41 51 -57 51 -69
57 -69 34z"/>
<path d="M7380 2295 l0 -65 90 0 90 0 0 65 0 65 -90 0 -90 0 0 -65z"/>
<path d="M6850 2210 c0 -17 7 -20 50 -20 43 0 50 3 50 20 0 17 -7 20 -50 20
-43 0 -50 -3 -50 -20z"/>
<path d="M8477 2224 c-16 -16 -6 -34 19 -34 19 0 25 5 22 17 -3 19 -29 29 -41
17z"/>
<path d="M5237 2192 c-15 -15 -27 -31 -27 -34 0 -4 14 -9 31 -13 36 -8 49 4
49 48 0 35 -19 35 -53 -1z"/>
</g>
</svg>