<svg xmlns="http://www.w3.org/2000/svg" viewBox="0 0 64.81 114.85"><defs><style>.cls-1{fill:#f2dddd;}.cls-2{fill:#b1404a;}</style></defs><g id="Layer_2" data-name="Layer 2"><g id="Layer_1-2" data-name="Layer 1"><path class="cls-1" d="M22.44,89.82a1,1,0,0,0-.5,1.26,1,1,0,1,0,.5-1.26Z"/><path class="cls-1" d="M30.57,65.14h0a1.39,1.39,0,0,0-.74,1.9,1.44,1.44,0,1,0,.74-1.89Z"/><path class="cls-1" d="M24.38,58.54a1,1,0,0,0-.5,1.28,1,1,0,1,0,.5-1.28Z"/><path class="cls-1" d="M59.74,9.72a38.6,38.6,0,0,0-9.11-4.81A36.07,36.07,0,0,0,39.29,2.33c-1.86,0-2.5.39-2.6.6v.19c.07.5.7,5-.17,7.25L3.21,97.09h0l-.1.24a11.3,11.3,0,0,0,6.53,14.44,11.21,11.21,0,0,0,14.47-6.44l.13-.29,33.3-86.57c.7-1.87,4-4.88,4.69-5.45l.08-.08c0-.07.09-.07.09-.14C62.4,12.52,62.11,11.51,59.74,9.72ZM22,104.69a9,9,0,0,1-11.54,5.06A9.26,9.26,0,0,1,5,98.17l15.39-40a17.79,17.79,0,0,1,5.68-5.28c3.79-2.21,6.9-1.71,11.11-3.61S46,42,46,42ZM48.3,11.12C43.5,9.28,40,6.77,40.49,5.49h0c.48-1.25,4.75-.78,9.55,1.08s8.27,4.35,7.8,5.6S53.08,13,48.3,11.12Z"/><path class="cls-1" d="M16.42,78.55a1.44,1.44,0,0,0,1.17,2.64v0a1.36,1.36,0,0,0,.74-1.87A1.43,1.43,0,0,0,16.42,78.55Z"/><path class="cls-1" d="M20.33,72.32A2.79,2.79,0,0,0,19,76h-.07a2.76,2.76,0,0,0,5-2.26A2.76,2.76,0,0,0,20.33,72.32Z"/><path class="cls-2" d="M13.62,114.85A13.63,13.63,0,0,1,.47,97.66l-.07,0,.43-1.09L34.32,9.62c.5-1.29.27-4.36,0-6.06a2.35,2.35,0,0,1,0-1.15l0-.11,0-.07v0l0-.09C35,.7,36.65,0,39.32,0A37,37,0,0,1,51.53,2.74a41.26,41.26,0,0,1,9.72,5.15c2.88,2.15,4,4.08,3.39,5.74l-.15.21-.08.08a3.6,3.6,0,0,1-.72.79c-1.5,1.29-3.65,3.51-4,4.52L25.88,107.38l-.08,0a13.75,13.75,0,0,1-12.17,7.47h0ZM3.15,97.06l-.1.24a11.31,11.31,0,0,0,6.53,14.44,11.23,11.23,0,0,0,14.48-6.44l.13-.29,33.3-86.57c.7-1.87,4-4.88,4.68-5.46l.08-.07c.06-.08.09-.08.09-.15,0-.28-.29-1.29-2.66-3.08a37.85,37.85,0,0,0-9.11-4.81A36,36,0,0,0,39.24,2.29c-1.87,0-2.51.39-2.61.6v.19c.07.5.7,4.95-.16,7.25L3.15,97v0ZM46,42s-4.61,5.31-8.82,7.22-7.32,1.4-11.1,3.62a17.77,17.77,0,0,0-5.69,5.28L5,98.12a9.24,9.24,0,0,0,5.38,11.58,9,9,0,0,0,11.54-5L46,42ZM22.38,89.77a1,1,0,0,1,1.28.51,1,1,0,0,1-.51,1.26,1,1,0,0,1-1.27-.5A1,1,0,0,1,22.38,89.77Zm-4.85-8.62a1.44,1.44,0,1,1,.74-1.91,1.36,1.36,0,0,1-.74,1.87Zm1.37-5.24a2.79,2.79,0,0,1,1.37-3.63,2.74,2.74,0,0,1,3.59,1.36,2.75,2.75,0,0,1-5,2.26ZM30.51,65.1a1.41,1.41,0,0,1,1.9.72A1.44,1.44,0,1,1,29.77,67a1.4,1.4,0,0,1,.74-1.9Zm-6.19-6.6a1,1,0,0,1,1.27.5,1,1,0,0,1-.49,1.28,1,1,0,0,1-1.27-.5,1,1,0,0,1,.49-1.28Zm16.13-53c.48-1.25,4.75-.78,9.55,1.08s8.27,4.35,7.8,5.6-4.77.78-9.55-1.06S40,6.72,40.44,5.45h0Z"/></g></g></svg>