<svg xmlns="http://www.w3.org/2000/svg" viewBox="0 0 583.03 399.59">
	<defs>
		<style>
		.cls-1 {
			fill: #8c6239;
		}
		
		.cls-2 {
			fill: none;
			stroke: #8c6239;
			stroke-miterlimit: 10;
			stroke-width: 10px;
		}
		
		.cls-3 {
			fill: #31af31;
		}
		
		.cls-4 {
			fill: #5c5962;
		}
		</style>
	</defs>
	<g id="Layer_2" data-name="Layer 2">
		<g id="Layer_1-2" data-name="Layer 1">
			<path class="cls-1" d="M155.05,219.83a41.35,41.35,0,0,0,1,6.4,47.68,47.68,0,0,0,2.16,6.47,56.53,56.53,0,0,0,6.91,12.22,71.84,71.84,0,0,0,9.63,10.67l2.76,2.38c.94.78,1.94,1.49,2.9,2.25,2,1.48,4,2.89,6.09,4.21a105.38,105.38,0,0,0,13.25,7.05,117.12,117.12,0,0,0,14.31,5.34c4.92,1.46,10,2.67,15.08,3.66,2.57.42,5.14.93,7.74,1.21l3.9.5,3.93.36c2.6.27,5.27.34,7.91.52l4.18.25c.72.07,1.43.06,2.15.18l2.15.34a51.45,51.45,0,0,1,16.25,5.64,53.43,53.43,0,0,1,13.41,10.41A50.61,50.61,0,0,1,300,314a43.63,43.63,0,0,1,3.66,16.26,53.33,53.33,0,0,1-1.87,16.33,60.27,60.27,0,0,1-6.42,14.95,62.45,62.45,0,0,1-9.93,12.73l-.06-.06a61.81,61.81,0,0,0,9.1-13.16,57.91,57.91,0,0,0,5.41-14.92,51.19,51.19,0,0,0,.79-15.65,40.32,40.32,0,0,0-4.33-14.75,46.28,46.28,0,0,0-21.84-20.57,44.53,44.53,0,0,0-14.37-3.87l-1.84-.16c-.61-.07-1.25,0-1.87,0-1.28,0-2.43,0-3.89.06-2.72,0-5.43.19-8.19.13-5.49.07-11-.24-16.54-.61a165.09,165.09,0,0,1-16.59-2.24,131,131,0,0,1-16.4-4.37,101,101,0,0,1-15.74-7,90.35,90.35,0,0,1-14.43-9.87,77.76,77.76,0,0,1-12.19-13c-.91-1.19-1.7-2.48-2.55-3.71s-1.56-2.59-2.33-3.88-1.41-2.69-2.05-4.06-1.27-2.77-1.76-4.23l-.78-2.17c-.24-.73-.44-1.48-.66-2.22-.47-1.46-.76-3-1.11-4.53a46.53,46.53,0,0,1-.78-9.59Z" />
			<line class="cls-2" x1="112.41" y1="78.94" x2="143.58" y2="23.49" />
			<line class="cls-2" x1="143.58" y1="23.49" x2="173.76" y2="78.94" />
			<line class="cls-2" x1="173.76" y1="78.94" x2="205.22" y2="23.49" />
			<line class="cls-2" x1="205.22" y1="23.49" x2="235.11" y2="78.94" />
			<line class="cls-2" x1="235.11" y1="78.94" x2="266.85" y2="23.49" />
			<line class="cls-2" x1="266.85" y1="23.49" x2="298.44" y2="78.94" />
			<line class="cls-2" x1="298.44" y1="78.94" x2="329.3" y2="23.49" />
			<line class="cls-2" x1="329.3" y1="23.49" x2="362.49" y2="78.94" />
			<line class="cls-2" x1="309.46" y1="196.33" x2="340.64" y2="140.89" />
			<line class="cls-2" x1="340.64" y1="140.89" x2="370.81" y2="196.33" />
			<line class="cls-2" x1="370.81" y1="196.33" x2="402.27" y2="140.89" />
			<line class="cls-2" x1="402.27" y1="140.89" x2="432.16" y2="196.33" />
			<line class="cls-2" x1="432.16" y1="196.33" x2="463.9" y2="140.89" />
			<line class="cls-2" x1="463.9" y1="140.89" x2="495.49" y2="196.33" />
			<line class="cls-2" x1="495.49" y1="196.33" x2="526.35" y2="140.89" />
			<line class="cls-2" x1="526.35" y1="140.89" x2="559.54" y2="196.33" />
			<line class="cls-2" x1="54.67" y1="145.12" x2="84.84" y2="200.56" />
			<line class="cls-2" x1="146.19" y1="200.56" x2="176.63" y2="145.12" />
			<line class="cls-2" x1="176.63" y1="145.12" x2="209.2" y2="200.56" />
			<line class="cls-2" x1="146.19" y1="200.56" x2="116.3" y2="145.12" />
			<line class="cls-2" x1="84.84" y1="200.56" x2="116.3" y2="145.12" />
			<line class="cls-2" x1="23.49" y1="200.56" x2="54.67" y2="145.12" />
			<circle class="cls-3" cx="146.19" cy="200.56" r="23.49" />
			<circle class="cls-3" cx="209.52" cy="200.56" r="23.49" transform="translate(-58.76 90.34) rotate(-21.41)" />
			<circle class="cls-3" cx="116.3" cy="145.12" r="23.49" />
			<circle class="cls-3" cx="177.93" cy="145.12" r="23.49" />
			<circle class="cls-3" cx="84.84" cy="200.56" r="23.49" />
			<circle class="cls-3" cx="54.67" cy="145.12" r="23.49" />
			<circle class="cls-3" cx="23.49" cy="200.56" r="23.49" />
			<circle class="cls-3" cx="235.11" cy="78.94" r="23.49" />
			<circle class="cls-3" cx="298.44" cy="78.94" r="23.49" />
			<circle class="cls-3" cx="205.22" cy="23.49" r="23.49" />
			<circle class="cls-3" cx="266.85" cy="23.49" r="23.49" />
			<circle class="cls-3" cx="173.76" cy="78.94" r="23.49" />
			<circle class="cls-3" cx="143.58" cy="23.49" r="23.49" />
			<circle class="cls-3" cx="112.41" cy="78.94" r="23.49" />
			<circle class="cls-3" cx="362.49" cy="78.94" r="23.49" />
			<circle class="cls-3" cx="329.3" cy="23.49" r="23.49" />
			<circle class="cls-3" cx="432.16" cy="196.33" r="23.49" />
			<circle class="cls-3" cx="495.49" cy="196.33" r="23.49" />
			<circle class="cls-3" cx="402.27" cy="140.89" r="23.49" />
			<circle class="cls-3" cx="463.9" cy="140.89" r="23.49" />
			<circle class="cls-3" cx="370.81" cy="196.33" r="23.49" />
			<circle class="cls-3" cx="340.64" cy="140.89" r="23.49" />
			<circle class="cls-3" cx="309.46" cy="196.33" r="23.49" />
			<circle class="cls-3" cx="559.54" cy="196.33" r="23.49" />
			<circle class="cls-3" cx="526.35" cy="140.89" r="23.49" />
			<path class="cls-4" d="M190.1,399.59H142.9q0-2.29.16-16.32t.16-40.78q0-10.33,0-26.85t-.28-32.48h47.2v7.72H154.62q-.17,16.1-.21,28.75t0,22.2q0,20.28.16,32t.17,18h35.4Z" />
			<path class="cls-4" d="M259.28,399.59H212.07q0-2.29.17-16.32t.16-40.78q0-10.33,0-26.85t-.29-32.48h47.21v7.72H223.79q-.16,16.1-.2,28.75t0,22.2q0,20.28.16,32t.16,18h35.41Z" />
			<path class="cls-4" d="M272.12,373.41c0-8.14,5.5-13.87,13.21-13.87s13,5.73,13,13.87c0,7.93-5.06,13.88-13.21,13.88C277.4,387.29,272.12,381.34,272.12,373.41Z" />
			<path class="cls-4" d="M359.86,399.59h-47.2v-7.72h35.4q0-6.93.17-19.95t.16-30.09q0-8.62,0-23.09t-.2-27.86H312.66v-7.72h47.2q-.24,15.9-.28,32.7t0,26.63q0,18.31.16,36.56T359.86,399.59Z" />
			<path class="cls-4" d="M429,399.59h-47.2v-7.72h35.4q0-6.93.16-19.95t.17-30.09q0-8.62-.05-23.09t-.2-27.86H381.84v-7.72H429q-.24,15.9-.28,32.7t0,26.63q0,18.31.16,36.56T429,399.59Z" />
		</g>
	</g>
</svg>