<svg xmlns="http://www.w3.org/2000/svg" viewBox="0 0 583.03 399.59"><defs><style>.cls-1{fill:#254756;}.cls-2,.cls-4{fill:none;}.cls-2{stroke:#254756;stroke-miterlimit:10;stroke-width:10px;}.cls-3{fill:#f3f0cf;}.cls-5{fill:#e1e8e3;}</style></defs><g id="Layer_2" data-name="Layer 2"><g id="Layer_1-2" data-name="Layer 1"><g id="bonsai"><g id="tree"><g id="links"><g id="link-curly"><path class="cls-1" d="M155.05,219.83a41.35,41.35,0,0,0,1,6.4,47.68,47.68,0,0,0,2.16,6.47,56.53,56.53,0,0,0,6.91,12.22,71.84,71.84,0,0,0,9.63,10.67l2.76,2.38c.94.78,1.94,1.49,2.9,2.25,2,1.48,4,2.89,6.09,4.21a105.38,105.38,0,0,0,13.25,7.05,117.12,117.12,0,0,0,14.31,5.34c4.92,1.46,10,2.67,15.08,3.66,2.57.42,5.14.93,7.74,1.21l3.9.5,3.93.36c2.6.27,5.27.34,7.91.52l4.18.25c.72.07,1.43.06,2.15.18l2.15.34a51.45,51.45,0,0,1,16.25,5.64,53.43,53.43,0,0,1,13.41,10.41A50.61,50.61,0,0,1,300,314a43.63,43.63,0,0,1,3.66,16.26,53.33,53.33,0,0,1-1.87,16.33,60.27,60.27,0,0,1-6.42,14.95,62.45,62.45,0,0,1-9.93,12.73l-.06-.06a61.81,61.81,0,0,0,9.1-13.16,57.91,57.91,0,0,0,5.41-14.92,51.19,51.19,0,0,0,.79-15.65,40.32,40.32,0,0,0-4.33-14.75,46.28,46.28,0,0,0-21.84-20.57,44.53,44.53,0,0,0-14.37-3.87l-1.84-.16c-.61-.07-1.25,0-1.87,0-1.28,0-2.43,0-3.89.06-2.72,0-5.43.19-8.19.13-5.49.07-11-.24-16.54-.61a165.09,165.09,0,0,1-16.59-2.24,131,131,0,0,1-16.4-4.37,101,101,0,0,1-15.74-7,90.35,90.35,0,0,1-14.43-9.87,77.76,77.76,0,0,1-12.19-13c-.91-1.19-1.7-2.48-2.55-3.71s-1.56-2.59-2.33-3.88-1.41-2.69-2.05-4.06-1.27-2.77-1.76-4.23l-.78-2.17c-.24-.73-.44-1.48-.66-2.22-.47-1.46-.76-3-1.11-4.53a46.53,46.53,0,0,1-.78-9.59Z"/></g><g id="link-straight"><line class="cls-2" x1="120.2" y1="65.08" x2="135.79" y2="37.35"/><line class="cls-2" x1="151.13" y1="37.35" x2="166.22" y2="65.08"/><line class="cls-2" x1="181.62" y1="65.08" x2="197.35" y2="37.35"/><line class="cls-2" x1="212.69" y1="37.35" x2="227.64" y2="65.08"/><line class="cls-2" x1="243.04" y1="65.08" x2="258.91" y2="37.35"/><line class="cls-2" x1="274.74" y1="37.35" x2="290.54" y2="65.08"/><line class="cls-2" x1="306.15" y1="65.08" x2="321.58" y2="37.35"/><line class="cls-2" x1="337.59" y1="37.35" x2="354.19" y2="65.08"/><line class="cls-2" x1="317.26" y1="182.47" x2="332.84" y2="154.75"/><line class="cls-2" x1="348.18" y1="154.75" x2="363.27" y2="182.47"/><line class="cls-2" x1="378.68" y1="182.47" x2="394.4" y2="154.75"/><line class="cls-2" x1="409.74" y1="154.75" x2="424.69" y2="182.47"/><line class="cls-2" x1="440.1" y1="182.47" x2="455.96" y2="154.75"/><line class="cls-2" x1="471.8" y1="154.75" x2="487.59" y2="182.47"/><line class="cls-2" x1="503.2" y1="182.47" x2="518.63" y2="154.75"/><line class="cls-2" x1="534.65" y1="154.75" x2="551.24" y2="182.47"/><line class="cls-2" x1="62.21" y1="158.98" x2="77.3" y2="186.7"/><line class="cls-2" x1="153.8" y1="186.7" x2="169.02" y2="158.98"/><line class="cls-2" x1="184.77" y1="158.98" x2="201.05" y2="186.7"/><line class="cls-2" x1="138.72" y1="186.7" x2="123.77" y2="158.98"/><line class="cls-2" x1="92.71" y1="186.7" x2="108.44" y2="158.98"/><line class="cls-2" x1="31.29" y1="186.7" x2="46.87" y2="158.98"/></g></g><g id="nodes"><g id="node-fill"><circle class="cls-3" cx="146.19" cy="200.56" r="23.49"/><circle class="cls-3" cx="209.52" cy="200.56" r="23.49" transform="translate(-58.76 90.34) rotate(-21.41)"/><circle class="cls-3" cx="116.3" cy="145.12" r="23.49"/><circle class="cls-3" cx="177.93" cy="145.12" r="23.49"/><circle class="cls-3" cx="84.84" cy="200.56" r="23.49"/><circle class="cls-3" cx="54.67" cy="145.12" r="23.49"/><circle class="cls-3" cx="23.49" cy="200.56" r="23.49"/><circle class="cls-3" cx="235.11" cy="78.94" r="23.49"/><circle class="cls-3" cx="298.44" cy="78.94" r="23.49"/><circle class="cls-3" cx="205.22" cy="23.49" r="23.49"/><circle class="cls-3" cx="266.85" cy="23.49" r="23.49"/><circle class="cls-3" cx="173.76" cy="78.94" r="23.49"/><circle class="cls-3" cx="143.58" cy="23.49" r="23.49"/><circle class="cls-3" cx="112.41" cy="78.94" r="23.49"/><circle class="cls-3" cx="362.49" cy="78.94" r="23.49"/><circle class="cls-3" cx="329.3" cy="23.49" r="23.49"/><circle class="cls-3" cx="432.16" cy="196.33" r="23.49"/><circle class="cls-3" cx="495.49" cy="196.33" r="23.49"/><circle class="cls-3" cx="402.27" cy="140.89" r="23.49"/><circle class="cls-3" cx="463.9" cy="140.89" r="23.49"/><circle class="cls-3" cx="370.81" cy="196.33" r="23.49"/><circle class="cls-3" cx="340.64" cy="140.89" r="23.49"/><circle class="cls-3" cx="309.46" cy="196.33" r="23.49"/><circle class="cls-3" cx="559.54" cy="196.33" r="23.49"/><circle class="cls-3" cx="526.35" cy="140.89" r="23.49"/></g><g id="node-stroke"><path class="cls-4" d="M438.43,173.7a23.49,23.49,0,1,0,16.37,28.9A23.5,23.5,0,0,0,438.43,173.7Zm8,26.76a14.91,14.91,0,1,1-10.39-18.35A14.91,14.91,0,0,1,446.45,200.46Z"/><path class="cls-4" d="M501.76,173.7a23.49,23.49,0,1,0,16.36,28.9A23.49,23.49,0,0,0,501.76,173.7Zm8,26.76a14.91,14.91,0,1,1-10.39-18.35A14.91,14.91,0,0,1,509.78,200.46Z"/><path class="cls-4" d="M424.9,147.16A23.49,23.49,0,1,0,396,163.53,23.47,23.47,0,0,0,424.9,147.16Zm-8.25-2.31a14.91,14.91,0,1,1-10.39-18.35A14.91,14.91,0,0,1,416.65,144.85Z"/><path class="cls-4" d="M486.54,147.16a23.49,23.49,0,1,0-28.91,16.37A23.49,23.49,0,0,0,486.54,147.16Zm-8.27-2.29a14.91,14.91,0,1,1-10.39-18.35A14.91,14.91,0,0,1,478.27,144.87Z"/><path class="cls-4" d="M377.08,173.7a23.49,23.49,0,1,0,16.37,28.9A23.49,23.49,0,0,0,377.08,173.7Zm8.18,26.76a14.91,14.91,0,1,1-10.39-18.35A14.91,14.91,0,0,1,385.26,200.46Z"/><path class="cls-4" d="M363.27,147.16a23.49,23.49,0,1,0-28.9,16.37A23.48,23.48,0,0,0,363.27,147.16ZM355,144.87a14.91,14.91,0,1,1-10.4-18.35A14.91,14.91,0,0,1,355,144.87Z"/><path class="cls-4" d="M315.73,173.7a23.49,23.49,0,1,0,16.37,28.9A23.49,23.49,0,0,0,315.73,173.7Zm8.11,26.76a14.91,14.91,0,1,1-10.39-18.35A14.91,14.91,0,0,1,323.84,200.46Z"/><path class="cls-4" d="M565.8,173.7a23.49,23.49,0,1,0,16.37,28.9A23.49,23.49,0,0,0,565.8,173.7Zm8.11,26.76a14.91,14.91,0,1,1-10.39-18.35A14.91,14.91,0,0,1,573.91,200.46Z"/><path class="cls-4" d="M549,147.16a23.49,23.49,0,1,0-28.9,16.37A23.47,23.47,0,0,0,549,147.16Zm-8.26-2.29a14.91,14.91,0,1,1-10.39-18.35A14.91,14.91,0,0,1,540.72,144.87Z"/><path class="cls-4" d="M241.36,56.3a23.49,23.49,0,1,0,16.37,28.9A23.49,23.49,0,0,0,241.36,56.3Zm8,26.76A14.91,14.91,0,1,1,239,64.71,14.91,14.91,0,0,1,249.38,83.06Z"/><path class="cls-4" d="M304.69,56.3a23.49,23.49,0,1,0,16.37,28.9A23.49,23.49,0,0,0,304.69,56.3Zm8,26.76a14.91,14.91,0,1,1-10.39-18.35A14.91,14.91,0,0,1,312.71,83.06Z"/><path class="cls-4" d="M227.84,29.76a23.49,23.49,0,1,0-28.91,16.37A23.49,23.49,0,0,0,227.84,29.76Zm-8.26-2.31A14.91,14.91,0,1,1,209.19,9.1,14.92,14.92,0,0,1,219.58,27.45Z"/><path class="cls-4" d="M289.47,29.76a23.49,23.49,0,1,0-28.91,16.37A23.49,23.49,0,0,0,289.47,29.76Zm-8.27-2.29A14.91,14.91,0,1,1,270.81,9.12,14.91,14.91,0,0,1,281.2,27.47Z"/><path class="cls-4" d="M180,56.3a23.49,23.49,0,1,0,16.37,28.9A23.49,23.49,0,0,0,180,56.3Zm8.18,26.76A14.91,14.91,0,1,1,177.8,64.71,14.91,14.91,0,0,1,188.19,83.06Z"/><path class="cls-4" d="M166.2,29.76a23.49,23.49,0,1,0-28.9,16.37A23.47,23.47,0,0,0,166.2,29.76Zm-8.26-2.29A14.91,14.91,0,1,1,147.55,9.12,14.91,14.91,0,0,1,157.94,27.47Z"/><path class="cls-4" d="M118.66,56.3A23.49,23.49,0,1,0,135,85.2,23.49,23.49,0,0,0,118.66,56.3Zm8.11,26.76a14.91,14.91,0,1,1-10.39-18.35A14.9,14.9,0,0,1,126.77,83.06Z"/><path class="cls-4" d="M368.74,56.3a23.49,23.49,0,1,0,16.37,28.9A23.49,23.49,0,0,0,368.74,56.3Zm8.1,26.76a14.91,14.91,0,1,1-10.39-18.35A14.91,14.91,0,0,1,376.84,83.06Z"/><path class="cls-4" d="M351.92,29.76A23.49,23.49,0,1,0,323,46.13,23.49,23.49,0,0,0,351.92,29.76Zm-8.27-2.29A14.91,14.91,0,1,1,333.26,9.12,14.91,14.91,0,0,1,343.65,27.47Z"/><path class="cls-4" d="M152.51,177.93a23.49,23.49,0,1,0,16.37,28.9A23.47,23.47,0,0,0,152.51,177.93Zm8,26.75a14.91,14.91,0,1,1-10.4-18.34A14.92,14.92,0,0,1,160.54,204.68Z"/><path class="cls-4" d="M215.84,177.93a23.49,23.49,0,1,0,16.37,28.9A23.47,23.47,0,0,0,215.84,177.93Zm8,26.75a14.91,14.91,0,1,1-10.39-18.34A14.91,14.91,0,0,1,223.86,204.68Z"/><path class="cls-4" d="M139,151.39a23.49,23.49,0,1,0-28.9,16.37A23.49,23.49,0,0,0,139,151.39Zm-8.25-2.31a14.92,14.92,0,1,1-10.4-18.35A14.91,14.91,0,0,1,130.74,149.08Z"/><path class="cls-4" d="M200.62,151.39a23.49,23.49,0,1,0-28.9,16.37A23.49,23.49,0,0,0,200.62,151.39Zm-8.26-2.29A14.91,14.91,0,1,1,182,130.75,14.92,14.92,0,0,1,192.36,149.1Z"/><path class="cls-4" d="M91.17,177.93a23.49,23.49,0,1,0,16.36,28.9A23.48,23.48,0,0,0,91.17,177.93Zm8.18,26.75A14.91,14.91,0,1,1,89,186.34,14.92,14.92,0,0,1,99.35,204.68Z"/><path class="cls-4" d="M77.36,151.39a23.49,23.49,0,1,0-28.9,16.37A23.49,23.49,0,0,0,77.36,151.39Zm-8.27-2.29A14.91,14.91,0,1,1,58.7,130.75,14.91,14.91,0,0,1,69.09,149.1Z"/><path class="cls-4" d="M29.82,177.93a23.49,23.49,0,1,0,16.37,28.9A23.48,23.48,0,0,0,29.82,177.93Zm8.11,26.75a14.91,14.91,0,1,1-10.39-18.34A14.92,14.92,0,0,1,37.93,204.68Z"/></g></g></g><g id="txt"><g id="wikilinks"><path class="cls-5" d="M190.1,399.59H142.9q0-2.29.16-16.32t.16-40.78q0-10.33,0-26.85t-.28-32.48h47.2v7.72H154.62q-.17,16.1-.21,28.75t0,22.2q0,20.28.16,32t.17,18h35.4Z"/><path class="cls-5" d="M259.28,399.59H212.07q0-2.29.17-16.32t.16-40.78q0-10.33,0-26.85t-.29-32.48h47.21v7.72H223.79q-.16,16.1-.2,28.75t0,22.2q0,20.28.16,32t.16,18h35.41Z"/><path class="cls-5" d="M359.86,399.59h-47.2v-7.72h35.4q0-6.93.17-19.95t.16-30.09q0-8.62,0-23.09t-.2-27.86H312.66v-7.72h47.2q-.24,15.9-.28,32.7t0,26.63q0,18.31.16,36.56T359.86,399.59Z"/><path class="cls-5" d="M429,399.59h-47.2v-7.72h35.4q0-6.93.16-19.95t.17-30.09q0-8.62-.05-23.09t-.2-27.86H381.84v-7.72H429q-.24,15.9-.28,32.7t0,26.63q0,18.31.16,36.56T429,399.59Z"/></g><path id="dot" class="cls-5" d="M272.12,373.41c0-8.14,5.5-13.87,13.21-13.87s13,5.73,13,13.87c0,7.93-5.06,13.88-13.21,13.88C277.4,387.29,272.12,381.34,272.12,373.41Z"/></g></g></g></g></svg>